<svg width="317" height="327" viewBox="0 0 317 327" fill="none" xmlns="http://www.w3.org/2000/svg">
<rect width="317" height="327" rx="23" fill="#DADBDC"/>
<path d="M115.203 292.14C114.27 292.14 113.43 291.98 112.683 291.66C111.936 291.327 111.35 290.86 110.923 290.26C110.496 289.66 110.283 288.96 110.283 288.16H112.723C112.776 288.76 113.01 289.253 113.423 289.64C113.85 290.027 114.443 290.22 115.203 290.22C115.99 290.22 116.603 290.033 117.043 289.66C117.483 289.273 117.703 288.78 117.703 288.18C117.703 287.713 117.563 287.333 117.283 287.04C117.016 286.747 116.676 286.52 116.263 286.36C115.863 286.2 115.303 286.027 114.583 285.84C113.676 285.6 112.936 285.36 112.363 285.12C111.803 284.867 111.323 284.48 110.923 283.96C110.523 283.44 110.323 282.747 110.323 281.88C110.323 281.08 110.523 280.38 110.923 279.78C111.323 279.18 111.883 278.72 112.603 278.4C113.323 278.08 114.156 277.92 115.103 277.92C116.45 277.92 117.55 278.26 118.403 278.94C119.27 279.607 119.75 280.527 119.843 281.7H117.323C117.283 281.193 117.043 280.76 116.603 280.4C116.163 280.04 115.583 279.86 114.863 279.86C114.21 279.86 113.676 280.027 113.263 280.36C112.85 280.693 112.643 281.173 112.643 281.8C112.643 282.227 112.77 282.58 113.023 282.86C113.29 283.127 113.623 283.34 114.023 283.5C114.423 283.66 114.97 283.833 115.663 284.02C116.583 284.273 117.33 284.527 117.903 284.78C118.49 285.033 118.983 285.427 119.383 285.96C119.796 286.48 120.003 287.18 120.003 288.06C120.003 288.767 119.81 289.433 119.423 290.06C119.05 290.687 118.496 291.193 117.763 291.58C117.043 291.953 116.19 292.14 115.203 292.14ZM134.673 280.98V292H132.393V290.7C132.033 291.153 131.56 291.513 130.973 291.78C130.4 292.033 129.787 292.16 129.133 292.16C128.267 292.16 127.487 291.98 126.793 291.62C126.113 291.26 125.573 290.727 125.173 290.02C124.787 289.313 124.593 288.46 124.593 287.46V280.98H126.853V287.12C126.853 288.107 127.1 288.867 127.593 289.4C128.087 289.92 128.76 290.18 129.613 290.18C130.467 290.18 131.14 289.92 131.633 289.4C132.14 288.867 132.393 288.107 132.393 287.12V280.98H134.673ZM138.922 286.48C138.922 285.347 139.148 284.353 139.602 283.5C140.068 282.633 140.708 281.967 141.522 281.5C142.335 281.033 143.268 280.8 144.322 280.8C145.655 280.8 146.755 281.12 147.622 281.76C148.502 282.387 149.095 283.287 149.402 284.46H146.942C146.742 283.913 146.422 283.487 145.982 283.18C145.542 282.873 144.988 282.72 144.322 282.72C143.388 282.72 142.642 283.053 142.082 283.72C141.535 284.373 141.262 285.293 141.262 286.48C141.262 287.667 141.535 288.593 142.082 289.26C142.642 289.927 143.388 290.26 144.322 290.26C145.642 290.26 146.515 289.68 146.942 288.52H149.402C149.082 289.64 148.482 290.533 147.602 291.2C146.722 291.853 145.628 292.18 144.322 292.18C143.268 292.18 142.335 291.947 141.522 291.48C140.708 291 140.068 290.333 139.602 289.48C139.148 288.613 138.922 287.613 138.922 286.48ZM152.914 286.48C152.914 285.347 153.14 284.353 153.594 283.5C154.06 282.633 154.7 281.967 155.514 281.5C156.327 281.033 157.26 280.8 158.314 280.8C159.647 280.8 160.747 281.12 161.614 281.76C162.494 282.387 163.087 283.287 163.394 284.46H160.934C160.734 283.913 160.414 283.487 159.974 283.18C159.534 282.873 158.98 282.72 158.314 282.72C157.38 282.72 156.634 283.053 156.074 283.72C155.527 284.373 155.254 285.293 155.254 286.48C155.254 287.667 155.527 288.593 156.074 289.26C156.634 289.927 157.38 290.26 158.314 290.26C159.634 290.26 160.507 289.68 160.934 288.52H163.394C163.074 289.64 162.474 290.533 161.594 291.2C160.714 291.853 159.62 292.18 158.314 292.18C157.26 292.18 156.327 291.947 155.514 291.48C154.7 291 154.06 290.333 153.594 289.48C153.14 288.613 152.914 287.613 152.914 286.48ZM177.766 286.22C177.766 286.633 177.739 287.007 177.686 287.34H169.266C169.333 288.22 169.659 288.927 170.246 289.46C170.833 289.993 171.553 290.26 172.406 290.26C173.633 290.26 174.499 289.747 175.006 288.72H177.466C177.133 289.733 176.526 290.567 175.646 291.22C174.779 291.86 173.699 292.18 172.406 292.18C171.353 292.18 170.406 291.947 169.566 291.48C168.739 291 168.086 290.333 167.606 289.48C167.139 288.613 166.906 287.613 166.906 286.48C166.906 285.347 167.133 284.353 167.586 283.5C168.053 282.633 168.699 281.967 169.526 281.5C170.366 281.033 171.326 280.8 172.406 280.8C173.446 280.8 174.373 281.027 175.186 281.48C175.999 281.933 176.633 282.573 177.086 283.4C177.539 284.213 177.766 285.153 177.766 286.22ZM175.386 285.5C175.373 284.66 175.073 283.987 174.486 283.48C173.899 282.973 173.173 282.72 172.306 282.72C171.519 282.72 170.846 282.973 170.286 283.48C169.726 283.973 169.393 284.647 169.286 285.5H175.386ZM186.01 292.18C185.143 292.18 184.363 292.027 183.67 291.72C182.99 291.4 182.45 290.973 182.05 290.44C181.65 289.893 181.436 289.287 181.41 288.62H183.77C183.81 289.087 184.03 289.48 184.43 289.8C184.843 290.107 185.356 290.26 185.97 290.26C186.61 290.26 187.103 290.14 187.45 289.9C187.81 289.647 187.99 289.327 187.99 288.94C187.99 288.527 187.79 288.22 187.39 288.02C187.003 287.82 186.383 287.6 185.53 287.36C184.703 287.133 184.03 286.913 183.51 286.7C182.99 286.487 182.536 286.16 182.15 285.72C181.776 285.28 181.59 284.7 181.59 283.98C181.59 283.393 181.763 282.86 182.11 282.38C182.456 281.887 182.95 281.5 183.59 281.22C184.243 280.94 184.99 280.8 185.83 280.8C187.083 280.8 188.09 281.12 188.85 281.76C189.623 282.387 190.036 283.247 190.09 284.34H187.81C187.77 283.847 187.57 283.453 187.21 283.16C186.85 282.867 186.363 282.72 185.75 282.72C185.15 282.72 184.69 282.833 184.37 283.06C184.05 283.287 183.89 283.587 183.89 283.96C183.89 284.253 183.996 284.5 184.21 284.7C184.423 284.9 184.683 285.06 184.99 285.18C185.296 285.287 185.75 285.427 186.35 285.6C187.15 285.813 187.803 286.033 188.31 286.26C188.83 286.473 189.276 286.793 189.65 287.22C190.023 287.647 190.216 288.213 190.23 288.92C190.23 289.547 190.056 290.107 189.71 290.6C189.363 291.093 188.87 291.48 188.23 291.76C187.603 292.04 186.863 292.18 186.01 292.18ZM198.693 292.18C197.827 292.18 197.047 292.027 196.353 291.72C195.673 291.4 195.133 290.973 194.733 290.44C194.333 289.893 194.12 289.287 194.093 288.62H196.453C196.493 289.087 196.713 289.48 197.113 289.8C197.527 290.107 198.04 290.26 198.653 290.26C199.293 290.26 199.787 290.14 200.133 289.9C200.493 289.647 200.673 289.327 200.673 288.94C200.673 288.527 200.473 288.22 200.073 288.02C199.687 287.82 199.067 287.6 198.213 287.36C197.387 287.133 196.713 286.913 196.193 286.7C195.673 286.487 195.22 286.16 194.833 285.72C194.46 285.28 194.273 284.7 194.273 283.98C194.273 283.393 194.447 282.86 194.793 282.38C195.14 281.887 195.633 281.5 196.273 281.22C196.927 280.94 197.673 280.8 198.513 280.8C199.767 280.8 200.773 281.12 201.533 281.76C202.307 282.387 202.72 283.247 202.773 284.34H200.493C200.453 283.847 200.253 283.453 199.893 283.16C199.533 282.867 199.047 282.72 198.433 282.72C197.833 282.72 197.373 282.833 197.053 283.06C196.733 283.287 196.573 283.587 196.573 283.96C196.573 284.253 196.68 284.5 196.893 284.7C197.107 284.9 197.367 285.06 197.673 285.18C197.98 285.287 198.433 285.427 199.033 285.6C199.833 285.813 200.487 286.033 200.993 286.26C201.513 286.473 201.96 286.793 202.333 287.22C202.707 287.647 202.9 288.213 202.913 288.92C202.913 289.547 202.74 290.107 202.393 290.6C202.047 291.093 201.553 291.48 200.913 291.76C200.287 292.04 199.547 292.18 198.693 292.18Z" fill="black"/>
<path d="M179.638 115.777C179.638 115.777 179.292 98.2266 196.011 98.2266C213.635 98.2266 210.371 86.3501 227.374 87.3195C238.866 87.9755 241.847 99.4949 248.455 101.197C255.063 102.899 261.285 104.964 261.285 115.445L179.638 115.777Z" fill="white"/>
<path d="M215.765 203.386C215.765 203.386 215.51 190.439 227.843 190.439C240.847 190.439 238.438 181.676 250.982 182.392C259.46 182.876 261.658 191.375 266.534 192.63C271.411 193.886 276 195.41 276 203.142L215.765 203.386Z" fill="white"/>
<path d="M44.0005 144.047C44.0005 144.047 43.6938 128.453 58.5469 128.453C74.2058 128.453 71.3059 117.902 86.4108 118.764C96.6196 119.347 99.2678 129.582 105.14 131.094C111.012 132.606 116.539 134.441 116.539 143.752L44.0005 144.047Z" fill="white"/>
<path opacity="0.1" d="M179.638 115.777C179.638 115.777 179.292 98.2266 196.011 98.2266C213.635 98.2266 210.371 86.3501 227.374 87.3195C238.866 87.9755 241.847 99.4949 248.455 101.197C255.063 102.899 261.285 104.964 261.285 115.445L179.638 115.777Z" fill="#367CFF"/>
<path opacity="0.1" d="M215.765 203.386C215.765 203.386 215.51 190.439 227.843 190.439C240.847 190.439 238.438 181.676 250.982 182.392C259.46 182.876 261.658 191.375 266.534 192.63C271.411 193.886 276 195.41 276 203.142L215.765 203.386Z" fill="#367CFF"/>
<path opacity="0.1" d="M44.0005 144.047C44.0005 144.047 43.6938 128.453 58.5469 128.453C74.2058 128.453 71.3059 117.902 86.4108 118.764C96.6196 119.347 99.2678 129.582 105.14 131.094C111.012 132.606 116.539 134.441 116.539 143.752L44.0005 144.047Z" fill="#367CFF"/>
<path d="M217.709 77.9453C217.58 77.7488 217.494 77.5295 217.458 77.3008C217.421 77.072 217.434 76.8386 217.496 76.6147C217.557 76.3908 217.666 76.1812 217.816 75.9986C217.966 75.816 218.153 75.6642 218.367 75.5526C218.788 75.3502 219.275 75.3072 219.728 75.4323C220.182 75.5574 220.568 75.8413 220.809 76.2265L222.09 78.1794L221.471 71.3158C221.338 70.4357 221.764 69.2768 222.813 69.1988C223.656 69.0828 224.344 68.0072 225.353 68.4803C225.362 68.4778 233.281 74.399 233.405 75.2144L233.893 86.0791C234.423 89.5386 222.037 88.8452 222.037 88.8452L217.709 77.9453Z" fill="#E98862"/>
<g opacity="0.1">
<path d="M217.709 77.9453C217.58 77.7488 217.494 77.5295 217.458 77.3008C217.421 77.072 217.434 76.8386 217.496 76.6147C217.557 76.3908 217.666 76.1812 217.816 75.9986C217.966 75.816 218.153 75.6642 218.367 75.5526C218.788 75.3502 219.275 75.3072 219.728 75.4323C220.182 75.5574 220.568 75.8413 220.809 76.2265L222.09 78.1794L221.471 71.3158C221.338 70.4357 221.764 69.2768 222.813 69.1988C223.656 69.0828 224.344 68.0072 225.353 68.4803C225.362 68.4778 233.281 74.399 233.405 75.2144L233.893 86.0791C234.423 89.5386 222.037 88.8452 222.037 88.8452L217.709 77.9453Z" fill="#0C0C0C"/>
</g>
<path d="M133.057 131.241C133.057 131.241 132.346 141.368 129.945 145.04C123.035 155.617 121.033 167.514 127.953 173.731C134.873 179.947 179.012 180.034 182.356 165.737C185.172 153.7 179.13 152.406 177.66 142.477C176.995 137.984 175.165 128.563 175.165 128.563" fill="#0A0A0A"/>
<path d="M170.931 163.641C170.855 163.631 170.01 176.946 153.712 175.785C142.429 174.983 138.406 163.621 138.146 163.621C139.363 163.375 141.411 163.019 141.951 162.745C143.728 161.839 145.925 160.896 146.499 157.622C146.83 155.736 146.269 146.079 146.441 144.169L163.76 147.837C163.518 151.87 161.825 161.22 167.761 162.874C168.75 163.15 169.814 163.402 170.931 163.641Z" fill="#E98862"/>
<path opacity="0.5" d="M164.005 159.055C163.733 158.226 163.559 157.37 163.484 156.504C163.293 154.528 163.331 152.539 163.597 150.57C160.077 150.119 156.761 148.741 154.026 146.59C153.704 147.718 151.935 152.643 152.425 153.714C153.35 155.739 157.699 159.055 164.005 159.055Z" fill="#0C0C0C"/>
<path d="M161.765 154.907C154.937 155.535 146.102 152.942 144.272 144.312L142.621 136.524C140.79 127.894 144.082 119.986 152.644 118.35C161.206 116.716 169.089 122.488 170.919 131.119L171.651 134.566C172.353 137.878 173.948 153.788 161.765 154.907Z" fill="#E98862"/>
<path d="M166.622 144.586C164.403 145.657 161.872 145.995 159.428 145.548C159.344 145.533 159.256 145.541 159.176 145.571C159.096 145.601 159.027 145.652 158.976 145.719C158.926 145.785 158.896 145.864 158.891 145.945C158.886 146.027 158.906 146.108 158.948 146.18C159.676 147.398 161.405 149.48 164.369 148.631C166.284 148.083 167.007 146.214 167.275 145.058C167.294 144.978 167.288 144.895 167.258 144.818C167.228 144.741 167.176 144.674 167.107 144.624C167.038 144.575 166.956 144.545 166.87 144.538C166.785 144.531 166.698 144.548 166.622 144.586Z" fill="white"/>
<path d="M166.761 135.221C167.353 135.221 167.833 134.766 167.833 134.204C167.833 133.642 167.353 133.186 166.761 133.186C166.169 133.186 165.689 133.642 165.689 134.204C165.689 134.766 166.169 135.221 166.761 135.221Z" fill="#0C0C0C"/>
<path d="M156.459 136.933C157.051 136.933 157.531 136.477 157.531 135.916C157.531 135.354 157.051 134.898 156.459 134.898C155.867 134.898 155.387 135.354 155.387 135.916C155.387 136.477 155.867 136.933 156.459 136.933Z" fill="#0C0C0C"/>
<path opacity="0.1" d="M157.425 143.598C158.548 143.471 159.38 142.734 159.281 141.951C159.183 141.169 158.192 140.638 157.069 140.765C155.945 140.893 155.114 141.63 155.212 142.412C155.31 143.194 156.301 143.725 157.425 143.598Z" fill="#0C0C0C"/>
<path opacity="0.1" d="M169.298 140.47C169.398 141.252 170.389 141.782 171.513 141.656C171.708 141.634 171.899 141.593 172.084 141.533C172.136 140.602 172.139 139.706 172.111 138.876C171.799 138.802 171.475 138.784 171.156 138.823C170.032 138.949 169.201 139.686 169.298 140.47Z" fill="#0C0C0C"/>
<path opacity="0.5" d="M164.333 142.885L164.35 142.882C164.697 142.814 165.04 142.727 165.377 142.622C165.879 142.463 166.536 142.201 166.446 141.769C166.342 141.277 163.796 136.243 163.507 135.671C163.482 135.621 163.436 135.583 163.381 135.564C163.326 135.546 163.265 135.549 163.213 135.573C163.16 135.597 163.12 135.64 163.1 135.692C163.081 135.745 163.084 135.802 163.11 135.852C164.195 137.996 165.943 141.521 166.013 141.853C165.958 142.007 165.124 142.308 164.263 142.473C164.206 142.483 164.156 142.513 164.122 142.558C164.089 142.602 164.075 142.658 164.084 142.712C164.093 142.766 164.125 142.815 164.171 142.847C164.218 142.88 164.276 142.894 164.333 142.886L164.333 142.885Z" fill="#0C0C0C"/>
<path d="M135.789 139.32L143.465 137.897C149.263 135.596 150.908 126.005 150.908 126.005C150.908 126.005 158.063 132.473 175.165 128.562C175.165 128.562 171.45 105.903 146.198 112.781C138.055 114.999 132.288 122.876 133.146 133.309C133.747 140.62 135.789 139.32 135.789 139.32Z" fill="#0A0A0A"/>
<path d="M145.361 146.839C142.759 147.336 140.089 145.097 139.565 142.627C139.041 140.157 140.862 138.393 143.464 137.896L145.156 139.295L147.597 146.411L145.361 146.839Z" fill="#E98862"/>
<path d="M165.351 131.656C166.002 131.219 166.764 130.953 167.558 130.887C167.956 130.851 168.358 130.872 168.75 130.949C169.146 131.026 169.53 131.15 169.893 131.317L169.905 131.322C169.945 131.339 169.99 131.34 170.032 131.325C170.073 131.311 170.106 131.281 170.125 131.244C170.144 131.206 170.146 131.163 170.132 131.123C170.117 131.084 170.087 131.051 170.048 131.032C169.663 130.839 169.254 130.693 168.831 130.597C168.404 130.499 167.965 130.462 167.527 130.488C166.64 130.534 165.782 130.806 165.043 131.274C164.987 131.309 164.949 131.365 164.936 131.427C164.924 131.49 164.938 131.555 164.976 131.607C165.014 131.66 165.072 131.696 165.138 131.708C165.204 131.72 165.272 131.707 165.328 131.671L165.334 131.667L165.351 131.656Z" fill="#0C0C0C"/>
<path d="M158.34 132.576C157.468 132.411 156.566 132.472 155.728 132.751C155.313 132.886 154.922 133.08 154.568 133.326C154.216 133.568 153.897 133.852 153.619 134.17C153.59 134.201 153.575 134.242 153.577 134.284C153.579 134.326 153.599 134.366 153.632 134.394C153.665 134.422 153.708 134.437 153.752 134.436C153.796 134.434 153.838 134.416 153.868 134.385L153.877 134.377C154.145 134.09 154.45 133.837 154.785 133.622C155.116 133.408 155.479 133.242 155.862 133.131C156.623 132.904 157.434 132.873 158.211 133.04L158.23 133.044C158.296 133.059 158.364 133.049 158.422 133.016C158.479 132.983 158.52 132.93 158.536 132.868C158.552 132.806 158.541 132.74 158.506 132.686C158.471 132.632 158.415 132.593 158.35 132.578L158.34 132.576Z" fill="#0C0C0C"/>
<path d="M143.47 137.777C148.63 135.954 150.342 132.573 150.869 130.056C151.21 128.378 151.178 126.65 150.775 124.985L150.616 125.026C151.013 126.67 151.043 128.375 150.706 130.031C150.185 132.507 148.497 135.834 143.412 137.63L143.47 137.777Z" fill="#0C0C0C"/>
<path d="M84.7266 100.938L81.3386 90.6632C81.2641 90.4375 81.1409 90.2289 80.9769 90.0508C80.8128 89.8727 80.6115 89.729 80.3857 89.6288C80.16 89.5286 79.9147 89.4741 79.6655 89.4688C79.4163 89.4635 79.1687 89.5075 78.9384 89.598C78.5188 89.7776 78.1843 90.0987 77.9999 90.4991C77.8155 90.8995 77.7944 91.3506 77.9406 91.7649L78.6672 93.9681L73.0317 88.0351C72.4173 87.365 71.2102 86.9158 70.4653 87.6196C70.1595 87.8725 69.953 88.2164 69.8796 88.5951C69.8061 88.9737 69.8701 89.3648 70.0609 89.7045C70.0528 89.7084 70.0451 89.7131 70.0381 89.7187C70.0335 89.7236 70.0293 89.7289 70.0255 89.7344L69.0783 88.7012C68.9027 88.5099 68.6843 88.3582 68.4391 88.2571C68.1939 88.156 67.928 88.1082 67.6608 88.117C67.3936 88.1259 67.1319 88.1912 66.8947 88.3083C66.6575 88.4253 66.4508 88.5911 66.2897 88.7936C66.0427 89.1172 65.9203 89.5115 65.943 89.9104C65.9656 90.3094 66.132 90.6889 66.4142 90.9854L66.8173 91.4255C66.8094 91.4425 66.8047 91.4607 66.8034 91.4792C66.4583 91.2421 66.0356 91.1291 65.6109 91.1606C65.1862 91.1921 64.7871 91.366 64.4851 91.6512C64.1643 91.9723 63.983 92.3964 63.9772 92.8389C63.9714 93.2813 64.1417 93.7096 64.4539 94.0381L65.4554 95.1301C65.4298 95.1242 65.4031 95.1242 65.3774 95.13C65.3517 95.1357 65.3278 95.1472 65.3077 95.1634C65.2849 95.1839 65.2689 95.2102 65.2617 95.2392C64.8927 95.1091 64.4888 95.0977 64.1123 95.2067C63.7357 95.3157 63.4073 95.539 63.1775 95.8424C62.943 96.1657 62.8303 96.5547 62.8578 96.9464C62.8853 97.3381 63.0513 97.7096 63.3289 98.0005L71.7785 107.214C72.9608 108.503 74.5215 109.428 76.2607 109.869C78 110.311 79.8386 110.249 81.5409 109.693C83.0087 109.213 84.2215 108.209 84.9217 106.894C85.6218 105.579 85.754 104.056 85.2903 102.65L84.7266 100.938Z" fill="#E98862"/>
<g opacity="0.2">
<path d="M75.608 95.6035C75.5752 95.6305 75.5324 95.6441 75.4891 95.6415C75.4457 95.6389 75.4051 95.6201 75.3762 95.5894L70.0255 89.9406C69.9961 89.9096 69.9809 89.8688 69.9833 89.8271C69.9856 89.7855 70.0053 89.7464 70.0379 89.7185C70.0706 89.6907 70.1136 89.6762 70.1575 89.6784C70.2014 89.6807 70.2425 89.6993 70.2719 89.7303L75.6233 95.3791C75.6526 95.4101 75.6678 95.4508 75.6655 95.4925C75.6632 95.5341 75.6436 95.5731 75.611 95.601L75.608 95.6035Z" fill="#0C0C0C"/>
</g>
<g opacity="0.2">
<path d="M73.0483 97.9122C73.0154 97.9392 72.9727 97.9529 72.9293 97.9502C72.8859 97.9476 72.8454 97.9289 72.8164 97.8981L66.8451 91.594C66.8157 91.563 66.8005 91.5222 66.8028 91.4806C66.8051 91.439 66.8248 91.3999 66.8574 91.3721C66.8907 91.3455 66.9335 91.3319 66.9769 91.3341C67.0204 91.3363 67.0614 91.3542 67.0915 91.384L73.0635 97.6878C73.0929 97.7188 73.1081 97.7596 73.1058 97.8012C73.1035 97.8428 73.0839 97.8818 73.0513 97.9097L73.0483 97.9122Z" fill="#0C0C0C"/>
</g>
<g opacity="0.2">
<path d="M70.2908 100.428C70.2578 100.455 70.2151 100.469 70.1717 100.466C70.1283 100.463 70.0878 100.444 70.0589 100.414L65.2958 95.3863C65.2664 95.3553 65.2512 95.3145 65.2535 95.2728C65.2559 95.2312 65.2755 95.1921 65.3082 95.1643C65.3409 95.1364 65.3839 95.1219 65.4278 95.1242C65.4716 95.1264 65.5128 95.145 65.5422 95.176L70.3063 100.205C70.3357 100.236 70.3508 100.277 70.3484 100.319C70.3461 100.36 70.3264 100.399 70.2937 100.427L70.2908 100.428Z" fill="#0C0C0C"/>
</g>
<path d="M216.488 82.3437L205.644 132.029L168.716 167.433L188.105 184.57L224.717 144.897L224.937 144.663C226.228 143.253 227.128 141.56 227.556 139.737L239.986 87.1554L216.488 82.3437Z" fill="#367CFF"/>
<path d="M153.16 172.473C141.87 171.968 141.395 162.872 141.395 162.872C141.395 162.872 135.8 163.215 132.081 163.693C125.992 164.475 121.976 166.434 118.779 169.468C115.806 172.29 116.649 181.094 116.649 181.094L119.634 239.999H187.776L190.998 181.418C190.998 181.418 194.658 173.984 188.436 167.736C183.924 163.206 172.275 162.872 167.586 162.872C167.509 162.872 168.537 173.161 153.16 172.473Z" fill="#367CFF"/>
<path d="M100.113 141.885L87.9039 100.443L64.8158 106.796L78.93 151.414C79.5755 153.436 80.8012 155.248 82.4698 156.647L82.7016 156.84L119.89 187.864L136.691 168.419L100.113 141.885Z" fill="#367CFF"/>
<path d="M219.124 69.9212L218.565 70.2826C217.146 71.2015 215.55 71.8461 213.868 72.1795C212.186 72.5129 210.451 72.5286 208.763 72.2257C207.075 71.9229 205.466 71.3074 204.029 70.4144C202.591 69.5214 201.353 68.3684 200.385 67.0212L195.155 59.7417C195.086 59.6457 195.037 59.5377 195.012 59.424C194.987 59.3102 194.986 59.1929 195.009 59.0787C195.032 58.9645 195.078 58.8557 195.145 58.7585C195.212 58.6613 195.299 58.5775 195.4 58.5121L216.032 45.1538C216.236 45.0216 216.488 44.9718 216.731 45.0154C216.974 45.0589 217.189 45.1923 217.328 45.3861L222.561 52.6669C223.529 54.0139 224.208 55.5288 224.559 57.125C224.91 58.7212 224.927 60.3674 224.608 61.9697C224.289 63.5719 223.64 65.0988 222.699 66.4631C221.758 67.8275 220.543 69.0025 219.124 69.9212Z" fill="#0CBC8B"/>
<path d="M208.805 55.9035L211.939 57.582C211.961 57.5934 211.985 57.5998 212.009 57.6005C212.034 57.6012 212.058 57.5963 212.08 57.5861L215.314 56.087C215.339 56.0754 215.368 56.0707 215.396 56.0734C215.424 56.0762 215.45 56.0863 215.473 56.1026C215.495 56.1189 215.512 56.1408 215.522 56.1658C215.532 56.1908 215.534 56.218 215.529 56.2442L214.815 59.5918C214.811 59.6146 214.812 59.6383 214.818 59.6607C214.825 59.6831 214.838 59.7036 214.855 59.7203L217.356 62.1759C217.376 62.1951 217.389 62.2192 217.395 62.2454C217.401 62.2716 217.399 62.2989 217.39 62.3242C217.38 62.3494 217.364 62.3716 217.341 62.3883C217.319 62.405 217.293 62.4155 217.265 62.4185L213.689 62.8095C213.665 62.8122 213.642 62.8204 213.621 62.8336C213.601 62.8467 213.584 62.8644 213.573 62.885L211.884 65.9025C211.87 65.9261 211.85 65.9458 211.826 65.9592C211.802 65.9726 211.774 65.9793 211.745 65.9785C211.717 65.9776 211.69 65.9694 211.666 65.9546C211.643 65.9398 211.624 65.919 211.612 65.8946L210.116 62.7885C210.106 62.7672 210.091 62.7487 210.071 62.7344C210.052 62.7201 210.029 62.7105 210.005 62.7064L206.461 62.1152C206.433 62.1106 206.407 62.0986 206.386 62.0807C206.365 62.0629 206.35 62.0397 206.342 62.014C206.334 61.9882 206.334 61.9609 206.341 61.9351C206.349 61.9092 206.364 61.8859 206.385 61.8678L209.034 59.5575C209.052 59.5417 209.066 59.522 209.074 59.5002C209.082 59.4783 209.085 59.4548 209.082 59.4318L208.579 56.0499C208.574 56.023 208.578 55.9955 208.59 55.9705C208.601 55.9455 208.62 55.9241 208.643 55.9087C208.667 55.8934 208.695 55.8847 208.724 55.8838C208.752 55.8829 208.781 55.8897 208.805 55.9035Z" fill="#FAFAFA"/>
<path d="M219.977 66.3451L217.361 68.038L216.831 68.38L214.744 69.7316C214.744 69.7316 228.96 82.0623 228.282 97.0296L234.519 92.9927L235.049 92.6507L241.813 88.2718C226.883 83.407 219.977 66.3451 219.977 66.3451Z" fill="#0CBC8B"/>
<path d="M243.653 83.5007L222.932 96.9138C222.374 97.2749 222.231 97.9969 222.611 98.5264L227.288 105.034C227.669 105.564 228.429 105.7 228.987 105.339L249.708 91.9261C250.266 91.565 250.41 90.843 250.029 90.3135L245.352 83.8055C244.972 83.276 244.211 83.1395 243.653 83.5007Z" fill="#0CBC8B"/>
<path d="M204.105 72.7548C203.103 73.4055 201.937 73.7912 200.726 73.8723C199.516 73.9535 198.304 73.7272 197.216 73.2166C196.127 72.7061 195.202 71.9297 194.535 70.9674C193.868 70.005 193.482 68.8914 193.419 67.7409C193.355 66.5905 193.616 65.4447 194.173 64.4213C194.731 63.398 195.565 62.534 196.591 61.9182C197.617 61.3024 198.797 60.957 200.01 60.9175C201.223 60.878 202.426 61.1458 203.494 61.6934C204.525 62.2218 205.396 62.9931 206.023 63.9331C206.649 64.8731 207.011 65.9503 207.072 67.0612C207.133 68.172 206.893 69.2792 206.373 70.2763C205.854 71.2734 205.073 72.1269 204.105 72.7548ZM197.736 63.9223C196.936 64.4411 196.336 65.1941 196.028 66.0664C195.721 66.9388 195.722 67.8827 196.032 68.7543C196.342 69.6259 196.944 70.3775 197.745 70.8944C198.547 71.4113 199.505 71.6653 200.473 71.6176C201.441 71.5699 202.366 71.2232 203.107 70.6303C203.848 70.0373 204.365 69.2307 204.578 68.3333C204.791 67.4359 204.69 66.497 204.288 65.6595C203.887 64.8221 203.209 64.1321 202.356 63.6947C201.638 63.3276 200.827 63.1547 200.012 63.1948C199.198 63.2349 198.41 63.4866 197.736 63.9223Z" fill="#0CBC8B"/>
<path d="M227.241 57.7813C226.993 57.9416 226.734 58.0864 226.467 58.2147C224.848 58.9905 222.972 59.1243 221.249 58.5867C219.527 58.0492 218.1 56.8843 217.283 55.3484C216.465 53.8124 216.324 52.0312 216.891 50.3966C217.457 48.762 218.685 47.4079 220.303 46.6321C221.852 45.8902 223.64 45.7349 225.305 46.1979C226.97 46.6608 228.387 47.7072 229.27 49.1251C230.152 50.5429 230.433 52.2261 230.056 53.8335C229.68 55.4408 228.673 56.8521 227.241 57.7813ZM220.874 48.9449C220.17 49.4027 219.619 50.0432 219.289 50.79C218.958 51.5367 218.861 52.3581 219.01 53.1557C219.158 53.9534 219.545 54.6937 220.125 55.288C220.705 55.8823 221.453 56.3054 222.28 56.5068C223.106 56.7083 223.977 56.6794 224.786 56.4238C225.596 56.1681 226.311 55.6965 226.846 55.0652C227.381 54.434 227.713 53.6699 227.802 52.8644C227.891 52.0588 227.734 51.2459 227.35 50.5228C227.087 50.0286 226.724 49.5884 226.281 49.2273C225.839 48.8662 225.326 48.5914 224.772 48.4184C224.218 48.2454 223.633 48.1777 223.052 48.2192C222.47 48.2607 221.903 48.4105 221.382 48.6601C221.206 48.7444 221.037 48.8396 220.874 48.9449Z" fill="#0CBC8B"/>
<path d="M225.808 77.8469C225.619 77.6011 225.52 77.3036 225.526 76.9995C225.532 76.6955 225.643 76.4016 225.841 76.1627C225.819 76.1508 225.755 76.137 225.779 76.0999L224.676 76.6091C224.355 76.7659 223.984 76.8069 223.633 76.7246C223.283 76.6424 222.975 76.4423 222.767 76.1615C222.572 75.8779 222.495 75.5355 222.55 75.2008C222.605 74.866 222.79 74.5628 223.067 74.3497C223.054 74.3456 223.047 74.3315 223.034 74.3233L222.581 74.5326C222.277 74.6791 221.93 74.7216 221.597 74.6529C221.264 74.5841 220.967 74.4084 220.755 74.1554C220.626 73.9942 220.536 73.8077 220.491 73.6094C220.447 73.4111 220.45 73.206 220.499 73.0088C220.548 72.8116 220.643 72.6272 220.777 72.469C220.911 72.3109 221.079 72.1828 221.271 72.0941L222.317 71.611C222.313 71.6063 222.306 71.6056 222.303 71.6C222.3 71.5943 222.303 71.5852 222.301 71.578C221.984 71.6485 221.65 71.6146 221.355 71.4817C221.06 71.3488 220.822 71.1249 220.679 70.8465C220.26 70.15 220.879 69.3563 221.555 69.0442L223.765 68.2175C224.106 68.0901 224.475 68.0447 224.839 68.0853C225.203 68.1259 225.551 68.2514 225.852 68.4504C228.456 70.171 235.143 74.819 232.985 75.8157L227.672 78.2693C227.356 78.4056 227.001 78.438 226.664 78.3615C226.326 78.285 226.025 78.1039 225.808 77.8469Z" fill="#E98862"/>
<path d="M62.3588 240H256.478C256.565 240 256.65 239.967 256.712 239.908C256.774 239.849 256.809 239.769 256.809 239.686C256.809 239.602 256.774 239.522 256.712 239.463C256.65 239.404 256.565 239.371 256.478 239.371H62.3588C62.2709 239.371 62.1867 239.404 62.1246 239.463C62.0625 239.522 62.0276 239.602 62.0276 239.686C62.0276 239.769 62.0625 239.849 62.1246 239.908C62.1867 239.967 62.2709 240 62.3588 240Z" fill="#292A2E"/>
<path d="M54.2867 171.428L51.819 172.343L55.2997 180.795L57.7674 179.88L54.2867 171.428Z" fill="#367CFF"/>
<path d="M254.45 145.544L248.071 152.303L250.045 153.981L256.424 147.221L254.45 145.544Z" fill="#367CFF"/>
<path d="M225.206 175.797L223.617 177.81L231.27 183.25L232.858 181.237L225.206 175.797Z" fill="#0CBC8B"/>
<path d="M110.204 103.94L103.24 110.159L105.056 111.99L112.019 105.771L110.204 103.94Z" fill="#367CFF"/>
<path d="M187.329 93.391L185.032 94.6443L189.797 102.512L192.094 101.258L187.329 93.391Z" fill="#367CFF"/>
<path d="M93.6398 201.597L88.5374 209.271L90.778 210.613L95.8805 202.939L93.6398 201.597Z" fill="#0CBC8B"/>
<path d="M222.028 220.037L217.755 228.154L220.125 229.278L224.398 221.161L222.028 220.037Z" fill="#0CBC8B"/>
<path d="M256.705 198.678L254.168 199.4L256.913 208.092L259.451 207.37L256.705 198.678Z" fill="#367CFF"/>
<path d="M71.0643 222.61L69.5885 224.7L77.5337 229.754L79.0095 227.665L71.0643 222.61Z" fill="#367CFF"/>
<path d="M155.896 73.8406L153.599 75.0939L158.364 82.9609L160.661 81.7077L155.896 73.8406Z" fill="#0CBC8B"/>
</svg>
