<svg width="317" height="327" viewBox="0 0 317 327" fill="none" xmlns="http://www.w3.org/2000/svg">
<rect width="317" height="327" rx="23" fill="#DADBDC"/>
<path d="M78.6265 278.1V279.96H74.9265V292H72.6465V279.96H68.9265V278.1H78.6265ZM85.2155 282.58C85.5489 282.02 85.9889 281.587 86.5355 281.28C87.0955 280.96 87.7555 280.8 88.5155 280.8V283.16H87.9355C87.0422 283.16 86.3622 283.387 85.8955 283.84C85.4422 284.293 85.2155 285.08 85.2155 286.2V292H82.9355V280.98H85.2155V282.58ZM91.8513 286.44C91.8513 285.333 92.078 284.353 92.5313 283.5C92.998 282.647 93.6247 281.987 94.4113 281.52C95.2113 281.04 96.0913 280.8 97.0513 280.8C97.918 280.8 98.6713 280.973 99.3113 281.32C99.9647 281.653 100.485 282.073 100.871 282.58V280.98H103.171V292H100.871V290.36C100.485 290.88 99.958 291.313 99.2913 291.66C98.6247 292.007 97.8647 292.18 97.0113 292.18C96.0647 292.18 95.198 291.94 94.4113 291.46C93.6247 290.967 92.998 290.287 92.5313 289.42C92.078 288.54 91.8513 287.547 91.8513 286.44ZM100.871 286.48C100.871 285.72 100.711 285.06 100.391 284.5C100.085 283.94 99.678 283.513 99.1713 283.22C98.6647 282.927 98.118 282.78 97.5313 282.78C96.9447 282.78 96.398 282.927 95.8913 283.22C95.3847 283.5 94.9713 283.92 94.6513 284.48C94.3447 285.027 94.1913 285.68 94.1913 286.44C94.1913 287.2 94.3447 287.867 94.6513 288.44C94.9713 289.013 95.3847 289.453 95.8913 289.76C96.4113 290.053 96.958 290.2 97.5313 290.2C98.118 290.2 98.6647 290.053 99.1713 289.76C99.678 289.467 100.085 289.04 100.391 288.48C100.711 287.907 100.871 287.24 100.871 286.48ZM107.406 286.48C107.406 285.347 107.633 284.353 108.086 283.5C108.553 282.633 109.193 281.967 110.006 281.5C110.819 281.033 111.753 280.8 112.806 280.8C114.139 280.8 115.239 281.12 116.106 281.76C116.986 282.387 117.579 283.287 117.886 284.46H115.426C115.226 283.913 114.906 283.487 114.466 283.18C114.026 282.873 113.473 282.72 112.806 282.72C111.873 282.72 111.126 283.053 110.566 283.72C110.019 284.373 109.746 285.293 109.746 286.48C109.746 287.667 110.019 288.593 110.566 289.26C111.126 289.927 111.873 290.26 112.806 290.26C114.126 290.26 114.999 289.68 115.426 288.52H117.886C117.566 289.64 116.966 290.533 116.086 291.2C115.206 291.853 114.113 292.18 112.806 292.18C111.753 292.18 110.819 291.947 110.006 291.48C109.193 291 108.553 290.333 108.086 289.48C107.633 288.613 107.406 287.613 107.406 286.48ZM126.518 286.5L131.598 292H128.518L124.438 287.26V292H122.158V277.2H124.438V285.8L128.438 280.98H131.598L126.518 286.5ZM144.708 282.6C145.094 282.093 145.621 281.667 146.288 281.32C146.954 280.973 147.708 280.8 148.548 280.8C149.508 280.8 150.381 281.04 151.168 281.52C151.968 281.987 152.594 282.647 153.048 283.5C153.501 284.353 153.728 285.333 153.728 286.44C153.728 287.547 153.501 288.54 153.048 289.42C152.594 290.287 151.968 290.967 151.168 291.46C150.381 291.94 149.508 292.18 148.548 292.18C147.708 292.18 146.961 292.013 146.308 291.68C145.654 291.333 145.121 290.907 144.708 290.4V297.24H142.428V280.98H144.708V282.6ZM151.408 286.44C151.408 285.68 151.248 285.027 150.928 284.48C150.621 283.92 150.208 283.5 149.688 283.22C149.181 282.927 148.634 282.78 148.048 282.78C147.474 282.78 146.928 282.927 146.408 283.22C145.901 283.513 145.488 283.94 145.168 284.5C144.861 285.06 144.708 285.72 144.708 286.48C144.708 287.24 144.861 287.907 145.168 288.48C145.488 289.04 145.901 289.467 146.408 289.76C146.928 290.053 147.474 290.2 148.048 290.2C148.634 290.2 149.181 290.053 149.688 289.76C150.208 289.453 150.621 289.013 150.928 288.44C151.248 287.867 151.408 287.2 151.408 286.44ZM160.262 282.58C160.596 282.02 161.036 281.587 161.582 281.28C162.142 280.96 162.802 280.8 163.562 280.8V283.16H162.982C162.089 283.16 161.409 283.387 160.942 283.84C160.489 284.293 160.262 285.08 160.262 286.2V292H157.982V280.98H160.262V282.58ZM172.438 292.18C171.398 292.18 170.458 291.947 169.618 291.48C168.778 291 168.118 290.333 167.638 289.48C167.158 288.613 166.918 287.613 166.918 286.48C166.918 285.36 167.165 284.367 167.658 283.5C168.152 282.633 168.825 281.967 169.678 281.5C170.532 281.033 171.485 280.8 172.538 280.8C173.592 280.8 174.545 281.033 175.398 281.5C176.252 281.967 176.925 282.633 177.418 283.5C177.912 284.367 178.158 285.36 178.158 286.48C178.158 287.6 177.905 288.593 177.398 289.46C176.892 290.327 176.198 291 175.318 291.48C174.452 291.947 173.492 292.18 172.438 292.18ZM172.438 290.2C173.025 290.2 173.572 290.06 174.078 289.78C174.598 289.5 175.018 289.08 175.338 288.52C175.658 287.96 175.818 287.28 175.818 286.48C175.818 285.68 175.665 285.007 175.358 284.46C175.052 283.9 174.645 283.48 174.138 283.2C173.632 282.92 173.085 282.78 172.498 282.78C171.912 282.78 171.365 282.92 170.858 283.2C170.365 283.48 169.972 283.9 169.678 284.46C169.385 285.007 169.238 285.68 169.238 286.48C169.238 287.667 169.538 288.587 170.138 289.24C170.752 289.88 171.518 290.2 172.438 290.2ZM186.852 280.8C187.705 280.8 188.459 280.973 189.112 281.32C189.779 281.653 190.299 282.073 190.672 282.58V280.98H192.972V292.18C192.972 293.193 192.759 294.093 192.332 294.88C191.905 295.68 191.285 296.307 190.472 296.76C189.672 297.213 188.712 297.44 187.592 297.44C186.099 297.44 184.859 297.087 183.872 296.38C182.885 295.687 182.325 294.74 182.192 293.54H184.452C184.625 294.113 184.992 294.573 185.552 294.92C186.125 295.28 186.805 295.46 187.592 295.46C188.512 295.46 189.252 295.18 189.812 294.62C190.385 294.06 190.672 293.247 190.672 292.18V290.34C190.285 290.86 189.759 291.3 189.092 291.66C188.439 292.007 187.692 292.18 186.852 292.18C185.892 292.18 185.012 291.94 184.212 291.46C183.425 290.967 182.799 290.287 182.332 289.42C181.879 288.54 181.652 287.547 181.652 286.44C181.652 285.333 181.879 284.353 182.332 283.5C182.799 282.647 183.425 281.987 184.212 281.52C185.012 281.04 185.892 280.8 186.852 280.8ZM190.672 286.48C190.672 285.72 190.512 285.06 190.192 284.5C189.885 283.94 189.479 283.513 188.972 283.22C188.465 282.927 187.919 282.78 187.332 282.78C186.745 282.78 186.199 282.927 185.692 283.22C185.185 283.5 184.772 283.92 184.452 284.48C184.145 285.027 183.992 285.68 183.992 286.44C183.992 287.2 184.145 287.867 184.452 288.44C184.772 289.013 185.185 289.453 185.692 289.76C186.212 290.053 186.759 290.2 187.332 290.2C187.919 290.2 188.465 290.053 188.972 289.76C189.479 289.467 189.885 289.04 190.192 288.48C190.512 287.907 190.672 287.24 190.672 286.48ZM200.247 282.58C200.58 282.02 201.02 281.587 201.567 281.28C202.127 280.96 202.787 280.8 203.547 280.8V283.16H202.967C202.073 283.16 201.393 283.387 200.927 283.84C200.473 284.293 200.247 285.08 200.247 286.2V292H197.967V280.98H200.247V282.58ZM217.743 286.22C217.743 286.633 217.716 287.007 217.663 287.34H209.243C209.309 288.22 209.636 288.927 210.223 289.46C210.809 289.993 211.529 290.26 212.383 290.26C213.609 290.26 214.476 289.747 214.983 288.72H217.443C217.109 289.733 216.503 290.567 215.623 291.22C214.756 291.86 213.676 292.18 212.383 292.18C211.329 292.18 210.383 291.947 209.543 291.48C208.716 291 208.063 290.333 207.583 289.48C207.116 288.613 206.883 287.613 206.883 286.48C206.883 285.347 207.109 284.353 207.563 283.5C208.029 282.633 208.676 281.967 209.503 281.5C210.343 281.033 211.303 280.8 212.383 280.8C213.423 280.8 214.349 281.027 215.163 281.48C215.976 281.933 216.609 282.573 217.063 283.4C217.516 284.213 217.743 285.153 217.743 286.22ZM215.363 285.5C215.349 284.66 215.049 283.987 214.463 283.48C213.876 282.973 213.149 282.72 212.283 282.72C211.496 282.72 210.823 282.973 210.263 283.48C209.703 283.973 209.369 284.647 209.263 285.5H215.363ZM225.986 292.18C225.12 292.18 224.34 292.027 223.646 291.72C222.966 291.4 222.426 290.973 222.026 290.44C221.626 289.893 221.413 289.287 221.386 288.62H223.746C223.786 289.087 224.006 289.48 224.406 289.8C224.82 290.107 225.333 290.26 225.946 290.26C226.586 290.26 227.08 290.14 227.426 289.9C227.786 289.647 227.966 289.327 227.966 288.94C227.966 288.527 227.766 288.22 227.366 288.02C226.98 287.82 226.36 287.6 225.506 287.36C224.68 287.133 224.006 286.913 223.486 286.7C222.966 286.487 222.513 286.16 222.126 285.72C221.753 285.28 221.566 284.7 221.566 283.98C221.566 283.393 221.74 282.86 222.086 282.38C222.433 281.887 222.926 281.5 223.566 281.22C224.22 280.94 224.966 280.8 225.806 280.8C227.06 280.8 228.066 281.12 228.826 281.76C229.6 282.387 230.013 283.247 230.066 284.34H227.786C227.746 283.847 227.546 283.453 227.186 283.16C226.826 282.867 226.34 282.72 225.726 282.72C225.126 282.72 224.666 282.833 224.346 283.06C224.026 283.287 223.866 283.587 223.866 283.96C223.866 284.253 223.973 284.5 224.186 284.7C224.4 284.9 224.66 285.06 224.966 285.18C225.273 285.287 225.726 285.427 226.326 285.6C227.126 285.813 227.78 286.033 228.286 286.26C228.806 286.473 229.253 286.793 229.626 287.22C230 287.647 230.193 288.213 230.206 288.92C230.206 289.547 230.033 290.107 229.686 290.6C229.34 291.093 228.846 291.48 228.206 291.76C227.58 292.04 226.84 292.18 225.986 292.18ZM238.67 292.18C237.803 292.18 237.023 292.027 236.33 291.72C235.65 291.4 235.11 290.973 234.71 290.44C234.31 289.893 234.097 289.287 234.07 288.62H236.43C236.47 289.087 236.69 289.48 237.09 289.8C237.503 290.107 238.017 290.26 238.63 290.26C239.27 290.26 239.763 290.14 240.11 289.9C240.47 289.647 240.65 289.327 240.65 288.94C240.65 288.527 240.45 288.22 240.05 288.02C239.663 287.82 239.043 287.6 238.19 287.36C237.363 287.133 236.69 286.913 236.17 286.7C235.65 286.487 235.197 286.16 234.81 285.72C234.437 285.28 234.25 284.7 234.25 283.98C234.25 283.393 234.423 282.86 234.77 282.38C235.117 281.887 235.61 281.5 236.25 281.22C236.903 280.94 237.65 280.8 238.49 280.8C239.743 280.8 240.75 281.12 241.51 281.76C242.283 282.387 242.697 283.247 242.75 284.34H240.47C240.43 283.847 240.23 283.453 239.87 283.16C239.51 282.867 239.023 282.72 238.41 282.72C237.81 282.72 237.35 282.833 237.03 283.06C236.71 283.287 236.55 283.587 236.55 283.96C236.55 284.253 236.657 284.5 236.87 284.7C237.083 284.9 237.343 285.06 237.65 285.18C237.957 285.287 238.41 285.427 239.01 285.6C239.81 285.813 240.463 286.033 240.97 286.26C241.49 286.473 241.937 286.793 242.31 287.22C242.683 287.647 242.877 288.213 242.89 288.92C242.89 289.547 242.717 290.107 242.37 290.6C242.023 291.093 241.53 291.48 240.89 291.76C240.263 292.04 239.523 292.18 238.67 292.18Z" fill="black"/>
<g opacity="0.7">
<path d="M241.304 46.6984H200.498V90.0911H241.304V46.6984Z" fill="#F4F4F4"/>
<path d="M241.304 90.091H242.628V46.6983H241.304V90.091Z" fill="#F4F4F4"/>
<path opacity="0.05" d="M241.304 90.091H242.628V46.6983H241.304V90.091Z" fill="#292A2E"/>
<path opacity="0.05" d="M233.871 55.3781H207.932V81.4116H233.871V55.3781Z" fill="#292A2E"/>
<path opacity="0.03" d="M233.871 55.3781H232.519V81.4116H233.871V55.3781Z" fill="#292A2E"/>
<path d="M274.676 101.808H241.304V132.021H274.676V101.808Z" fill="#F4F4F4"/>
<path opacity="0.05" d="M268.597 107.312H247.383V126.518H268.597V107.312Z" fill="#292A2E"/>
<path d="M274.676 132.021H276V101.808H274.676V132.021Z" fill="#F4F4F4"/>
<path opacity="0.05" d="M274.676 132.021H276V101.808H274.676V132.021Z" fill="#292A2E"/>
<path opacity="0.03" d="M268.597 107.312H267.245V126.518H268.597V107.312Z" fill="#292A2E"/>
</g>
<g opacity="0.7">
<path d="M157.754 45H61.6858V131.182H157.754V45Z" fill="#F4F4F4"/>
<path d="M61.6858 45H60.5847V131.182H61.6858V45Z" fill="#F4F4F4"/>
<path opacity="0.05" d="M61.6858 45H60.5847V131.182H61.6858V45Z" fill="#292A2E"/>
<path opacity="0.05" d="M84.9587 104.387V81.8386H105.548V94.9384H137.44V118.134H150.995V131.182H137.44H134.829H66.307V104.387H84.9587Z" fill="#292A2E"/>
<path opacity="0.34" d="M102.905 84.2868H87.9119V86.7349H102.905V84.2868Z" fill="#FFFFFA"/>
<path opacity="0.34" d="M102.905 89.3601H87.9119V91.8082H102.905V89.3601Z" fill="#FFFFFA"/>
<path opacity="0.34" d="M102.905 94.4331H87.9119V96.8813H102.905V94.4331Z" fill="#FFFFFA"/>
<path opacity="0.34" d="M71.7293 106.763H68.9659V109.211H71.7293V106.763Z" fill="#FFFFFA"/>
<path opacity="0.34" d="M71.7294 111.836H68.9661V114.284H71.7294V111.836Z" fill="#FFFFFA"/>
<path opacity="0.34" d="M71.7294 116.909H68.9661V119.358H71.7294V116.909Z" fill="#FFFFFA"/>
<path opacity="0.34" d="M76.8417 106.763H74.0784V109.211H76.8417V106.763Z" fill="#FFFFFA"/>
<path opacity="0.34" d="M76.8417 111.836H74.0784V114.284H76.8417V111.836Z" fill="#FFFFFA"/>
<path opacity="0.34" d="M76.8417 116.909H74.0784V119.358H76.8417V116.909Z" fill="#FFFFFA"/>
<path opacity="0.34" d="M81.8158 106.763H79.0525V109.211H81.8158V106.763Z" fill="#FFFFFA"/>
<path opacity="0.34" d="M81.8158 111.836H79.0525V114.284H81.8158V111.836Z" fill="#FFFFFA"/>
<path opacity="0.34" d="M81.8158 116.909H79.0525V119.358H81.8158V116.909Z" fill="#FFFFFA"/>
<path d="M61.6858 87.6076H81.0163V45H82.6149V87.6076H134.829V45H136.427V87.6076H157.754V89.0418H136.427V131.182H134.829V89.0418H82.6149V131.182H81.0163V89.0418H61.6858V87.6076Z" fill="white"/>
<path d="M161.581 131.078H57.8588V133.944H161.581V131.078Z" fill="#F4F4F4"/>
<path opacity="0.1" d="M161.581 131.078H57.8588V133.944H161.581V131.078Z" fill="#292A2E"/>
<path opacity="0.1" d="M57.8589 131.078H56.3615V133.944H57.8589V131.078Z" fill="#292A2E"/>
<path opacity="0.1" d="M57.8589 131.078H56.3615V133.944H57.8589V131.078Z" fill="#292A2E"/>
</g>
<path d="M117.132 55.7015H229.577C231.197 55.7015 232.75 56.2787 233.895 57.3062C235.041 58.3337 235.684 59.7272 235.684 61.1803V181.998C235.684 183.483 235.027 184.907 233.856 185.957C232.686 187.007 231.099 187.596 229.444 187.596H117.265C115.61 187.596 114.023 187.007 112.852 185.957C111.682 184.907 111.025 183.483 111.025 181.998V61.1797C111.025 59.7267 111.668 58.3334 112.814 57.306C113.959 56.2787 115.512 55.7015 117.132 55.7015V55.7015Z" fill="white"/>
<path d="M229.444 187.809H117.265C115.547 187.809 113.899 187.197 112.685 186.107C111.47 185.017 110.787 183.539 110.787 181.998V60.9669C110.788 59.5139 111.431 58.1205 112.576 57.0932C113.722 56.0659 115.275 55.4887 116.895 55.4887H229.814C231.434 55.4887 232.987 56.0659 234.132 57.0933C235.278 58.1208 235.921 59.5143 235.921 60.9673V181.998C235.921 183.539 235.239 185.017 234.024 186.107C232.809 187.197 231.162 187.809 229.444 187.809V187.809ZM111.262 61.1705V181.998C111.262 182.705 111.417 183.406 111.719 184.059C112.02 184.712 112.463 185.306 113.02 185.806C113.577 186.306 114.239 186.703 114.967 186.974C115.696 187.244 116.476 187.383 117.265 187.383H229.444C231.036 187.383 232.563 186.816 233.689 185.806C234.815 184.796 235.447 183.426 235.447 181.998V61.1173C235.447 60.4339 235.297 59.7573 235.005 59.126C234.714 58.4947 234.286 57.9211 233.748 57.4379C233.209 56.9547 232.569 56.5715 231.865 56.3101C231.162 56.0486 230.407 55.9141 229.646 55.9142H117.121C115.567 55.9142 114.077 56.468 112.978 57.4537C111.879 58.4394 111.262 59.7764 111.262 61.1705V61.1705Z" fill="#292A2E"/>
<path d="M135.207 81.929H121.58C120.821 81.9282 120.093 81.6573 119.556 81.1756C119.018 80.6939 118.716 80.0408 118.715 79.3596V67.1348C118.716 66.4535 119.018 65.8003 119.555 65.3185C120.092 64.8368 120.82 64.5658 121.58 64.565H135.207C135.966 64.5657 136.694 64.8367 137.232 65.3185C137.769 65.8002 138.071 66.4535 138.072 67.1348V79.3596C138.071 80.0409 137.768 80.694 137.231 81.1757C136.694 81.6574 135.966 81.9283 135.207 81.929V81.929ZM121.58 64.9901C120.946 64.9907 120.339 65.2169 119.891 65.6189C119.442 66.0209 119.19 66.5659 119.19 67.1344V79.3596C119.19 79.9281 119.442 80.4731 119.891 80.8751C120.339 81.2771 120.946 81.5033 121.58 81.5039H135.207C135.841 81.5033 136.448 81.2772 136.896 80.8752C137.344 80.4732 137.597 79.9281 137.597 79.3596V67.1348C137.597 66.5663 137.344 66.0212 136.896 65.6192C136.448 65.2172 135.841 64.9911 135.207 64.9905L121.58 64.9901Z" fill="#292A2E"/>
<path d="M135.207 106.148H121.58C120.82 106.148 120.092 105.877 119.555 105.395C119.018 104.913 118.716 104.26 118.715 103.579V91.3539C118.716 90.6726 119.018 90.0193 119.555 89.5375C120.092 89.0557 120.82 88.7847 121.58 88.7839H135.207C135.966 88.7847 136.695 89.0557 137.232 89.5375C137.769 90.0193 138.071 90.6726 138.072 91.3539V103.579C138.071 104.26 137.769 104.913 137.232 105.395C136.694 105.877 135.966 106.148 135.207 106.148V106.148ZM121.58 89.21C120.946 89.2107 120.339 89.4369 119.891 89.8389C119.442 90.2409 119.19 90.786 119.19 91.3546V103.579C119.19 104.148 119.442 104.693 119.891 105.095C120.339 105.497 120.946 105.723 121.58 105.723H135.207C135.841 105.723 136.448 105.497 136.896 105.095C137.344 104.693 137.597 104.148 137.597 103.579V91.3539C137.597 90.7854 137.344 90.2403 136.896 89.8383C136.448 89.4362 135.841 89.2101 135.207 89.2094L121.58 89.21Z" fill="#292A2E"/>
<path d="M135.207 130.368H121.58C120.82 130.367 120.092 130.096 119.555 129.614C119.018 129.132 118.716 128.479 118.715 127.798V115.573C118.716 114.892 119.018 114.239 119.555 113.757C120.092 113.275 120.82 113.004 121.58 113.004H135.207C135.966 113.004 136.694 113.275 137.232 113.757C137.769 114.239 138.071 114.892 138.072 115.573V127.798C138.071 128.479 137.769 129.133 137.232 129.614C136.694 130.096 135.966 130.367 135.207 130.368ZM121.58 113.429C120.946 113.43 120.339 113.656 119.891 114.058C119.442 114.46 119.19 115.005 119.19 115.573V127.798C119.19 128.366 119.442 128.912 119.891 129.314C120.339 129.716 120.946 129.942 121.58 129.942H135.207C135.841 129.942 136.448 129.716 136.896 129.314C137.344 128.912 137.597 128.366 137.597 127.798V115.573C137.597 115.005 137.344 114.46 136.896 114.058C136.448 113.656 135.841 113.43 135.207 113.429H121.58Z" fill="#292A2E"/>
<path d="M135.207 154.254H121.58C120.82 154.254 120.092 153.983 119.555 153.501C119.018 153.019 118.716 152.366 118.715 151.685V139.46C118.716 138.779 119.018 138.125 119.555 137.644C120.092 137.162 120.82 136.891 121.58 136.89H135.207C135.966 136.891 136.695 137.162 137.232 137.644C137.769 138.125 138.071 138.779 138.072 139.46V151.685C138.071 152.366 137.769 153.019 137.232 153.501C136.694 153.983 135.966 154.254 135.207 154.254V154.254ZM121.58 137.315C120.946 137.316 120.339 137.542 119.89 137.944C119.442 138.346 119.19 138.891 119.19 139.46V151.685C119.19 152.253 119.442 152.798 119.891 153.2C120.339 153.602 120.946 153.828 121.58 153.829H135.207C135.841 153.828 136.448 153.602 136.896 153.2C137.344 152.798 137.597 152.253 137.597 151.685V139.46C137.597 138.891 137.345 138.346 136.896 137.944C136.448 137.542 135.841 137.316 135.207 137.315H121.58Z" fill="#292A2E"/>
<path d="M135.207 178.141H121.58C120.82 178.14 120.092 177.869 119.555 177.387C119.018 176.905 118.716 176.252 118.715 175.571V163.346C118.716 162.665 119.018 162.012 119.555 161.53C120.092 161.048 120.82 160.777 121.58 160.776H135.207C135.966 160.777 136.695 161.048 137.232 161.53C137.769 162.012 138.071 162.665 138.072 163.346V175.571C138.071 176.252 137.769 176.905 137.232 177.387C136.694 177.869 135.966 178.14 135.207 178.141V178.141ZM121.58 161.202C120.946 161.202 120.339 161.428 119.891 161.83C119.442 162.233 119.19 162.778 119.19 163.346V175.571C119.19 176.139 119.442 176.684 119.891 177.086C120.339 177.488 120.946 177.715 121.58 177.715H135.207C135.841 177.715 136.448 177.488 136.896 177.086C137.344 176.684 137.597 176.139 137.597 175.571V163.346C137.597 162.778 137.344 162.233 136.896 161.831C136.448 161.429 135.841 161.202 135.207 161.202L121.58 161.202Z" fill="#292A2E"/>
<path d="M125.969 102.357C125.724 102.357 125.489 102.272 125.312 102.119L121.34 98.694C121.25 98.6165 121.178 98.524 121.128 98.4216C121.078 98.3192 121.051 98.209 121.049 98.0972C121.047 97.9855 121.069 97.8744 121.114 97.7703C121.159 97.6662 121.227 97.5712 121.314 97.4906C121.4 97.4101 121.503 97.3455 121.617 97.3007C121.731 97.2559 121.854 97.2317 121.979 97.2295C122.103 97.2273 122.227 97.2471 122.343 97.2878C122.459 97.3285 122.565 97.3894 122.655 97.4668L125.953 100.312L134.221 92.8269C134.399 92.6692 134.638 92.5808 134.888 92.5809C135.138 92.581 135.378 92.6696 135.556 92.8273C135.733 92.9851 135.834 93.1994 135.837 93.4236C135.839 93.6478 135.743 93.8638 135.569 94.0247L126.643 102.104C126.555 102.184 126.45 102.248 126.335 102.291C126.219 102.335 126.095 102.357 125.969 102.357V102.357Z" fill="#0CBC8B"/>
<path d="M125.969 126.576C125.724 126.577 125.489 126.491 125.312 126.339L121.34 122.914C121.159 122.757 121.054 122.542 121.049 122.317C121.044 122.091 121.139 121.873 121.314 121.71C121.488 121.547 121.727 121.454 121.979 121.449C122.23 121.445 122.474 121.53 122.655 121.686L125.953 124.53L134.221 117.046C134.398 116.886 134.639 116.795 134.89 116.794C135.142 116.793 135.384 116.882 135.562 117.041C135.741 117.2 135.842 117.416 135.843 117.641C135.845 117.867 135.746 118.084 135.569 118.244L126.643 126.324C126.555 126.404 126.45 126.467 126.335 126.511C126.219 126.554 126.095 126.576 125.969 126.576V126.576Z" fill="#0CBC8B"/>
<path opacity="0.5" d="M225.438 69.4617H145.519C145.154 69.4617 144.857 69.7276 144.857 70.0555C144.857 70.3834 145.154 70.6493 145.519 70.6493H225.438C225.804 70.6493 226.1 70.3834 226.1 70.0555C226.1 69.7276 225.804 69.4617 225.438 69.4617Z" fill="#262626"/>
<path opacity="0.5" d="M196.98 75.8443H145.519C145.154 75.8443 144.857 76.1101 144.857 76.4381C144.857 76.766 145.154 77.0319 145.519 77.0319H196.98C197.345 77.0319 197.641 76.766 197.641 76.4381C197.641 76.1101 197.345 75.8443 196.98 75.8443Z" fill="#262626"/>
<path opacity="0.5" d="M225.438 93.681H145.519C145.154 93.681 144.857 93.9469 144.857 94.2748C144.857 94.6028 145.154 94.8686 145.519 94.8686H225.438C225.804 94.8686 226.1 94.6028 226.1 94.2748C226.1 93.9469 225.804 93.681 225.438 93.681Z" fill="#262626"/>
<path opacity="0.5" d="M196.98 100.064H145.519C145.154 100.064 144.857 100.329 144.857 100.657C144.857 100.985 145.154 101.251 145.519 101.251H196.98C197.345 101.251 197.641 100.985 197.641 100.657C197.641 100.329 197.345 100.064 196.98 100.064Z" fill="#262626"/>
<path opacity="0.5" d="M225.438 117.9H145.519C145.154 117.9 144.857 118.166 144.857 118.494C144.857 118.822 145.154 119.088 145.519 119.088H225.438C225.804 119.088 226.1 118.822 226.1 118.494C226.1 118.166 225.804 117.9 225.438 117.9Z" fill="#262626"/>
<path opacity="0.5" d="M196.98 124.283H145.519C145.154 124.283 144.857 124.549 144.857 124.877C144.857 125.205 145.154 125.471 145.519 125.471H196.98C197.345 125.471 197.641 125.205 197.641 124.877C197.641 124.549 197.345 124.283 196.98 124.283Z" fill="#262626"/>
<path opacity="0.5" d="M225.438 141.787H145.519C145.154 141.787 144.857 142.053 144.857 142.381C144.857 142.709 145.154 142.975 145.519 142.975H225.438C225.804 142.975 226.1 142.709 226.1 142.381C226.1 142.053 225.804 141.787 225.438 141.787Z" fill="#262626"/>
<path opacity="0.5" d="M196.98 148.17H145.519C145.154 148.17 144.857 148.435 144.857 148.763C144.857 149.091 145.154 149.357 145.519 149.357H196.98C197.345 149.357 197.641 149.091 197.641 148.763C197.641 148.435 197.345 148.17 196.98 148.17Z" fill="#262626"/>
<path opacity="0.5" d="M225.438 165.673H145.519C145.154 165.673 144.857 165.939 144.857 166.267C144.857 166.595 145.154 166.861 145.519 166.861H225.438C225.804 166.861 226.1 166.595 226.1 166.267C226.1 165.939 225.804 165.673 225.438 165.673Z" fill="#262626"/>
<path opacity="0.5" d="M196.98 172.056H145.519C145.154 172.056 144.857 172.322 144.857 172.65C144.857 172.978 145.154 173.244 145.519 173.244H196.98C197.345 173.244 197.641 172.978 197.641 172.65C197.641 172.322 197.345 172.056 196.98 172.056Z" fill="#262626"/>
<path d="M125.285 77.5993C125.354 77.4468 125.477 77.3188 125.634 77.2348C125.792 77.1507 125.976 77.1152 126.158 77.1335C126.158 77.1204 126.146 77.0884 126.171 77.0887L125.578 76.7525C125.401 76.6568 125.268 76.5068 125.205 76.3302C125.141 76.1536 125.151 75.9623 125.232 75.7917C125.319 75.6255 125.471 75.494 125.66 75.4228C125.848 75.3516 126.059 75.3458 126.252 75.4064C126.25 75.3992 126.255 75.3919 126.256 75.3851L126.012 75.2471C125.846 75.1563 125.719 75.0167 125.654 74.8518C125.589 74.687 125.589 74.507 125.655 74.3424C125.699 74.24 125.767 74.1476 125.856 74.0718C125.944 73.9961 126.05 73.9388 126.166 73.9042C126.282 73.8696 126.405 73.8585 126.526 73.8718C126.648 73.885 126.764 73.9222 126.868 73.9808L127.431 74.2999C127.432 74.2969 127.431 74.2937 127.432 74.2909C127.434 74.2882 127.44 74.2869 127.443 74.2837C127.311 74.165 127.227 74.0096 127.207 73.8429C127.186 73.6762 127.229 73.5081 127.328 73.3661C127.559 72.9846 128.153 73.0289 128.517 73.2351L129.608 73.9646C129.776 74.0771 129.91 74.2253 129.999 74.3958C130.088 74.5664 130.129 74.754 130.117 74.942C130.02 76.5691 129.654 80.814 128.492 80.1544L125.632 78.5345C125.466 78.4355 125.342 78.2897 125.279 78.1203C125.217 77.9509 125.219 77.7676 125.285 77.5993V77.5993Z" fill="#E98862"/>
<path d="M125.969 77.895C125.724 77.8952 125.489 77.81 125.312 77.6574L121.34 74.232C121.249 74.1549 121.176 74.0623 121.125 73.9596C121.074 73.8569 121.046 73.7462 121.043 73.6338C121.04 73.5214 121.061 73.4095 121.107 73.3047C121.152 73.1999 121.22 73.1042 121.307 73.0232C121.394 72.9421 121.498 72.8773 121.613 72.8325C121.728 72.7877 121.851 72.7637 121.977 72.762C122.102 72.7604 122.227 72.781 122.343 72.8227C122.459 72.8644 122.565 72.9264 122.655 73.0051L125.953 75.8492L134.221 68.3652C134.309 68.2858 134.413 68.2227 134.528 68.1794C134.643 68.1362 134.766 68.1137 134.89 68.1131C135.015 68.1126 135.138 68.1341 135.254 68.1764C135.369 68.2187 135.474 68.281 135.562 68.3596C135.651 68.4383 135.721 68.5318 135.769 68.6349C135.818 68.7379 135.843 68.8485 135.843 68.9603C135.844 69.072 135.82 69.1828 135.773 69.2862C135.726 69.3897 135.656 69.4838 135.569 69.5632L126.643 77.6425C126.555 77.7225 126.45 77.7861 126.335 77.8295C126.219 77.8728 126.095 77.8951 125.969 77.895V77.895Z" fill="#0CBC8B"/>
<path d="M123.236 75.8177C123.256 75.6937 123.304 75.5748 123.377 75.468C123.45 75.3612 123.546 75.2688 123.66 75.1965C123.774 75.1242 123.903 75.0735 124.04 75.0475C124.176 75.0215 124.317 75.0207 124.454 75.0452C124.717 75.1009 124.947 75.2441 125.097 75.4458C125.246 75.6475 125.305 75.8927 125.262 76.1319L125.233 77.4384C125.227 77.7148 125.334 77.9836 125.534 78.194C125.734 78.4045 126.012 78.5421 126.317 78.5809V78.5809C126.616 78.6189 126.921 78.5595 127.175 78.4134C127.429 78.2672 127.617 78.0441 127.703 77.7846L128.446 75.5543L127.638 74.472C127.921 74.0635 128.158 73.0072 128.648 73.3219C129.062 73.5529 130.003 74.1116 130.26 74.6409C130.265 74.6431 130.747 79.1847 130.485 79.5634L128.166 85.1282C127.053 86.7349 121.685 85.4916 121.685 85.4916L123.236 75.8177Z" fill="#E98862"/>
<path d="M125.953 75.8491L134.221 68.3651C134.308 68.2857 134.413 68.2226 134.528 68.1794C134.642 68.1361 134.766 68.1136 134.89 68.1131C135.015 68.1126 135.138 68.1341 135.254 68.1764C135.369 68.2187 135.474 68.2809 135.562 68.3596C135.651 68.4383 135.721 68.5318 135.769 68.6349C135.818 68.7379 135.843 68.8485 135.843 68.9602C135.844 69.072 135.82 69.1828 135.773 69.2862C135.726 69.3897 135.656 69.4838 135.569 69.5631L126.643 77.6424" fill="#0CBC8B"/>
<path d="M83.7577 114.53L117.218 112.004C119.681 112.062 121.826 110.224 122.73 108.162L131.496 83.513L120.029 79.469L112.29 100.583L82.8636 102.431L83.7577 114.53Z" fill="#367CFF"/>
<path d="M64.33 230.584C64.33 230.584 65.4007 235.563 70.5976 235.841C75.7944 236.119 74.6674 239.833 74.6674 239.833H54.8081V230.931L64.33 230.584Z" fill="#367CFF"/>
<path d="M58.2046 139.753C58.2046 139.753 58.267 138.257 58.2537 141.652C58.2046 154.317 57.9596 168.783 57.3611 177.249C56.3989 190.857 53.9318 233.762 53.9318 233.762L66.9816 233.664L79.6297 139.239L58.2046 139.753Z" fill="#262626"/>
<path d="M72.9413 154.688C72.9413 154.688 73.482 163.879 73.5816 166.037C73.8135 171.027 73.8942 176.193 73.8942 182.051L75.9518 166.695C75.9518 166.695 74.4465 161.882 72.9413 154.688Z" fill="#0A0A0A"/>
<path d="M87.5622 230.584C87.5622 230.584 88.6329 235.563 93.8298 235.841C99.0266 236.119 97.8996 239.833 97.8996 239.833H78.0403V230.931L87.5622 230.584Z" fill="#367CFF"/>
<path d="M93.8807 140.737C93.8807 140.737 95.0366 184.023 94.8673 186.138L90.0144 233.433L77.1801 233.646L78.4309 184.427C78.4309 184.427 77.5486 170.85 73.8919 158.243C72.021 151.772 70.895 145.147 70.5316 138.47V138.47L93.8807 140.737Z" fill="#262626"/>
<path d="M58.0625 139.752L58.0198 139.754C58.0198 139.754 58.0508 139.016 58.0625 139.752Z" fill="#333333"/>
<path d="M95.7178 117.987C95.4488 120.823 94.1395 137.243 93.8807 140.737H58.2189C58.0175 137.586 57.1128 123.807 56.3489 117.645C55.6196 111.765 54.1889 108.821 55.2376 107.083C56.9513 104.242 61.6342 102.6 64.8273 102.212C66.7772 101.975 83.4005 101.805 83.4404 101.805C84.7461 101.805 92.3494 102.356 94.0301 103.517C97.0712 105.618 96.1878 113.041 95.7178 117.987Z" fill="#367CFF"/>
<path d="M96.2103 113.673C96.2406 113.673 96.2698 113.663 96.2919 113.644C96.3139 113.625 96.3272 113.6 96.3289 113.573L96.6166 109.494C96.6184 109.466 96.6077 109.438 96.5868 109.417C96.5659 109.396 96.5365 109.383 96.5051 109.382C96.4738 109.38 96.4432 109.39 96.4198 109.409C96.3964 109.428 96.3821 109.454 96.3799 109.482L96.0922 113.56C96.0904 113.589 96.1011 113.616 96.122 113.637C96.143 113.658 96.1723 113.671 96.2037 113.673L96.2103 113.673Z" fill="#0C0C0C"/>
<path d="M50.5087 140.551C49.4599 140.551 48.4267 140.323 47.4971 139.888C46.5674 139.452 45.7688 138.822 45.1692 138.05C44.5695 137.278 44.1866 136.388 44.053 135.454C43.9194 134.521 44.0391 133.573 44.4019 132.69C44.7692 131.794 53.4065 111.275 55.0503 107.473L67.2257 111.899C66.3008 114.036 62.9514 122.139 60.2601 128.666L64.731 128.23L66.1383 139.843L51.2128 140.517C50.979 140.54 50.7439 140.551 50.5087 140.551V140.551Z" fill="#367CFF"/>
<path d="M87.6889 101.417C87.6491 101.412 86.555 105.105 78.0181 104.53C72.1081 104.133 70.6662 100.524 70.5315 100.524C71.1687 100.403 72.2037 100.277 72.4866 100.142C73.4172 99.6928 74.0953 99.1469 74.4363 97.9748C74.7031 97.0585 74.8395 93.5304 74.8395 91.7603L83.9337 93.5936C83.8069 95.5903 82.9197 100.219 86.0293 101.039C86.5465 101.174 87.1038 101.298 87.6889 101.417Z" fill="#E98862"/>
<path d="M83.6188 97.5189C80.0337 97.7727 75.4281 96.4147 74.5532 92.1237L73.7639 88.2516C72.8891 83.9606 74.6922 80.0698 79.196 79.3309C83.6997 78.592 87.7752 81.5184 88.6499 85.8094L88.9994 87.5236C89.335 89.1703 90.0154 97.0662 83.6188 97.5189Z" fill="#E98862"/>
<path d="M86.9429 93.5792C86.2995 90.6785 86.0042 88.7431 86.0386 86.7015C86.945 85.2761 86.7067 83.6379 86.5006 82.9307C87.1249 83.2863 87.8588 83.4551 88.5968 83.4128C88.5968 83.4128 87.0977 78.0157 82.0026 76.5634C81.0656 76.2364 78.6734 75.8232 75.4972 76.2141C72.7957 76.5464 66.1363 78.3584 65.1848 85.0842V85.088C65.1535 85.3112 64.5142 91.508 63.2402 94.4812C61.5267 98.478 59.1207 99.7199 59.1817 104.332C59.2602 110.263 71.4162 111.053 78.7472 110.609C86.0782 110.166 90.172 108.003 90.2256 103.728C90.2839 98.938 88.2306 99.3829 86.9429 93.5792Z" fill="#0A0A0A"/>
<path d="M57.4594 117.763L57.2224 117.771L58.0987 140.74L58.3357 140.733L57.4594 117.763Z" fill="#0C0C0C"/>
<path d="M270.601 239.982H47.5732C47.5292 239.982 47.487 239.966 47.4558 239.938C47.4247 239.91 47.4072 239.872 47.4072 239.833C47.4072 239.793 47.4247 239.755 47.4558 239.727C47.487 239.7 47.5292 239.684 47.5732 239.684H270.601C270.645 239.684 270.687 239.7 270.718 239.727C270.749 239.755 270.767 239.793 270.767 239.833C270.767 239.872 270.749 239.91 270.718 239.938C270.687 239.966 270.645 239.982 270.601 239.982V239.982Z" fill="#292A2E"/>
<path d="M247.58 212.099C247.517 212.099 247.457 212.077 247.412 212.037C247.078 211.737 246.533 206.238 245.066 189.863C244.466 183.163 243.899 176.835 243.485 172.989C243.456 172.714 243.337 172.682 243.298 172.672C242.732 172.518 241.009 173.737 240.047 174.804C240.028 174.826 240.003 174.844 239.976 174.857C239.949 174.87 239.919 174.879 239.888 174.882C239.857 174.885 239.825 174.882 239.796 174.874C239.766 174.866 239.738 174.853 239.714 174.835C239.689 174.818 239.669 174.796 239.654 174.772C239.64 174.747 239.63 174.72 239.627 174.692C239.624 174.665 239.627 174.636 239.635 174.61C239.644 174.583 239.659 174.558 239.678 174.536C240.314 173.831 242.387 171.981 243.434 172.264C243.646 172.321 243.909 172.486 243.957 172.948C244.371 176.797 244.939 183.127 245.539 189.829C246.431 199.78 247.441 211.052 247.772 211.762C247.798 211.794 247.813 211.832 247.816 211.871C247.82 211.91 247.811 211.949 247.791 211.984C247.771 212.019 247.741 212.048 247.703 212.068C247.666 212.089 247.623 212.099 247.58 212.099V212.099Z" fill="#494949"/>
<path d="M242.876 180.046C246.811 177.216 248.116 172.811 245.789 170.208C243.463 167.604 238.387 167.788 234.451 170.618C230.516 173.447 229.212 177.852 231.538 180.456C233.864 183.059 238.941 182.876 242.876 180.046Z" fill="#0CBC8B"/>
<path opacity="0.2" d="M242.876 180.046C246.811 177.216 248.116 172.811 245.789 170.208C243.463 167.604 238.387 167.788 234.451 170.618C230.516 173.447 229.212 177.852 231.538 180.456C233.864 183.059 238.941 182.876 242.876 180.046Z" fill="white"/>
<path d="M232.641 181.118C232.619 181.118 232.597 181.112 232.578 181.101C232.559 181.09 232.544 181.075 232.534 181.057C232.525 181.038 232.521 181.018 232.524 180.998C232.527 180.978 232.536 180.959 232.55 180.944L243.766 168.811C243.775 168.799 243.788 168.79 243.802 168.784C243.815 168.777 243.831 168.773 243.846 168.771C243.862 168.77 243.878 168.771 243.893 168.775C243.908 168.779 243.922 168.786 243.934 168.795C243.946 168.804 243.956 168.815 243.963 168.828C243.971 168.84 243.975 168.854 243.976 168.868C243.978 168.882 243.976 168.896 243.971 168.91C243.966 168.923 243.958 168.936 243.948 168.946L232.733 181.08C232.721 181.092 232.707 181.101 232.692 181.108C232.676 181.114 232.659 181.118 232.641 181.118Z" fill="white"/>
<path d="M250.026 209.498C249.988 209.498 249.951 209.49 249.917 209.475C249.884 209.459 249.855 209.436 249.833 209.409C249.811 209.381 249.797 209.349 249.791 209.315C249.786 209.282 249.79 209.248 249.802 209.216L254.015 198.347C254.139 198.027 254.35 197.741 254.63 197.514C254.909 197.287 255.247 197.126 255.614 197.047C255.98 196.967 256.363 196.972 256.727 197.06C257.091 197.147 257.425 197.316 257.698 197.549L259.925 199.459C259.97 199.498 259.997 199.551 259.998 199.608C259.999 199.664 259.976 199.719 259.932 199.76C259.889 199.8 259.829 199.824 259.766 199.825C259.703 199.826 259.642 199.805 259.597 199.766L257.37 197.858C257.155 197.673 256.891 197.541 256.604 197.471C256.316 197.402 256.014 197.399 255.725 197.461C255.436 197.524 255.169 197.651 254.948 197.83C254.728 198.009 254.561 198.235 254.463 198.487L250.25 209.355C250.234 209.397 250.204 209.433 250.163 209.459C250.123 209.484 250.075 209.498 250.026 209.498Z" fill="#494949"/>
<path d="M266.148 205.476C269.064 203.405 268.891 198.85 265.761 195.302C262.63 191.755 257.728 190.558 254.812 192.629C251.896 194.699 252.069 199.254 255.199 202.802C258.329 206.35 263.231 207.547 266.148 205.476Z" fill="#0CBC8B"/>
<path d="M245.666 211.406C245.613 211.406 245.561 211.39 245.519 211.36C245.477 211.331 245.448 211.289 245.435 211.243L238.366 184.724C238.318 184.544 238.215 184.378 238.068 184.247C237.922 184.115 237.738 184.022 237.537 183.978C237.335 183.934 237.124 183.941 236.927 183.997C236.73 184.054 236.554 184.158 236.418 184.299L234.239 186.558C234.198 186.601 234.139 186.627 234.076 186.631C234.014 186.635 233.952 186.617 233.904 186.58C233.857 186.543 233.827 186.491 233.823 186.434C233.818 186.378 233.839 186.322 233.88 186.28L236.059 184.02C236.252 183.821 236.503 183.672 236.783 183.592C237.064 183.512 237.363 183.502 237.65 183.565C237.936 183.628 238.197 183.76 238.405 183.947C238.613 184.134 238.759 184.369 238.827 184.626L245.897 211.145C245.905 211.176 245.906 211.209 245.898 211.24C245.89 211.272 245.875 211.301 245.852 211.326C245.83 211.351 245.802 211.372 245.77 211.386C245.737 211.4 245.702 211.407 245.666 211.407V211.406Z" fill="#494949"/>
<path d="M242.918 192.453C243.775 187.997 241.5 183.924 237.837 183.357C234.173 182.789 230.508 185.942 229.651 190.399C228.793 194.856 231.068 198.929 234.732 199.496C238.396 200.063 242.061 196.91 242.918 192.453Z" fill="#0CBC8B"/>
<path d="M247.58 212.099C247.57 212.099 247.561 212.099 247.551 212.098C247.52 212.094 247.49 212.085 247.463 212.072C247.436 212.058 247.412 212.039 247.393 212.017C247.374 211.995 247.36 211.97 247.351 211.943C247.343 211.916 247.341 211.888 247.344 211.86L251.859 178.978C251.908 178.62 252.072 178.282 252.33 178.005C252.588 177.728 252.929 177.524 253.314 177.417C253.698 177.31 254.108 177.305 254.496 177.403C254.883 177.5 255.231 177.696 255.497 177.967L260.657 183.21C260.699 183.252 260.72 183.307 260.716 183.364C260.712 183.42 260.684 183.473 260.637 183.51C260.589 183.548 260.528 183.567 260.465 183.563C260.402 183.56 260.343 183.534 260.302 183.492L255.141 178.249C254.936 178.04 254.667 177.888 254.368 177.813C254.068 177.737 253.751 177.741 253.454 177.824C253.157 177.906 252.893 178.064 252.693 178.278C252.494 178.492 252.368 178.753 252.329 179.03L247.815 211.913C247.808 211.964 247.78 212.011 247.737 212.046C247.694 212.08 247.638 212.099 247.58 212.099Z" fill="#494949"/>
<path d="M265.95 186.123C267.75 183.204 265.632 179.061 261.218 176.871C256.805 174.681 251.768 175.273 249.967 178.193C248.167 181.112 250.285 185.255 254.699 187.445C259.112 189.635 264.149 189.043 265.95 186.123Z" fill="#0CBC8B"/>
<path opacity="0.2" d="M266.148 205.476C269.064 203.405 268.891 198.85 265.761 195.302C262.63 191.755 257.728 190.558 254.812 192.629C251.896 194.699 252.069 199.254 255.199 202.802C258.329 206.35 263.231 207.547 266.148 205.476Z" fill="white"/>
<path opacity="0.5" d="M242.918 192.453C243.775 187.997 241.5 183.924 237.837 183.357C234.173 182.789 230.508 185.942 229.651 190.399C228.793 194.856 231.068 198.929 234.732 199.496C238.396 200.063 242.061 196.91 242.918 192.453Z" fill="white"/>
<path opacity="0.5" d="M265.95 186.123C267.75 183.204 265.632 179.061 261.218 176.871C256.805 174.681 251.768 175.273 249.967 178.193C248.167 181.112 250.285 185.255 254.699 187.445C259.112 189.635 264.149 189.043 265.95 186.123Z" fill="white"/>
<path d="M253.354 240H241.805L239.892 206.852H255.268L253.354 240Z" fill="#292A2E"/>
<path opacity="0.3" d="M253.354 240H241.805L239.892 206.852H255.268L253.354 240Z" fill="white"/>
<path d="M266.148 205.581C266.13 205.581 266.112 205.577 266.096 205.57C266.08 205.563 266.066 205.553 266.055 205.54L254.718 192.693C254.699 192.671 254.69 192.643 254.694 192.615C254.697 192.587 254.713 192.561 254.738 192.544C254.763 192.526 254.794 192.518 254.825 192.521C254.857 192.525 254.885 192.539 254.905 192.561L266.241 205.408C266.255 205.424 266.263 205.443 266.266 205.463C266.268 205.483 266.264 205.503 266.255 205.521C266.245 205.539 266.23 205.554 266.211 205.565C266.192 205.575 266.17 205.581 266.148 205.581H266.148Z" fill="white"/>
<path d="M265.196 187.153C265.17 187.152 265.146 187.145 265.126 187.131L250.62 177.63C250.607 177.622 250.597 177.612 250.589 177.6C250.58 177.588 250.575 177.574 250.573 177.561C250.57 177.547 250.571 177.533 250.575 177.519C250.578 177.506 250.585 177.493 250.594 177.481C250.603 177.47 250.615 177.461 250.628 177.453C250.641 177.446 250.656 177.441 250.672 177.439C250.687 177.437 250.703 177.437 250.718 177.441C250.733 177.444 250.747 177.45 250.76 177.458L265.267 186.96C265.287 186.974 265.301 186.993 265.309 187.014C265.316 187.035 265.316 187.058 265.308 187.079C265.3 187.1 265.285 187.119 265.265 187.132C265.245 187.145 265.22 187.152 265.196 187.152V187.153Z" fill="white"/>
<path d="M234.277 199.354C234.266 199.354 234.256 199.353 234.246 199.35C234.215 199.343 234.19 199.325 234.174 199.301C234.158 199.276 234.154 199.247 234.162 199.22L238.78 183.699C238.784 183.685 238.79 183.672 238.8 183.661C238.809 183.65 238.821 183.64 238.835 183.633C238.848 183.626 238.863 183.621 238.879 183.619C238.894 183.617 238.91 183.618 238.925 183.622C238.941 183.626 238.955 183.632 238.967 183.641C238.98 183.649 238.99 183.66 238.998 183.672C239.006 183.685 239.011 183.698 239.013 183.712C239.014 183.726 239.013 183.74 239.009 183.754L234.391 199.275C234.384 199.297 234.369 199.317 234.349 199.332C234.328 199.346 234.303 199.354 234.277 199.354V199.354Z" fill="white"/>
</svg>
