<svg width="317" height="327" viewBox="0 0 317 327" fill="none" xmlns="http://www.w3.org/2000/svg">
<rect width="317" height="327" rx="23" fill="#DADBDC"/>
<path d="M94.8269 290.16H99.5269V292H92.5469V278.1H94.8269V290.16ZM113.534 286.22C113.534 286.633 113.507 287.007 113.454 287.34H105.034C105.1 288.22 105.427 288.927 106.014 289.46C106.6 289.993 107.32 290.26 108.174 290.26C109.4 290.26 110.267 289.747 110.774 288.72H113.234C112.9 289.733 112.294 290.567 111.414 291.22C110.547 291.86 109.467 292.18 108.174 292.18C107.12 292.18 106.174 291.947 105.334 291.48C104.507 291 103.854 290.333 103.374 289.48C102.907 288.613 102.674 287.613 102.674 286.48C102.674 285.347 102.9 284.353 103.354 283.5C103.82 282.633 104.467 281.967 105.294 281.5C106.134 281.033 107.094 280.8 108.174 280.8C109.214 280.8 110.14 281.027 110.954 281.48C111.767 281.933 112.4 282.573 112.854 283.4C113.307 284.213 113.534 285.153 113.534 286.22ZM111.154 285.5C111.14 284.66 110.84 283.987 110.254 283.48C109.667 282.973 108.94 282.72 108.074 282.72C107.287 282.72 106.614 282.973 106.054 283.48C105.494 283.973 105.16 284.647 105.054 285.5H111.154ZM117.017 286.44C117.017 285.333 117.244 284.353 117.697 283.5C118.164 282.647 118.791 281.987 119.577 281.52C120.377 281.04 121.257 280.8 122.217 280.8C123.084 280.8 123.837 280.973 124.477 281.32C125.131 281.653 125.651 282.073 126.037 282.58V280.98H128.337V292H126.037V290.36C125.651 290.88 125.124 291.313 124.457 291.66C123.791 292.007 123.031 292.18 122.177 292.18C121.231 292.18 120.364 291.94 119.577 291.46C118.791 290.967 118.164 290.287 117.697 289.42C117.244 288.54 117.017 287.547 117.017 286.44ZM126.037 286.48C126.037 285.72 125.877 285.06 125.557 284.5C125.251 283.94 124.844 283.513 124.337 283.22C123.831 282.927 123.284 282.78 122.697 282.78C122.111 282.78 121.564 282.927 121.057 283.22C120.551 283.5 120.137 283.92 119.817 284.48C119.511 285.027 119.357 285.68 119.357 286.44C119.357 287.2 119.511 287.867 119.817 288.44C120.137 289.013 120.551 289.453 121.057 289.76C121.577 290.053 122.124 290.2 122.697 290.2C123.284 290.2 123.831 290.053 124.337 289.76C124.844 289.467 125.251 289.04 125.557 288.48C125.877 287.907 126.037 287.24 126.037 286.48ZM135.612 282.58C135.945 282.02 136.385 281.587 136.932 281.28C137.492 280.96 138.152 280.8 138.912 280.8V283.16H138.332C137.439 283.16 136.759 283.387 136.292 283.84C135.839 284.293 135.612 285.08 135.612 286.2V292H133.332V280.98H135.612V282.58ZM148.568 280.8C149.434 280.8 150.208 280.98 150.888 281.34C151.581 281.7 152.121 282.233 152.508 282.94C152.894 283.647 153.088 284.5 153.088 285.5V292H150.828V285.84C150.828 284.853 150.581 284.1 150.088 283.58C149.594 283.047 148.921 282.78 148.068 282.78C147.214 282.78 146.534 283.047 146.028 283.58C145.534 284.1 145.288 284.853 145.288 285.84V292H143.008V280.98H145.288V282.24C145.661 281.787 146.134 281.433 146.708 281.18C147.294 280.927 147.914 280.8 148.568 280.8ZM169.191 292.18C168.325 292.18 167.545 292.027 166.851 291.72C166.171 291.4 165.631 290.973 165.231 290.44C164.831 289.893 164.618 289.287 164.591 288.62H166.951C166.991 289.087 167.211 289.48 167.611 289.8C168.025 290.107 168.538 290.26 169.151 290.26C169.791 290.26 170.285 290.14 170.631 289.9C170.991 289.647 171.171 289.327 171.171 288.94C171.171 288.527 170.971 288.22 170.571 288.02C170.185 287.82 169.565 287.6 168.711 287.36C167.885 287.133 167.211 286.913 166.691 286.7C166.171 286.487 165.718 286.16 165.331 285.72C164.958 285.28 164.771 284.7 164.771 283.98C164.771 283.393 164.945 282.86 165.291 282.38C165.638 281.887 166.131 281.5 166.771 281.22C167.425 280.94 168.171 280.8 169.011 280.8C170.265 280.8 171.271 281.12 172.031 281.76C172.805 282.387 173.218 283.247 173.271 284.34H170.991C170.951 283.847 170.751 283.453 170.391 283.16C170.031 282.867 169.545 282.72 168.931 282.72C168.331 282.72 167.871 282.833 167.551 283.06C167.231 283.287 167.071 283.587 167.071 283.96C167.071 284.253 167.178 284.5 167.391 284.7C167.605 284.9 167.865 285.06 168.171 285.18C168.478 285.287 168.931 285.427 169.531 285.6C170.331 285.813 170.985 286.033 171.491 286.26C172.011 286.473 172.458 286.793 172.831 287.22C173.205 287.647 173.398 288.213 173.411 288.92C173.411 289.547 173.238 290.107 172.891 290.6C172.545 291.093 172.051 291.48 171.411 291.76C170.785 292.04 170.045 292.18 169.191 292.18ZM182.235 286.5L187.315 292H184.235L180.155 287.26V292H177.875V277.2H180.155V285.8L184.155 280.98H187.315L182.235 286.5ZM192.109 279.52C191.696 279.52 191.349 279.38 191.069 279.1C190.789 278.82 190.649 278.473 190.649 278.06C190.649 277.647 190.789 277.3 191.069 277.02C191.349 276.74 191.696 276.6 192.109 276.6C192.509 276.6 192.849 276.74 193.129 277.02C193.409 277.3 193.549 277.647 193.549 278.06C193.549 278.473 193.409 278.82 193.129 279.1C192.849 279.38 192.509 279.52 192.109 279.52ZM193.229 280.98V292H190.949V280.98H193.229ZM200.503 277.2V292H198.223V277.2H200.503ZM207.776 277.2V292H205.496V277.2H207.776ZM216.77 292.18C215.903 292.18 215.123 292.027 214.43 291.72C213.75 291.4 213.21 290.973 212.81 290.44C212.41 289.893 212.196 289.287 212.17 288.62H214.53C214.57 289.087 214.79 289.48 215.19 289.8C215.603 290.107 216.116 290.26 216.73 290.26C217.37 290.26 217.863 290.14 218.21 289.9C218.57 289.647 218.75 289.327 218.75 288.94C218.75 288.527 218.55 288.22 218.15 288.02C217.763 287.82 217.143 287.6 216.29 287.36C215.463 287.133 214.79 286.913 214.27 286.7C213.75 286.487 213.296 286.16 212.91 285.72C212.536 285.28 212.35 284.7 212.35 283.98C212.35 283.393 212.523 282.86 212.87 282.38C213.216 281.887 213.71 281.5 214.35 281.22C215.003 280.94 215.75 280.8 216.59 280.8C217.843 280.8 218.85 281.12 219.61 281.76C220.383 282.387 220.796 283.247 220.85 284.34H218.57C218.53 283.847 218.33 283.453 217.97 283.16C217.61 282.867 217.123 282.72 216.51 282.72C215.91 282.72 215.45 282.833 215.13 283.06C214.81 283.287 214.65 283.587 214.65 283.96C214.65 284.253 214.756 284.5 214.97 284.7C215.183 284.9 215.443 285.06 215.75 285.18C216.056 285.287 216.51 285.427 217.11 285.6C217.91 285.813 218.563 286.033 219.07 286.26C219.59 286.473 220.036 286.793 220.41 287.22C220.783 287.647 220.976 288.213 220.99 288.92C220.99 289.547 220.816 290.107 220.47 290.6C220.123 291.093 219.63 291.48 218.99 291.76C218.363 292.04 217.623 292.18 216.77 292.18Z" fill="black"/>
<path d="M81.6329 91.3388H122.284V45L81.6329 45V91.3388Z" fill="#F4F4F4"/>
<path d="M81.6328 45H80.314V91.3388H81.6328V45Z" fill="#F4F4F4"/>
<path opacity="0.05" d="M81.6328 45H80.314V91.3388H81.6328V45Z" fill="#292A2E"/>
<path opacity="0.05" d="M89.038 82.8976H114.879V53.441H89.038V82.8976Z" fill="#292A2E"/>
<path opacity="0.03" d="M89.0381 82.8976H90.3848V53.441H89.0381V82.8976Z" fill="#292A2E"/>
<path d="M48.3866 132.118H81.6326V102.734H48.3866L48.3866 132.118Z" fill="#F4F4F4"/>
<path opacity="0.05" d="M54.443 126.765H75.5767V108.087H54.443V126.765Z" fill="#292A2E"/>
<path d="M48.3869 102.734H47.0681V132.117H48.3869V102.734Z" fill="#F4F4F4"/>
<path opacity="0.05" d="M48.3869 102.734H47.0681V132.117H48.3869V102.734Z" fill="#292A2E"/>
<path opacity="0.03" d="M54.4431 126.765H55.7898V108.087H54.4431V126.765Z" fill="#292A2E"/>
<path d="M261.741 46.6513H166.036V130.466H261.741V46.6513Z" fill="#F4F4F4"/>
<path d="M262.838 46.6513H261.741V130.466H262.838V46.6513Z" fill="#F4F4F4"/>
<path opacity="0.05" d="M262.838 46.6513H261.741V130.466H262.838V46.6513Z" fill="#292A2E"/>
<path opacity="0.05" d="M238.556 104.407V82.4779H218.045V95.2179H186.273V117.776H172.77V130.466H186.273H188.875H257.137V104.407H238.556Z" fill="#292A2E"/>
<path opacity="0.34" d="M235.614 84.8588H220.678V87.2397H235.614V84.8588Z" fill="#FFFFFA"/>
<path opacity="0.34" d="M235.614 89.7928H220.678V92.1737H235.614V89.7928Z" fill="#FFFFFA"/>
<path opacity="0.34" d="M235.614 94.7265H220.678V97.1074H235.614V94.7265Z" fill="#FFFFFA"/>
<path opacity="0.34" d="M254.488 106.718H251.735V109.099H254.488V106.718Z" fill="#FFFFFA"/>
<path opacity="0.34" d="M254.488 111.652H251.735V114.033H254.488V111.652Z" fill="#FFFFFA"/>
<path opacity="0.34" d="M254.488 116.585H251.735V118.966H254.488V116.585Z" fill="#FFFFFA"/>
<path opacity="0.34" d="M249.395 106.718H246.643V109.099H249.395V106.718Z" fill="#FFFFFA"/>
<path opacity="0.34" d="M249.395 111.652H246.643V114.033H249.395V111.652Z" fill="#FFFFFA"/>
<path opacity="0.34" d="M249.395 116.585H246.643V118.966H249.395V116.585Z" fill="#FFFFFA"/>
<path opacity="0.34" d="M244.44 106.718H241.687V109.099H244.44V106.718Z" fill="#FFFFFA"/>
<path opacity="0.34" d="M244.44 111.652H241.687V114.033H244.44V111.652Z" fill="#FFFFFA"/>
<path opacity="0.34" d="M244.44 116.585H241.687V118.966H244.44V116.585Z" fill="#FFFFFA"/>
<path d="M261.741 88.0887H242.483V46.6513H240.891V88.0887H188.875V46.6513H187.282V88.0887H166.036V89.4832H187.282V130.466H188.875V89.4832H240.891V130.466H242.483V89.4832H261.741V88.0887Z" fill="white"/>
<path d="M265.553 130.365H162.224V133.152H265.553V130.365Z" fill="#F4F4F4"/>
<path opacity="0.1" d="M265.553 130.365H162.224V133.152H265.553V130.365Z" fill="#292A2E"/>
<path opacity="0.1" d="M267.045 130.365H265.553V133.152H267.045V130.365Z" fill="#292A2E"/>
<path opacity="0.1" d="M267.045 130.365H265.553V133.152H267.045V130.365Z" fill="#292A2E"/>
<path d="M253.431 212.461C253.4 212.461 253.37 212.456 253.341 212.445C253.312 212.435 253.286 212.42 253.264 212.4C252.931 212.109 252.389 206.76 250.927 190.836C250.329 184.32 249.764 178.165 249.352 174.425C249.323 174.158 249.205 174.127 249.166 174.116C248.601 173.967 246.885 175.152 245.927 176.19C245.888 176.233 245.831 176.26 245.768 176.266C245.706 176.272 245.644 176.255 245.595 176.221C245.546 176.186 245.515 176.136 245.508 176.082C245.502 176.027 245.52 175.972 245.56 175.93C246.193 175.244 248.258 173.445 249.302 173.72C249.512 173.775 249.774 173.936 249.823 174.385C250.235 178.129 250.8 184.285 251.398 190.803C252.286 200.48 253.293 211.443 253.623 212.133C253.649 212.164 253.664 212.201 253.667 212.239C253.67 212.277 253.661 212.315 253.641 212.348C253.622 212.382 253.592 212.411 253.554 212.431C253.517 212.45 253.475 212.461 253.431 212.461V212.461Z" fill="#494949"/>
<path d="M248.745 181.288C252.666 178.536 253.965 174.252 251.647 171.72C249.33 169.188 244.273 169.366 240.352 172.119C236.432 174.871 235.133 179.154 237.45 181.687C239.768 184.219 244.825 184.04 248.745 181.288Z" fill="#0CBC8B"/>
<path opacity="0.2" d="M248.745 181.288C252.666 178.536 253.965 174.252 251.647 171.72C249.33 169.188 244.273 169.366 240.352 172.119C236.432 174.871 235.133 179.154 237.45 181.687C239.768 184.219 244.825 184.04 248.745 181.288Z" fill="white"/>
<path d="M238.549 182.331C238.527 182.331 238.505 182.325 238.486 182.314C238.467 182.304 238.452 182.289 238.443 182.271C238.433 182.253 238.43 182.234 238.432 182.214C238.435 182.195 238.444 182.176 238.459 182.161L249.632 170.361C249.641 170.351 249.653 170.342 249.667 170.335C249.681 170.329 249.696 170.325 249.712 170.323C249.727 170.322 249.743 170.323 249.758 170.327C249.773 170.331 249.787 170.338 249.799 170.347C249.811 170.355 249.821 170.366 249.828 170.378C249.836 170.391 249.84 170.404 249.841 170.418C249.843 170.431 249.841 170.445 249.836 170.458C249.831 170.471 249.823 170.483 249.813 170.494L238.64 182.293C238.629 182.305 238.615 182.315 238.6 182.321C238.584 182.327 238.567 182.331 238.549 182.331Z" fill="white"/>
<path d="M255.868 209.931C255.831 209.931 255.794 209.924 255.76 209.908C255.727 209.893 255.698 209.871 255.676 209.844C255.654 209.818 255.64 209.786 255.634 209.754C255.629 209.721 255.633 209.688 255.645 209.656L259.842 199.086C259.966 198.776 260.176 198.497 260.455 198.276C260.733 198.055 261.07 197.899 261.435 197.822C261.8 197.745 262.181 197.749 262.544 197.835C262.907 197.92 263.239 198.084 263.511 198.311L265.73 200.167C265.775 200.205 265.801 200.257 265.803 200.312C265.804 200.367 265.781 200.42 265.737 200.46C265.694 200.499 265.635 200.522 265.572 200.523C265.509 200.525 265.449 200.504 265.403 200.466L263.185 198.61C262.97 198.431 262.708 198.302 262.421 198.234C262.135 198.167 261.834 198.163 261.546 198.224C261.258 198.285 260.992 198.409 260.772 198.583C260.552 198.757 260.386 198.977 260.288 199.222L256.092 209.792C256.075 209.833 256.045 209.868 256.005 209.893C255.965 209.918 255.918 209.931 255.868 209.931Z" fill="#494949"/>
<path d="M271.929 206.019C274.834 204.005 274.661 199.576 271.543 196.125C268.425 192.675 263.541 191.511 260.636 193.525C257.731 195.539 257.903 199.969 261.022 203.419C264.14 206.869 269.023 208.033 271.929 206.019Z" fill="#0CBC8B"/>
<path d="M251.525 211.787C251.472 211.787 251.42 211.771 251.379 211.742C251.337 211.714 251.308 211.673 251.295 211.628L244.252 185.838C244.204 185.662 244.102 185.501 243.956 185.373C243.81 185.245 243.627 185.155 243.426 185.112C243.226 185.069 243.016 185.076 242.819 185.131C242.622 185.186 242.447 185.287 242.312 185.424L240.141 187.622C240.1 187.663 240.042 187.689 239.979 187.693C239.917 187.697 239.855 187.679 239.808 187.643C239.76 187.607 239.731 187.556 239.726 187.501C239.722 187.446 239.742 187.392 239.783 187.351L241.955 185.154C242.147 184.959 242.396 184.815 242.676 184.737C242.955 184.659 243.254 184.65 243.539 184.711C243.824 184.771 244.084 184.9 244.291 185.082C244.498 185.264 244.644 185.493 244.712 185.743L251.755 211.533C251.762 211.559 251.763 211.587 251.758 211.613C251.754 211.64 251.743 211.666 251.726 211.689C251.71 211.712 251.689 211.732 251.664 211.748C251.639 211.764 251.61 211.776 251.58 211.782C251.562 211.786 251.543 211.787 251.525 211.787Z" fill="#494949"/>
<path d="M248.927 193.351C249.784 189.015 247.518 185.052 243.866 184.499C240.215 183.946 236.561 187.013 235.705 191.348C234.849 195.684 237.115 199.648 240.766 200.201C244.417 200.754 248.071 197.687 248.927 193.351Z" fill="#0CBC8B"/>
<path d="M253.432 212.461C253.422 212.461 253.412 212.46 253.403 212.459C253.372 212.456 253.342 212.447 253.315 212.434C253.288 212.421 253.264 212.403 253.245 212.381C253.226 212.36 253.212 212.335 253.204 212.309C253.196 212.283 253.193 212.256 253.197 212.229L257.695 180.25C257.743 179.901 257.906 179.573 258.163 179.303C258.42 179.034 258.761 178.836 259.144 178.732C259.527 178.628 259.936 178.623 260.321 178.718C260.707 178.813 261.054 179.003 261.319 179.266L266.46 184.365C266.48 184.385 266.496 184.409 266.506 184.435C266.516 184.461 266.52 184.488 266.518 184.515C266.516 184.542 266.508 184.569 266.495 184.593C266.481 184.617 266.462 184.639 266.439 184.657C266.415 184.675 266.388 184.689 266.359 184.698C266.33 184.707 266.299 184.71 266.268 184.709C266.237 184.707 266.206 184.7 266.178 184.688C266.151 184.676 266.126 184.659 266.105 184.639L260.965 179.54C260.76 179.337 260.493 179.19 260.194 179.116C259.896 179.043 259.58 179.047 259.284 179.127C258.988 179.207 258.725 179.361 258.526 179.569C258.328 179.777 258.202 180.031 258.164 180.3L253.666 212.279C253.659 212.329 253.631 212.375 253.588 212.409C253.545 212.442 253.49 212.461 253.432 212.461Z" fill="#494949"/>
<path d="M271.732 187.199C273.525 184.359 271.415 180.33 267.018 178.201C262.621 176.071 257.603 176.646 255.81 179.486C254.016 182.325 256.126 186.354 260.523 188.484C264.92 190.614 269.938 190.038 271.732 187.199Z" fill="#0CBC8B"/>
<path opacity="0.2" d="M271.929 206.019C274.834 204.005 274.661 199.576 271.543 196.125C268.425 192.675 263.541 191.511 260.636 193.525C257.731 195.539 257.903 199.969 261.022 203.419C264.14 206.869 269.023 208.033 271.929 206.019Z" fill="white"/>
<path opacity="0.5" d="M248.927 193.351C249.784 189.015 247.518 185.052 243.866 184.499C240.215 183.946 236.561 187.013 235.705 191.348C234.849 195.684 237.115 199.648 240.766 200.201C244.417 200.754 248.071 197.687 248.927 193.351Z" fill="white"/>
<path opacity="0.5" d="M271.732 187.199C273.525 184.359 271.415 180.33 267.018 178.201C262.621 176.071 257.603 176.646 255.81 179.486C254.016 182.325 256.126 186.354 260.523 188.484C264.92 190.614 269.938 190.038 271.732 187.199Z" fill="white"/>
<path d="M259.184 239.595H247.679L245.772 207.358H261.09L259.184 239.595Z" fill="#292A2E"/>
<path opacity="0.3" d="M259.184 239.595H247.679L245.772 207.358H261.09L259.184 239.595Z" fill="white"/>
<path d="M271.929 206.122C271.911 206.122 271.894 206.118 271.878 206.111C271.862 206.104 271.847 206.095 271.836 206.082L260.543 193.588C260.533 193.577 260.526 193.565 260.522 193.552C260.518 193.539 260.517 193.525 260.518 193.512C260.52 193.498 260.525 193.485 260.533 193.473C260.54 193.461 260.55 193.451 260.562 193.443C260.575 193.434 260.588 193.428 260.603 193.424C260.618 193.42 260.634 193.419 260.649 193.421C260.665 193.422 260.68 193.427 260.693 193.433C260.707 193.44 260.719 193.449 260.728 193.459L272.022 205.954C272.042 205.975 272.05 206.003 272.047 206.03C272.043 206.057 272.027 206.082 272.003 206.099C271.982 206.114 271.956 206.122 271.929 206.122V206.122Z" fill="white"/>
<path d="M270.981 188.2C270.956 188.199 270.931 188.192 270.911 188.179L256.46 178.938C256.447 178.93 256.437 178.92 256.429 178.908C256.421 178.897 256.415 178.884 256.413 178.87C256.41 178.857 256.411 178.843 256.415 178.83C256.418 178.817 256.425 178.804 256.434 178.793C256.443 178.782 256.455 178.773 256.468 178.766C256.481 178.759 256.496 178.754 256.511 178.752C256.527 178.75 256.542 178.751 256.557 178.754C256.573 178.757 256.587 178.763 256.599 178.771L271.05 188.012C271.07 188.025 271.085 188.043 271.092 188.064C271.1 188.084 271.099 188.106 271.092 188.127C271.084 188.148 271.069 188.165 271.049 188.178C271.029 188.191 271.005 188.198 270.981 188.198V188.2Z" fill="white"/>
<path d="M240.178 200.066C240.168 200.066 240.158 200.064 240.148 200.062C240.118 200.055 240.092 200.038 240.076 200.014C240.06 199.99 240.056 199.962 240.064 199.935L244.665 184.841C244.673 184.815 244.693 184.793 244.72 184.78C244.747 184.767 244.779 184.763 244.808 184.77C244.838 184.777 244.864 184.794 244.879 184.817C244.895 184.84 244.9 184.868 244.893 184.894L240.293 199.989C240.286 200.011 240.271 200.03 240.25 200.044C240.23 200.058 240.204 200.066 240.178 200.066V200.066Z" fill="white"/>
<path d="M84.7297 175.708H65.752V180.544H84.7297V175.708Z" fill="#F4F4F4"/>
<path opacity="0.05" d="M70.7872 175.708H68.3005V180.544H70.7872V175.708Z" fill="#292A2E"/>
<path d="M82.3047 176.759H71.9651V179.625H82.3047V176.759Z" fill="white"/>
<path d="M99.867 176.339L82.2334 169.594L80.0233 174.026L97.6569 180.771L99.867 176.339Z" fill="#F4F4F4"/>
<path opacity="0.05" d="M99.867 176.339L82.2334 169.594L80.0233 174.026L97.6569 180.771L99.867 176.339Z" fill="#292A2E"/>
<path d="M97.4991 175.433L95.1885 174.55L92.9783 178.981L95.2889 179.865L97.4991 175.433Z" fill="white"/>
<path d="M93.6135 175.094L84.0063 171.419L82.6966 174.045L92.3038 177.72L93.6135 175.094Z" fill="white"/>
<path opacity="0.05" d="M99.9002 236.969H95.1311V239.758H99.9002V236.969Z" fill="#292A2E"/>
<path opacity="0.05" d="M51.141 236.969H46.3718V239.758H51.141V236.969Z" fill="#292A2E"/>
<path d="M104.272 180.771H42V236.875H104.272V180.771Z" fill="#F4F4F4"/>
<path opacity="0.03" d="M104.272 180.771H42V236.875H104.272V180.771Z" fill="#292A2E"/>
<path d="M115.812 180.771H53.5398V236.875H115.812V180.771Z" fill="#F4F4F4"/>
<path opacity="0.05" d="M111.44 236.969H106.671V239.758H111.44V236.969Z" fill="#292A2E"/>
<path opacity="0.05" d="M62.6808 236.969H57.9116V239.758H62.6808V236.969Z" fill="#292A2E"/>
<path opacity="0.7" d="M113.474 183.399H55.8777V194.177H113.474V183.399Z" fill="white"/>
<path opacity="0.7" d="M113.474 196.816H55.8777V207.594H113.474V196.816Z" fill="white"/>
<path opacity="0.7" d="M113.474 210.232H55.8777V221.011H113.474V210.232Z" fill="white"/>
<path opacity="0.05" d="M84.676 190.296C85.627 190.296 86.398 189.621 86.398 188.788C86.398 187.955 85.627 187.28 84.676 187.28C83.7249 187.28 82.9539 187.955 82.9539 188.788C82.9539 189.621 83.7249 190.296 84.676 190.296Z" fill="#292A2E"/>
<path opacity="0.05" d="M84.676 203.713C85.627 203.713 86.398 203.038 86.398 202.205C86.398 201.372 85.627 200.697 84.676 200.697C83.7249 200.697 82.9539 201.372 82.9539 202.205C82.9539 203.038 83.7249 203.713 84.676 203.713Z" fill="#292A2E"/>
<path opacity="0.05" d="M84.676 217.13C85.627 217.13 86.398 216.455 86.398 215.622C86.398 214.789 85.627 214.114 84.676 214.114C83.7249 214.114 82.9539 214.789 82.9539 215.622C82.9539 216.455 83.7249 217.13 84.676 217.13Z" fill="#292A2E"/>
<path opacity="0.7" d="M113.474 223.951H55.8777V234.73H113.474V223.951Z" fill="white"/>
<path opacity="0.05" d="M84.676 230.849C85.627 230.849 86.398 230.174 86.398 229.341C86.398 228.508 85.627 227.833 84.676 227.833C83.7249 227.833 82.9539 228.508 82.9539 229.341C82.9539 230.174 83.7249 230.849 84.676 230.849Z" fill="#292A2E"/>
<path d="M192.437 194.931H70.2875C68.6388 194.931 67.0576 194.358 65.8918 193.337C64.726 192.316 64.071 190.931 64.071 189.487L68.3237 68.7282H202.67L198.654 189.487C198.654 190.931 197.999 192.316 196.833 193.337C195.667 194.358 194.086 194.931 192.437 194.931Z" fill="#292A2E"/>
<path opacity="0.9" d="M192.437 194.931H70.2875C68.6388 194.931 67.0576 194.358 65.8918 193.337C64.726 192.316 64.071 190.931 64.071 189.487L68.3237 68.7282H202.67L198.654 189.487C198.654 190.931 197.999 192.316 196.833 193.337C195.667 194.358 194.086 194.931 192.437 194.931Z" fill="white"/>
<path d="M192.437 195.138H70.2874C68.5766 195.136 66.9365 194.54 65.7267 193.481C64.517 192.422 63.8365 190.985 63.8345 189.487L68.0871 68.5213H202.906L198.89 189.487C198.888 190.985 198.207 192.422 196.998 193.481C195.788 194.54 194.148 195.136 192.437 195.138ZM68.5597 68.9351L64.307 189.487C64.3088 190.876 64.9395 192.207 66.0606 193.189C67.1818 194.17 68.7019 194.723 70.2874 194.724H192.437C194.023 194.723 195.543 194.17 196.664 193.189C197.785 192.207 198.416 190.876 198.417 189.487L202.434 68.9351H68.5597Z" fill="#292A2E"/>
<path d="M196.926 56.7547H74.7764C73.0656 56.7564 71.4254 57.3523 70.2157 58.4117C69.0059 59.4711 68.3254 60.9075 68.3234 62.4058L68.0872 68.9352H202.906L203.379 62.4058C203.377 60.9075 202.696 59.4711 201.487 58.4117C200.277 57.3523 198.637 56.7564 196.926 56.7547Z" fill="#0C0C0C"/>
<path d="M199.289 56.7547H75.7215C74.0107 56.7564 72.3705 57.3523 71.1608 58.4117C69.9511 59.4711 69.2706 60.9075 69.2686 62.4058V68.9352H205.742V62.4058C205.74 60.9075 205.059 59.4711 203.849 58.4117C202.64 57.3523 201 56.7564 199.289 56.7547Z" fill="#292A2E"/>
<path d="M69.5051 68.7282H205.506V191.556C205.506 193 204.851 194.385 203.685 195.406C202.519 196.427 200.938 197 199.289 197H75.7216C74.0729 197 72.4917 196.427 71.3259 195.406C70.1601 194.385 69.5051 193 69.5051 191.556V68.7282V68.7282Z" fill="white"/>
<path d="M199.289 197.207H75.7215C74.0107 197.205 72.3705 196.61 71.1608 195.55C69.9511 194.491 69.2706 193.054 69.2686 191.556V68.5213H205.742V191.556C205.74 193.054 205.059 194.491 203.849 195.55C202.64 196.61 201 197.205 199.289 197.207V197.207ZM69.7411 68.9351V191.556C69.7429 192.945 70.3736 194.276 71.4947 195.258C72.6159 196.24 74.136 196.792 75.7215 196.793H199.289C200.874 196.792 202.394 196.239 203.515 195.258C204.637 194.276 205.267 192.945 205.269 191.556V68.9351H69.7411Z" fill="#292A2E"/>
<path d="M85.8467 51.8644C84.3662 51.8659 82.9469 52.3816 81.9001 53.2983C80.8532 54.2151 80.2644 55.4581 80.2627 56.7547H80.7352C80.735 55.8956 81.0171 55.0545 81.5477 54.332C82.0784 53.6094 82.8353 53.0359 83.728 52.6797C84.6208 52.3236 85.6116 52.2 86.5824 52.3236C87.5532 52.4472 88.4628 52.8128 89.2028 53.3769C89.9428 53.9409 90.4818 54.6794 90.7556 55.5044C91.0293 56.3294 91.0262 57.206 90.7467 58.0294C90.4671 58.8529 89.9229 59.5886 89.179 60.1486C88.4351 60.7086 87.5228 61.0693 86.5512 61.1877C86.4694 61.0399 86.3299 60.9227 86.1579 60.8573C85.9859 60.7918 85.7929 60.7824 85.6137 60.8307C85.4345 60.8791 85.281 60.982 85.1809 61.1208C85.0809 61.2597 85.0409 61.4254 85.0681 61.5878C85.0954 61.7503 85.1882 61.8988 85.3297 62.0066C85.4711 62.1144 85.652 62.1742 85.8395 62.1753C86.027 62.1765 86.2088 62.1188 86.3519 62.0127C86.4951 61.9067 86.5901 61.7593 86.62 61.5971C88.0204 61.4259 89.2944 60.7958 90.1849 59.8339C91.0755 58.8721 91.5161 57.6501 91.418 56.4148C91.3199 55.1795 90.6902 54.0228 89.6561 53.1782C88.6221 52.3336 87.2607 51.8641 85.8467 51.8644V51.8644Z" fill="#F4F4F4"/>
<path d="M194.747 56.7547C194.738 55.4632 194.145 54.2274 193.099 53.3172C192.053 52.4069 190.638 51.896 189.163 51.896C187.688 51.896 186.274 52.4069 185.227 53.3172C184.181 54.2274 183.589 55.4632 183.579 56.7547H184.052C184.051 55.8956 184.333 55.0545 184.864 54.332C185.395 53.6094 186.152 53.0359 187.044 52.6798C187.937 52.3236 188.928 52.2 189.899 52.3236C190.87 52.4472 191.779 52.8129 192.519 53.3769C193.259 53.9409 193.798 54.6795 194.072 55.5044C194.346 56.3294 194.343 57.206 194.063 58.0295C193.784 58.8529 193.239 59.5886 192.495 60.1486C191.751 60.7086 190.839 61.0693 189.868 61.1877C189.786 61.0399 189.646 60.9227 189.474 60.8573C189.302 60.7918 189.109 60.7824 188.93 60.8307C188.751 60.8791 188.597 60.982 188.497 61.1209C188.397 61.2597 188.357 61.4254 188.385 61.5878C188.412 61.7503 188.505 61.8988 188.646 62.0066C188.788 62.1144 188.968 62.1742 189.156 62.1754C189.343 62.1765 189.525 62.1188 189.668 62.0127C189.811 61.9067 189.907 61.7593 189.936 61.5972C191.27 61.4325 192.49 60.8521 193.374 59.9625C194.258 59.0729 194.745 57.9339 194.747 56.7547V56.7547Z" fill="#F4F4F4"/>
<path d="M179.988 56.7547C179.988 55.4577 179.399 54.2138 178.352 53.2967C177.305 52.3796 175.885 51.8644 174.404 51.8644C172.923 51.8644 171.502 52.3796 170.455 53.2967C169.408 54.2138 168.82 55.4577 168.82 56.7547H169.292C169.292 55.8956 169.574 55.0547 170.105 54.3322C170.635 53.6098 171.392 53.0363 172.285 52.6802C173.177 52.3241 174.168 52.2005 175.139 52.3241C176.11 52.4477 177.019 52.8133 177.759 53.3772C178.499 53.9411 179.038 54.6796 179.312 55.5045C179.586 56.3294 179.583 57.2058 179.303 58.0293C179.024 58.8527 178.48 59.5883 177.736 60.1484C176.992 60.7084 176.08 61.0692 175.109 61.1877C175.027 61.0398 174.887 60.9224 174.715 60.8568C174.543 60.7912 174.35 60.7817 174.171 60.8299C173.991 60.8782 173.838 60.9811 173.737 61.12C173.637 61.259 173.597 61.4247 173.624 61.5873C173.652 61.7499 173.744 61.8986 173.886 62.0064C174.027 62.1143 174.208 62.1743 174.396 62.1755C174.583 62.1767 174.765 62.119 174.909 62.0129C175.052 61.9069 175.147 61.7594 175.177 61.5971C176.51 61.4324 177.731 60.8519 178.615 59.9623C179.498 59.0727 179.986 57.9338 179.988 56.7547V56.7547Z" fill="#F4F4F4"/>
<path d="M165.228 56.7547C165.219 55.4632 164.626 54.2274 163.58 53.3172C162.534 52.4069 161.119 51.896 159.644 51.896C158.169 51.896 156.755 52.4069 155.708 53.3172C154.662 54.2274 154.07 55.4632 154.06 56.7547H154.533C154.532 55.8956 154.814 55.0545 155.345 54.332C155.876 53.6094 156.633 53.0359 157.525 52.6798C158.418 52.3236 159.409 52.2 160.38 52.3236C161.351 52.4472 162.26 52.8129 163 53.3769C163.74 53.9409 164.279 54.6795 164.553 55.5044C164.827 56.3294 164.824 57.206 164.544 58.0295C164.264 58.8529 163.72 59.5886 162.976 60.1486C162.232 60.7086 161.32 61.0693 160.349 61.1877C160.267 61.0399 160.127 60.9227 159.955 60.8573C159.783 60.7918 159.59 60.7824 159.411 60.8307C159.232 60.8791 159.078 60.982 158.978 61.1209C158.878 61.2597 158.838 61.4254 158.865 61.5878C158.893 61.7503 158.986 61.8988 159.127 62.0066C159.269 62.1144 159.449 62.1742 159.637 62.1754C159.824 62.1765 160.006 62.1188 160.149 62.0127C160.292 61.9067 160.388 61.7593 160.417 61.5972C161.751 61.4325 162.971 60.8521 163.855 59.9625C164.739 59.0729 165.226 57.9339 165.228 56.7547V56.7547Z" fill="#F4F4F4"/>
<path d="M150.469 56.7547C150.469 56.1125 150.324 55.4765 150.043 54.8832C149.763 54.2899 149.352 53.7508 148.833 53.2967C148.314 52.8426 147.699 52.4824 147.021 52.2366C146.344 51.9909 145.618 51.8644 144.885 51.8644C144.151 51.8644 143.425 51.9909 142.748 52.2366C142.07 52.4824 141.455 52.8426 140.936 53.2967C140.418 53.7508 140.006 54.2899 139.726 54.8832C139.445 55.4765 139.301 56.1125 139.301 56.7547H139.773C139.773 55.8956 140.055 55.0547 140.586 54.3322C141.116 53.6097 141.873 53.0362 142.766 52.6801C143.659 52.3241 144.649 52.2004 145.62 52.3241C146.591 52.4477 147.5 52.8133 148.24 53.3773C148.98 53.9412 149.519 54.6797 149.793 55.5047C150.067 56.3296 150.064 57.2061 149.784 58.0295C149.505 58.8529 148.96 59.5886 148.217 60.1485C147.473 60.7085 146.561 61.0693 145.589 61.1877C145.507 61.0399 145.368 60.9227 145.196 60.8573C145.024 60.7918 144.831 60.7824 144.652 60.8307C144.472 60.8791 144.319 60.982 144.219 61.1208C144.119 61.2597 144.079 61.4254 144.106 61.5878C144.133 61.7503 144.226 61.8988 144.367 62.0066C144.509 62.1144 144.69 62.1742 144.877 62.1753C145.065 62.1765 145.247 62.1188 145.39 62.0127C145.533 61.9067 145.628 61.7593 145.658 61.5971C146.991 61.4324 148.212 60.852 149.095 59.9624C149.979 59.0728 150.467 57.9338 150.469 56.7547V56.7547Z" fill="#F4F4F4"/>
<path d="M135.709 56.7547C135.7 55.4632 135.107 54.2274 134.061 53.3172C133.015 52.4069 131.6 51.896 130.125 51.896C128.65 51.896 127.236 52.4069 126.189 53.3172C125.143 54.2274 124.551 55.4632 124.541 56.7547H125.014C125.013 55.8956 125.295 55.0545 125.826 54.332C126.357 53.6094 127.114 53.0359 128.006 52.6798C128.899 52.3236 129.89 52.2 130.861 52.3236C131.831 52.4472 132.741 52.8129 133.481 53.3769C134.221 53.9409 134.76 54.6795 135.034 55.5044C135.308 56.3294 135.305 57.206 135.025 58.0295C134.745 58.8529 134.201 59.5886 133.457 60.1486C132.713 60.7086 131.801 61.0693 130.83 61.1877C130.748 61.0399 130.608 60.9227 130.436 60.8573C130.264 60.7918 130.071 60.7824 129.892 60.8307C129.713 60.8791 129.559 60.982 129.459 61.1209C129.359 61.2597 129.319 61.4254 129.346 61.5878C129.374 61.7503 129.466 61.8988 129.608 62.0066C129.749 62.1144 129.93 62.1742 130.118 62.1754C130.305 62.1765 130.487 62.1188 130.63 62.0127C130.773 61.9067 130.868 61.7593 130.898 61.5972C132.232 61.4325 133.452 60.8521 134.336 59.9625C135.22 59.0729 135.707 57.9339 135.709 56.7547V56.7547Z" fill="#F4F4F4"/>
<path d="M120.95 56.7547C120.95 55.4577 120.361 54.2138 119.314 53.2967C118.267 52.3796 116.847 51.8644 115.366 51.8644C113.885 51.8644 112.464 52.3796 111.417 53.2967C110.37 54.2138 109.782 55.4577 109.782 56.7547H110.254C110.254 55.8956 110.536 55.0547 111.067 54.3322C111.598 53.6097 112.354 53.0362 113.247 52.6801C114.14 52.3241 115.131 52.2004 116.101 52.3241C117.072 52.4477 117.982 52.8133 118.721 53.3773C119.461 53.9412 120 54.6797 120.274 55.5047C120.548 56.3296 120.545 57.2061 120.265 58.0295C119.986 58.8529 119.442 59.5886 118.698 60.1485C117.954 60.7085 117.042 61.0693 116.07 61.1877C115.988 61.0399 115.849 60.9227 115.677 60.8573C115.505 60.7918 115.312 60.7824 115.133 60.8307C114.954 60.8791 114.8 60.982 114.7 61.1208C114.6 61.2597 114.56 61.4254 114.587 61.5878C114.614 61.7503 114.707 61.8988 114.849 62.0066C114.99 62.1144 115.171 62.1742 115.359 62.1753C115.546 62.1765 115.728 62.1188 115.871 62.0127C116.014 61.9067 116.109 61.7593 116.139 61.5971C117.472 61.4324 118.693 60.852 119.577 59.9624C120.46 59.0728 120.948 57.9338 120.95 56.7547Z" fill="#F4F4F4"/>
<path d="M106.19 56.7547C106.181 55.4632 105.588 54.2274 104.542 53.3172C103.496 52.4069 102.081 51.896 100.606 51.896C99.1313 51.896 97.7165 52.4069 96.6703 53.3172C95.6241 54.2274 95.0316 55.4632 95.022 56.7547H95.4945C95.4943 55.8956 95.7763 55.0545 96.307 54.332C96.8377 53.6094 97.5946 53.0359 98.4873 52.6798C99.38 52.3236 100.371 52.2 101.342 52.3236C102.312 52.4472 103.222 52.8129 103.962 53.3769C104.702 53.9409 105.241 54.6795 105.515 55.5044C105.789 56.3294 105.786 57.206 105.506 58.0295C105.226 58.8529 104.682 59.5886 103.938 60.1486C103.194 60.7086 102.282 61.0693 101.31 61.1877C101.229 61.0399 101.089 60.9227 100.917 60.8573C100.745 60.7918 100.552 60.7824 100.373 60.8307C100.194 60.8791 100.04 60.982 99.9402 61.1209C99.8401 61.2597 99.8001 61.4254 99.8274 61.5878C99.8547 61.7503 99.9475 61.8988 100.089 62.0066C100.23 62.1144 100.411 62.1742 100.599 62.1754C100.786 62.1765 100.968 62.1188 101.111 62.0127C101.254 61.9067 101.349 61.7593 101.379 61.5972C102.713 61.4325 103.933 60.8521 104.817 59.9625C105.701 59.0729 106.188 57.9339 106.19 56.7547V56.7547Z" fill="#F4F4F4"/>
<g opacity="0.6">
<path d="M85.8467 51.8644C84.3662 51.8659 82.9469 52.3816 81.9001 53.2983C80.8532 54.2151 80.2644 55.4581 80.2627 56.7547H80.7352C80.735 55.8956 81.0171 55.0545 81.5477 54.332C82.0784 53.6094 82.8353 53.0359 83.728 52.6797C84.6208 52.3236 85.6116 52.2 86.5824 52.3236C87.5532 52.4472 88.4628 52.8128 89.2028 53.3769C89.9428 53.9409 90.4818 54.6794 90.7556 55.5044C91.0293 56.3294 91.0262 57.206 90.7467 58.0294C90.4671 58.8529 89.9229 59.5886 89.179 60.1486C88.4351 60.7086 87.5228 61.0693 86.5512 61.1877C86.4694 61.0399 86.3299 60.9227 86.1579 60.8573C85.9859 60.7918 85.7929 60.7824 85.6137 60.8307C85.4345 60.8791 85.281 60.982 85.1809 61.1208C85.0809 61.2597 85.0409 61.4254 85.0681 61.5878C85.0954 61.7503 85.1882 61.8988 85.3297 62.0066C85.4711 62.1144 85.652 62.1742 85.8395 62.1753C86.027 62.1765 86.2088 62.1188 86.3519 62.0127C86.4951 61.9067 86.5901 61.7593 86.62 61.5971C88.0204 61.4259 89.2944 60.7958 90.1849 59.8339C91.0755 58.8721 91.5161 57.6501 91.418 56.4148C91.3199 55.1795 90.6902 54.0228 89.6561 53.1782C88.6221 52.3336 87.2607 51.8641 85.8467 51.8644V51.8644Z" fill="#292A2E"/>
<path d="M194.747 56.7547C194.738 55.4632 194.145 54.2274 193.099 53.3172C192.053 52.4069 190.638 51.896 189.163 51.896C187.688 51.896 186.274 52.4069 185.227 53.3172C184.181 54.2274 183.589 55.4632 183.579 56.7547H184.052C184.051 55.8956 184.333 55.0545 184.864 54.332C185.395 53.6094 186.152 53.0359 187.044 52.6798C187.937 52.3236 188.928 52.2 189.899 52.3236C190.87 52.4472 191.779 52.8129 192.519 53.3769C193.259 53.9409 193.798 54.6795 194.072 55.5044C194.346 56.3294 194.343 57.206 194.063 58.0295C193.784 58.8529 193.239 59.5886 192.495 60.1486C191.751 60.7086 190.839 61.0693 189.868 61.1877C189.786 61.0399 189.646 60.9227 189.474 60.8573C189.302 60.7918 189.109 60.7824 188.93 60.8307C188.751 60.8791 188.597 60.982 188.497 61.1209C188.397 61.2597 188.357 61.4254 188.385 61.5878C188.412 61.7503 188.505 61.8988 188.646 62.0066C188.788 62.1144 188.968 62.1742 189.156 62.1754C189.343 62.1765 189.525 62.1188 189.668 62.0127C189.811 61.9067 189.907 61.7593 189.936 61.5972C191.27 61.4325 192.49 60.8521 193.374 59.9625C194.258 59.0729 194.745 57.9339 194.747 56.7547V56.7547Z" fill="#292A2E"/>
<path d="M179.988 56.7547C179.988 55.4577 179.399 54.2138 178.352 53.2967C177.305 52.3796 175.885 51.8644 174.404 51.8644C172.923 51.8644 171.502 52.3796 170.455 53.2967C169.408 54.2138 168.82 55.4577 168.82 56.7547H169.292C169.292 55.8956 169.574 55.0547 170.105 54.3322C170.635 53.6098 171.392 53.0363 172.285 52.6802C173.177 52.3241 174.168 52.2005 175.139 52.3241C176.11 52.4477 177.019 52.8133 177.759 53.3772C178.499 53.9411 179.038 54.6796 179.312 55.5045C179.586 56.3294 179.583 57.2058 179.303 58.0293C179.024 58.8527 178.48 59.5883 177.736 60.1484C176.992 60.7084 176.08 61.0692 175.109 61.1877C175.027 61.0398 174.887 60.9224 174.715 60.8568C174.543 60.7912 174.35 60.7817 174.171 60.8299C173.991 60.8782 173.838 60.9811 173.737 61.12C173.637 61.259 173.597 61.4247 173.624 61.5873C173.652 61.7499 173.744 61.8986 173.886 62.0064C174.027 62.1143 174.208 62.1743 174.396 62.1755C174.583 62.1767 174.765 62.119 174.909 62.0129C175.052 61.9069 175.147 61.7594 175.177 61.5971C176.51 61.4324 177.731 60.8519 178.615 59.9623C179.498 59.0727 179.986 57.9338 179.988 56.7547V56.7547Z" fill="#292A2E"/>
<path d="M165.228 56.7547C165.219 55.4632 164.626 54.2274 163.58 53.3172C162.534 52.4069 161.119 51.896 159.644 51.896C158.169 51.896 156.755 52.4069 155.708 53.3172C154.662 54.2274 154.07 55.4632 154.06 56.7547H154.533C154.532 55.8956 154.814 55.0545 155.345 54.332C155.876 53.6094 156.633 53.0359 157.525 52.6798C158.418 52.3236 159.409 52.2 160.38 52.3236C161.351 52.4472 162.26 52.8129 163 53.3769C163.74 53.9409 164.279 54.6795 164.553 55.5044C164.827 56.3294 164.824 57.206 164.544 58.0295C164.264 58.8529 163.72 59.5886 162.976 60.1486C162.232 60.7086 161.32 61.0693 160.349 61.1877C160.267 61.0399 160.127 60.9227 159.955 60.8573C159.783 60.7918 159.59 60.7824 159.411 60.8307C159.232 60.8791 159.078 60.982 158.978 61.1209C158.878 61.2597 158.838 61.4254 158.865 61.5878C158.893 61.7503 158.986 61.8988 159.127 62.0066C159.269 62.1144 159.449 62.1742 159.637 62.1754C159.824 62.1765 160.006 62.1188 160.149 62.0127C160.292 61.9067 160.388 61.7593 160.417 61.5972C161.751 61.4325 162.971 60.8521 163.855 59.9625C164.739 59.0729 165.226 57.9339 165.228 56.7547V56.7547Z" fill="#292A2E"/>
<path d="M150.469 56.7547C150.469 56.1125 150.324 55.4765 150.043 54.8832C149.763 54.2899 149.352 53.7508 148.833 53.2967C148.314 52.8426 147.699 52.4824 147.021 52.2366C146.344 51.9909 145.618 51.8644 144.885 51.8644C144.151 51.8644 143.425 51.9909 142.748 52.2366C142.07 52.4824 141.455 52.8426 140.936 53.2967C140.418 53.7508 140.006 54.2899 139.726 54.8832C139.445 55.4765 139.301 56.1125 139.301 56.7547H139.773C139.773 55.8956 140.055 55.0547 140.586 54.3322C141.116 53.6097 141.873 53.0362 142.766 52.6801C143.659 52.3241 144.649 52.2004 145.62 52.3241C146.591 52.4477 147.5 52.8133 148.24 53.3773C148.98 53.9412 149.519 54.6797 149.793 55.5047C150.067 56.3296 150.064 57.2061 149.784 58.0295C149.505 58.8529 148.96 59.5886 148.217 60.1485C147.473 60.7085 146.561 61.0693 145.589 61.1877C145.507 61.0399 145.368 60.9227 145.196 60.8573C145.024 60.7918 144.831 60.7824 144.652 60.8307C144.472 60.8791 144.319 60.982 144.219 61.1208C144.119 61.2597 144.079 61.4254 144.106 61.5878C144.133 61.7503 144.226 61.8988 144.367 62.0066C144.509 62.1144 144.69 62.1742 144.877 62.1753C145.065 62.1765 145.247 62.1188 145.39 62.0127C145.533 61.9067 145.628 61.7593 145.658 61.5971C146.991 61.4324 148.212 60.852 149.095 59.9624C149.979 59.0728 150.467 57.9338 150.469 56.7547V56.7547Z" fill="#292A2E"/>
<path d="M135.709 56.7547C135.7 55.4632 135.107 54.2274 134.061 53.3172C133.015 52.4069 131.6 51.896 130.125 51.896C128.65 51.896 127.236 52.4069 126.189 53.3172C125.143 54.2274 124.551 55.4632 124.541 56.7547H125.014C125.013 55.8956 125.295 55.0545 125.826 54.332C126.357 53.6094 127.114 53.0359 128.006 52.6798C128.899 52.3236 129.89 52.2 130.861 52.3236C131.831 52.4472 132.741 52.8129 133.481 53.3769C134.221 53.9409 134.76 54.6795 135.034 55.5044C135.308 56.3294 135.305 57.206 135.025 58.0295C134.745 58.8529 134.201 59.5886 133.457 60.1486C132.713 60.7086 131.801 61.0693 130.83 61.1877C130.748 61.0399 130.608 60.9227 130.436 60.8573C130.264 60.7918 130.071 60.7824 129.892 60.8307C129.713 60.8791 129.559 60.982 129.459 61.1209C129.359 61.2597 129.319 61.4254 129.346 61.5878C129.374 61.7503 129.466 61.8988 129.608 62.0066C129.749 62.1144 129.93 62.1742 130.118 62.1754C130.305 62.1765 130.487 62.1188 130.63 62.0127C130.773 61.9067 130.868 61.7593 130.898 61.5972C132.232 61.4325 133.452 60.8521 134.336 59.9625C135.22 59.0729 135.707 57.9339 135.709 56.7547V56.7547Z" fill="#292A2E"/>
<path d="M120.95 56.7547C120.95 55.4577 120.361 54.2138 119.314 53.2967C118.267 52.3796 116.847 51.8644 115.366 51.8644C113.885 51.8644 112.464 52.3796 111.417 53.2967C110.37 54.2138 109.782 55.4577 109.782 56.7547H110.254C110.254 55.8956 110.536 55.0547 111.067 54.3322C111.598 53.6097 112.354 53.0362 113.247 52.6801C114.14 52.3241 115.131 52.2004 116.101 52.3241C117.072 52.4477 117.982 52.8133 118.721 53.3773C119.461 53.9412 120 54.6797 120.274 55.5047C120.548 56.3296 120.545 57.2061 120.265 58.0295C119.986 58.8529 119.442 59.5886 118.698 60.1485C117.954 60.7085 117.042 61.0693 116.07 61.1877C115.988 61.0399 115.849 60.9227 115.677 60.8573C115.505 60.7918 115.312 60.7824 115.133 60.8307C114.954 60.8791 114.8 60.982 114.7 61.1208C114.6 61.2597 114.56 61.4254 114.587 61.5878C114.614 61.7503 114.707 61.8988 114.849 62.0066C114.99 62.1144 115.171 62.1742 115.359 62.1753C115.546 62.1765 115.728 62.1188 115.871 62.0127C116.014 61.9067 116.109 61.7593 116.139 61.5971C117.472 61.4324 118.693 60.852 119.577 59.9624C120.46 59.0728 120.948 57.9338 120.95 56.7547Z" fill="#292A2E"/>
<path d="M106.19 56.7547C106.181 55.4632 105.588 54.2274 104.542 53.3172C103.496 52.4069 102.081 51.896 100.606 51.896C99.1313 51.896 97.7165 52.4069 96.6703 53.3172C95.6241 54.2274 95.0316 55.4632 95.022 56.7547H95.4945C95.4943 55.8956 95.7763 55.0545 96.307 54.332C96.8377 53.6094 97.5946 53.0359 98.4873 52.6798C99.38 52.3236 100.371 52.2 101.342 52.3236C102.312 52.4472 103.222 52.8129 103.962 53.3769C104.702 53.9409 105.241 54.6795 105.515 55.5044C105.789 56.3294 105.786 57.206 105.506 58.0295C105.226 58.8529 104.682 59.5886 103.938 60.1486C103.194 60.7086 102.282 61.0693 101.31 61.1877C101.229 61.0399 101.089 60.9227 100.917 60.8573C100.745 60.7918 100.552 60.7824 100.373 60.8307C100.194 60.8791 100.04 60.982 99.9402 61.1209C99.8401 61.2597 99.8001 61.4254 99.8274 61.5878C99.8547 61.7503 99.9475 61.8988 100.089 62.0066C100.23 62.1144 100.411 62.1742 100.599 62.1754C100.786 62.1765 100.968 62.1188 101.111 62.0127C101.254 61.9067 101.349 61.7593 101.379 61.5972C102.713 61.4325 103.933 60.8521 104.817 59.9625C105.701 59.0729 106.188 57.9339 106.19 56.7547V56.7547Z" fill="#292A2E"/>
</g>
<g opacity="0.72">
<path d="M192.596 82.1359H81.7724C81.7097 82.1359 81.6496 82.1141 81.6053 82.0753C81.561 82.0365 81.5361 81.9839 81.5361 81.929C81.5361 81.8741 81.561 81.8215 81.6053 81.7827C81.6496 81.7439 81.7097 81.7221 81.7724 81.7221H192.596C192.658 81.7221 192.718 81.7439 192.763 81.7827C192.807 81.8215 192.832 81.8741 192.832 81.929C192.832 81.9839 192.807 82.0365 192.763 82.0753C192.718 82.1141 192.658 82.1359 192.596 82.1359Z" fill="#292A2E"/>
</g>
<g opacity="0.72">
<path d="M192.596 93.8666H81.7724C81.7097 93.8666 81.6496 93.8448 81.6053 93.806C81.561 93.7672 81.5361 93.7145 81.5361 93.6597C81.5361 93.6048 81.561 93.5522 81.6053 93.5134C81.6496 93.4746 81.7097 93.4528 81.7724 93.4528H192.596C192.658 93.4528 192.718 93.4746 192.763 93.5134C192.807 93.5522 192.832 93.6048 192.832 93.6597C192.832 93.7145 192.807 93.7672 192.763 93.806C192.718 93.8448 192.658 93.8666 192.596 93.8666Z" fill="#292A2E"/>
</g>
<g opacity="0.72">
<path d="M130.064 105.597H81.7729C81.7102 105.597 81.6501 105.576 81.6058 105.537C81.5615 105.498 81.5366 105.445 81.5366 105.391C81.5366 105.336 81.5615 105.283 81.6058 105.244C81.6501 105.205 81.7102 105.184 81.7729 105.184H130.064C130.127 105.184 130.187 105.205 130.231 105.244C130.276 105.283 130.301 105.336 130.301 105.391C130.301 105.445 130.276 105.498 130.231 105.537C130.187 105.576 130.127 105.597 130.064 105.597Z" fill="#292A2E"/>
</g>
<path d="M245.384 143.286C246.429 143.286 247.459 143.065 248.385 142.642C249.311 142.218 250.107 141.605 250.704 140.854C251.302 140.103 251.683 139.237 251.817 138.33C251.95 137.422 251.83 136.5 251.469 135.641C251.102 134.769 242.497 114.814 240.859 111.117L228.73 115.421C229.651 117.5 232.988 125.38 235.669 131.728L231.215 131.304L229.813 142.599L244.682 143.254C244.915 143.276 245.15 143.287 245.384 143.286V143.286Z" fill="#367CFF"/>
<path d="M138.719 115.246L143.202 101.209L248.835 125.921L244.351 139.957L138.719 115.246Z" fill="#367CFF"/>
<path opacity="0.5" d="M138.719 115.246L143.202 101.209L248.835 125.921L244.351 139.957L138.719 115.246Z" fill="white"/>
<path d="M255.946 142.798L260.429 128.762L248.836 125.922L244.353 139.958L255.946 142.798Z" fill="#262626"/>
<path d="M138.719 115.246C138.719 115.246 135.677 112.26 132.96 109.576C130.806 107.448 128.857 105.51 128.797 105.404C128.738 105.297 131.664 104.429 134.897 103.514C138.825 102.4 143.203 101.21 143.203 101.21L138.719 115.246Z" fill="#367CFF"/>
<path opacity="0.9" d="M138.719 115.246C138.719 115.246 135.677 112.26 132.96 109.576C130.806 107.448 128.857 105.51 128.797 105.404C128.738 105.297 131.664 104.429 134.897 103.514C138.825 102.4 143.203 101.21 143.203 101.21L138.719 115.246Z" fill="white"/>
<path d="M132.96 109.576C130.806 107.448 128.857 105.509 128.797 105.403C128.738 105.297 131.664 104.429 134.897 103.513L132.96 109.576Z" fill="#262626"/>
<path d="M140.146 110.883L245.806 135.333L245.604 135.974L139.943 111.524L140.146 110.883Z" fill="white"/>
<path d="M141.897 105.391L247.558 129.84L247.355 130.481L141.695 106.032L141.897 105.391Z" fill="white"/>
<path d="M231.615 230.845C231.615 230.845 230.549 235.687 225.372 235.958C220.194 236.228 221.317 239.839 221.317 239.839H241.101V231.183L231.615 230.845Z" fill="#367CFF"/>
<path d="M237.717 142.51C237.717 142.51 237.655 141.055 237.669 144.357C237.717 156.674 237.962 170.743 238.558 178.975C239.516 192.21 241.974 233.936 241.974 233.936L228.974 233.841L216.374 142.01L237.717 142.51Z" fill="#262626"/>
<path d="M223.037 157.035C223.037 157.035 222.498 165.973 222.399 168.072C222.168 172.925 222.087 177.949 222.087 183.646L220.038 168.712C220.038 168.712 221.537 164.031 223.037 157.035Z" fill="#0A0A0A"/>
<path d="M208.471 230.845C208.471 230.845 207.405 235.687 202.227 235.958C197.05 236.228 198.173 239.839 198.173 239.839H217.957V231.183L208.471 230.845Z" fill="#367CFF"/>
<path d="M202.176 143.468C202.176 143.468 201.025 185.564 201.194 187.622L206.028 233.618L218.814 233.825L217.568 185.958C217.568 185.958 218.447 172.754 222.09 160.493C223.954 154.2 225.075 147.757 225.437 141.263V141.263L202.176 143.468Z" fill="#262626"/>
<path d="M237.859 142.509L237.902 142.511C237.902 142.511 237.871 141.793 237.859 142.509Z" fill="#333333"/>
<path d="M200.346 120.1C200.614 122.859 201.919 140.069 202.176 143.467H237.703C237.904 140.402 237.938 127.124 238.699 121.132C239.425 115.413 241.718 112.428 240.673 110.737C238.966 107.974 234.301 106.377 231.12 106C229.178 105.77 226.256 105.605 226.256 105.605C226.256 105.605 226.009 109.987 220.11 110.231C212.081 110.562 212.617 105.605 212.577 105.605C211.278 105.605 204.083 106.25 202.5 107.476C198.245 110.775 199.777 114.255 200.346 120.1Z" fill="#367CFF"/>
<path d="M208.345 105.227C208.384 105.222 209.474 108.814 217.979 108.255C223.866 107.869 225.303 104.359 225.437 104.359C224.802 104.241 223.771 104.118 223.489 103.986C222.562 103.55 221.887 103.019 221.547 101.88C221.281 100.988 221.145 97.557 221.145 95.8355L212.086 97.6185C212.212 99.5603 213.096 104.062 209.998 104.859C209.483 104.991 208.928 105.112 208.345 105.227Z" fill="#E98862"/>
<path d="M212.399 101.436C215.971 101.683 220.559 100.362 221.43 96.1891L222.217 92.4234C223.088 88.2503 221.292 84.4663 216.807 83.7477C212.32 83.0292 208.26 85.875 207.388 90.0481L207.04 91.7152C206.705 93.3166 206.027 100.996 212.399 101.436Z" fill="#E98862"/>
<path d="M209.088 97.6046C209.729 94.7836 210.023 92.9014 209.989 90.9157C209.086 89.5294 209.323 87.9362 209.528 87.2484C208.907 87.5945 208.175 87.7587 207.44 87.7175C207.44 87.7175 208.934 82.4686 214.008 81.0563C214.942 80.7381 217.325 80.3363 220.489 80.7163C223.18 81.0395 229.814 82.802 230.762 89.343V89.3467C230.793 89.5635 231.43 95.5902 232.7 98.4817C234.407 102.369 236.804 103.577 236.743 108.062C236.665 113.83 224.555 114.598 217.252 114.167C209.948 113.735 205.87 111.632 205.817 107.474C205.759 102.816 207.805 103.249 209.088 97.6046Z" fill="#0A0A0A"/>
<path d="M238.463 121.125L237.59 143.464L237.826 143.471L238.699 121.132L238.463 121.125Z" fill="#0C0C0C"/>
<path d="M167.013 121.566L163.502 117.168C163.425 117.071 163.326 116.99 163.211 116.928C163.096 116.867 162.967 116.828 162.834 116.812C162.7 116.797 162.565 116.806 162.435 116.839C162.306 116.872 162.186 116.929 162.083 117.005C161.898 117.15 161.781 117.35 161.755 117.567C161.729 117.783 161.795 118.001 161.941 118.177L162.694 119.12L158.772 117.106C158.341 116.875 157.643 116.834 157.378 117.275C157.264 117.439 157.217 117.632 157.244 117.822C157.271 118.013 157.372 118.189 157.528 118.323C157.525 118.326 157.522 118.33 157.519 118.333C157.517 118.336 157.516 118.339 157.515 118.343L156.85 117.987C156.726 117.921 156.588 117.88 156.444 117.867C156.301 117.854 156.155 117.87 156.019 117.912C155.883 117.954 155.76 118.023 155.658 118.112C155.556 118.202 155.478 118.31 155.429 118.429C155.358 118.618 155.362 118.823 155.443 119.01C155.523 119.196 155.674 119.353 155.87 119.453L156.154 119.604C156.153 119.614 156.153 119.623 156.156 119.632C155.937 119.568 155.7 119.575 155.487 119.651C155.273 119.727 155.098 119.867 154.992 120.046C154.882 120.244 154.862 120.471 154.935 120.682C155.008 120.893 155.169 121.072 155.386 121.184L156.089 121.56C156.078 121.56 156.067 121.562 156.056 121.566C156.046 121.571 156.037 121.577 156.029 121.584C156.022 121.592 156.016 121.6 156.012 121.61C156.009 121.619 156.007 121.629 156.008 121.639C155.796 121.63 155.586 121.683 155.411 121.788C155.236 121.894 155.106 122.047 155.04 122.223C154.974 122.411 154.983 122.612 155.065 122.794C155.146 122.976 155.296 123.129 155.489 123.228L161.424 126.399C162.254 126.843 163.217 127.059 164.188 127.02C165.16 126.982 166.096 126.69 166.877 126.182V126.182C167.551 125.745 168.003 125.094 168.137 124.369C168.272 123.644 168.078 122.902 167.598 122.3L167.013 121.566Z" fill="#E98862"/>
<g opacity="0.2">
<path d="M161.4 120.335C161.388 120.353 161.368 120.365 161.346 120.37C161.323 120.375 161.299 120.372 161.279 120.361L157.552 118.442C157.532 118.431 157.518 118.414 157.513 118.394C157.508 118.374 157.511 118.353 157.523 118.336C157.535 118.318 157.554 118.305 157.576 118.3C157.598 118.294 157.622 118.297 157.643 118.306L161.37 120.227C161.38 120.232 161.389 120.239 161.396 120.247C161.403 120.255 161.408 120.264 161.411 120.274C161.414 120.284 161.415 120.295 161.413 120.305C161.411 120.315 161.407 120.325 161.401 120.334L161.4 120.335Z" fill="#0C0C0C"/>
</g>
<g opacity="0.2">
<path d="M160.479 121.797C160.466 121.815 160.447 121.827 160.424 121.832C160.401 121.837 160.377 121.834 160.357 121.823L156.199 119.681C156.189 119.676 156.18 119.669 156.173 119.66C156.166 119.652 156.161 119.643 156.158 119.633C156.155 119.623 156.154 119.612 156.156 119.602C156.158 119.592 156.161 119.582 156.167 119.573C156.18 119.556 156.2 119.543 156.222 119.538C156.245 119.533 156.269 119.536 156.29 119.546L160.448 121.688C160.468 121.699 160.483 121.716 160.489 121.736C160.495 121.756 160.492 121.778 160.48 121.796L160.479 121.797Z" fill="#0C0C0C"/>
</g>
<g opacity="0.2">
<path d="M159.492 123.386C159.48 123.404 159.46 123.416 159.437 123.421C159.415 123.426 159.391 123.423 159.371 123.413L156.053 121.704C156.033 121.693 156.019 121.676 156.014 121.656C156.009 121.636 156.012 121.615 156.024 121.598C156.036 121.58 156.055 121.567 156.077 121.562C156.099 121.557 156.123 121.559 156.144 121.569L159.461 123.278C159.472 123.283 159.48 123.29 159.488 123.298C159.495 123.306 159.5 123.316 159.503 123.326C159.506 123.336 159.506 123.346 159.505 123.356C159.503 123.366 159.499 123.376 159.493 123.385L159.492 123.386Z" fill="#0C0C0C"/>
</g>
<path d="M201.179 108.805L186.449 128.139L167.851 118.695L161.134 128.33L184.958 141.73C186.486 142.587 188.337 142.885 190.114 142.56C191.89 142.236 193.45 141.313 194.458 139.992L194.547 139.876L212.971 115.695L201.179 108.805Z" fill="#367CFF"/>
<path d="M201.224 131.353C201.203 131.353 201.182 131.348 201.163 131.338C201.145 131.328 201.13 131.315 201.12 131.298C201.11 131.282 201.105 131.263 201.106 131.244C201.107 131.226 201.114 131.207 201.126 131.192L205.011 126.127C205.029 126.105 205.055 126.09 205.086 126.085C205.116 126.081 205.147 126.086 205.173 126.101C205.198 126.116 205.216 126.139 205.222 126.166C205.229 126.192 205.223 126.22 205.207 126.242L201.322 131.307C201.311 131.321 201.297 131.333 201.28 131.341C201.263 131.349 201.244 131.353 201.224 131.353Z" fill="#0C0C0C"/>
<path d="M266.801 240H44.3687C44.3202 240 44.2738 239.983 44.2395 239.953C44.2053 239.923 44.186 239.882 44.186 239.84C44.186 239.798 44.2053 239.757 44.2395 239.727C44.2738 239.697 44.3202 239.68 44.3687 239.68H266.801C266.849 239.68 266.896 239.697 266.93 239.727C266.964 239.757 266.983 239.798 266.983 239.84C266.983 239.882 266.964 239.923 266.93 239.953C266.896 239.983 266.849 240 266.801 240V240Z" fill="#3F3F3F"/>
</svg>
