<svg width="500" height="500" viewBox="0 0 500 500" fill="none" xmlns="http://www.w3.org/2000/svg">
<path d="M135.301 24.4669C336.26 127.693 92.5263 170.197 70.7355 174.245C48.9446 178.294 -65.6584 -78.7588 135.301 24.4669Z" fill="#BFD0EA"/>
<path d="M308.58 312.133C458.938 84.2113 19.4391 68.8378 1.30068 296.938C-16.8377 525.038 158.222 540.054 308.58 312.133Z" fill="#A7B6DC"/>
<path d="M365.962 91.894C621.139 323.831 449.984 455.906 358.493 395.774C267.003 335.643 110.784 -140.043 365.962 91.894Z" fill="#9BD6FF"/>
<path fill-rule="evenodd" clip-rule="evenodd" d="M152.315 145.226C150.843 141.126 149.846 136.101 150.013 130.471C150.493 114.248 160.009 117.817 161.86 126.005C163.712 134.193 163.492 154.962 161.099 156.425C160.145 157.009 158.112 155.579 156.044 152.62L157.342 174.419H149.675L152.315 145.226Z" fill="#B28B67"/>
<path fill-rule="evenodd" clip-rule="evenodd" d="M157.49 116.568C156.48 116.175 153.759 115.904 153.257 115.905C152.937 115.905 152.589 116.078 152.399 115.38C152.244 114.808 152.301 113.84 152.254 113.176C152.201 112.405 152.124 111.644 152.047 110.884C151.826 108.723 151.493 106.668 151.027 104.737C150.152 101.116 148.871 98.2798 147.253 96.6293C145.466 94.8068 143.445 94.3895 141.523 94.7592C139.466 95.1547 137.605 96.7656 135.663 98.2816C133.813 99.7262 131.875 100.295 129.94 99.5893C127.99 98.8786 126.517 96.371 124.872 93.9909C123.189 91.5543 121.265 89.9606 119.274 90.327C117.416 90.669 115.704 92.4894 114.168 94.9211C112.73 97.1963 111.544 99.9337 110.875 103.786C110.154 107.931 110.155 112.479 111.34 116.142C113.057 121.451 116.244 122.824 118.896 122.687C120.43 122.609 121.936 121.944 123.384 120.735C125.316 119.124 126.985 116.391 128.791 114.175C129.639 113.134 130.516 112.28 131.434 111.665C132.326 111.067 133.204 110.793 134.011 112.071C134.865 113.423 135.63 114.751 136.607 115.597C137.544 116.409 138.537 116.864 139.535 116.845C141.478 116.81 143.392 115.373 145.279 114.411C146.818 113.627 148.464 112.845 150.032 113.599C150.687 113.914 151.643 114.564 151.879 116.178C147.9 117.889 146.338 129.565 147.459 138.136C148.065 142.763 151.704 148.171 153.119 145.738C154.015 144.198 153.471 142.175 153.119 140.84C152.444 138.282 152.213 134.997 153.461 133.217C154.538 131.682 155.67 135.328 155.691 135.324C155.987 135.269 158.544 131.838 160.305 126.831C162.043 127.076 162.306 124.357 161.891 122.133C161.476 119.91 158.887 117.112 157.49 116.568Z" fill="#191847"/>
<path fill-rule="evenodd" clip-rule="evenodd" d="M143.492 237.338C144.068 255.993 181.176 310.917 181.392 312.458C181.488 313.143 177.638 334.794 169.842 377.41L173.086 380.401C185.044 335.268 190.716 310.296 190.102 305.487C189.223 298.602 179.625 275.951 161.31 237.536L143.492 237.338Z" fill="#B28B67"/>
<path fill-rule="evenodd" clip-rule="evenodd" d="M170.696 367.785L175.992 372.36C187.159 342.461 191.537 317.791 190.738 305.221C190.206 296.841 180.642 274.229 162.046 237.383L143.112 237.383C143.758 280.587 178.153 312.623 178.613 314.464C179.073 316.305 174.545 334.336 170.696 367.785Z" fill="#2F3676"/>
<path fill-rule="evenodd" clip-rule="evenodd" d="M168.156 375.184C167.585 376.554 167.244 377.664 167.135 378.515C167.001 379.55 166.9 381.154 166.832 383.326C167.486 383.971 173.365 389.771 184.47 400.727C185.287 398.397 185.216 396.634 184.257 395.438C183.299 394.242 182.504 393.232 181.874 392.409L174.542 377.612C174.401 377.327 174.199 377.274 174.091 377.495C174.089 377.498 174.088 377.502 174.086 377.506L173.256 379.333C172.241 379.214 171.447 378.873 170.876 378.309C170.411 377.851 169.815 376.874 169.085 375.378L169.085 375.378C168.805 374.804 168.401 374.691 168.183 375.125C168.174 375.144 168.165 375.164 168.156 375.184Z" fill="#E4E4E4"/>
<path fill-rule="evenodd" clip-rule="evenodd" d="M147.758 237.338L131.227 331.509L114.98 411.122H118.814L160.752 237.338H147.758Z" fill="#997659"/>
<path fill-rule="evenodd" clip-rule="evenodd" d="M114.751 407.447C114.394 409.711 114.215 411.405 114.215 412.529C114.215 413.896 114.311 415.89 114.503 418.513C115.171 418.513 121.177 418.513 132.521 418.513C132.989 414.84 132.719 412.857 131.71 412.564C130.701 412.271 129.863 412.007 129.196 411.771L120.821 402.911C120.66 402.741 120.471 402.913 120.4 403.295C120.398 403.302 120.397 403.308 120.396 403.315L119.858 406.413C118.924 407.447 118.165 407.964 117.581 407.964C117.107 407.964 116.452 407.51 115.616 406.6L115.616 406.6C115.295 406.252 114.916 406.586 114.769 407.347C114.762 407.38 114.757 407.413 114.751 407.447Z" fill="#E4E4E4"/>
<path fill-rule="evenodd" clip-rule="evenodd" d="M116.448 394.584L124.965 398.374C131.551 375.399 159.112 281.193 162.134 237.338H143.172C133.081 269.04 122.725 371.228 116.448 394.584Z" fill="#5C63AB"/>
<path fill-rule="evenodd" clip-rule="evenodd" d="M176.509 216.58L188.084 204.517C190.112 199.722 192.07 196.078 193.958 193.584C194.523 193.158 195.488 193.029 194.459 196.596C193.429 200.163 192.414 204.026 192.826 205.276C193.237 206.526 194.428 205.146 194.899 207.179C195.213 208.535 193.204 210.156 188.874 212.043L180.205 227.816L176.509 216.58ZM129.711 219.902L136.257 222.984C129.674 252.098 126.143 267.528 125.666 269.275C124.591 273.205 125.594 280.408 125.964 284.202C123.64 285.485 124.557 277.185 121.616 278.918C118.931 280.5 116.655 284.559 114.152 279.084C113.844 278.411 113.619 276.307 114.668 275.228C117.282 272.54 121.144 267.506 121.771 265.551C122.625 262.886 125.271 247.67 129.711 219.902Z" fill="#B28B67"/>
<path fill-rule="evenodd" clip-rule="evenodd" d="M154.05 161.784L156.813 160.659C162.83 174.509 165.285 207.783 169.295 212.187C173.086 216.351 178.46 212.322 184.848 206.881L186.804 217.253C181 232.153 168.635 244.742 163.623 237.555C155.61 226.065 153.76 185.027 154.05 161.784Z" fill="#DB2721"/>
<path fill-rule="evenodd" clip-rule="evenodd" d="M142.008 244.16C153.084 244.16 161.232 244.16 166.45 244.16C167.567 244.16 167.357 240.333 167.195 238.402C165.332 216.115 158.058 192.09 158.058 160.365L151.008 157.742C145.176 179.997 143.16 207.398 142.008 244.16Z" fill="#DDE3E9"/>
<path fill-rule="evenodd" clip-rule="evenodd" d="M139.57 221.595C134.588 242.923 130.399 258.278 127.006 267.66L121.882 265.279C125.183 216.711 134.739 180.866 150.553 157.742H151.826L153.344 157.742C159.674 208.939 161.419 243.051 158.579 260.079H136.577C136.925 247.619 138.042 234.443 139.57 221.595H139.57Z" fill="#FF4133"/>
<path fill-rule="evenodd" clip-rule="evenodd" d="M148.123 476.014C166.065 475.795 185.995 475.61 198.082 478.444C210.813 481.428 212.695 485.95 206.886 489.788C201.605 493.277 185.622 495.076 170.35 496.764C154.191 498.55 136.062 501.199 119.938 499.399C104.031 497.624 105.123 492.938 102.249 489.162C99.7198 485.839 95.426 482.281 104.851 479.58C114.558 476.798 131.878 476.212 148.123 476.014Z" fill="#1C27FF"/>
<path fill-rule="evenodd" clip-rule="evenodd" d="M181.205 438.863C194.228 438.645 208.693 438.46 217.466 441.293C226.707 444.278 228.073 448.8 223.856 452.638C220.023 456.127 208.422 457.925 197.338 459.613C185.61 461.399 172.452 464.049 160.748 462.249C149.203 460.473 149.996 455.788 147.91 452.011C146.074 448.689 142.958 445.131 149.799 442.43C156.844 439.648 169.415 439.061 181.205 438.863Z" fill="#3A42DE"/>
<path fill-rule="evenodd" clip-rule="evenodd" d="M205.566 408.718C216.37 408.545 228.371 408.399 235.649 410.642C243.315 413.005 244.449 416.585 240.95 419.623C237.771 422.385 228.146 423.809 218.95 425.146C209.221 426.559 198.304 428.657 188.595 427.232C179.016 425.826 179.674 422.117 177.943 419.127C176.42 416.497 173.835 413.68 179.51 411.542C185.355 409.339 195.785 408.875 205.566 408.718Z" fill="#777DF0"/>
</svg>
