<svg width="317" height="327" viewBox="0 0 317 327" fill="none" xmlns="http://www.w3.org/2000/svg">
<rect width="317" height="327" rx="23" fill="#DADBDC"/>
<path d="M113.925 278.1V292H111.645V278.1H113.925ZM124.478 280.8C125.345 280.8 126.118 280.98 126.798 281.34C127.491 281.7 128.031 282.233 128.418 282.94C128.805 283.647 128.998 284.5 128.998 285.5V292H126.738V285.84C126.738 284.853 126.491 284.1 125.998 283.58C125.505 283.047 124.831 282.78 123.978 282.78C123.125 282.78 122.445 283.047 121.938 283.58C121.445 284.1 121.198 284.853 121.198 285.84V292H118.918V280.98H121.198V282.24C121.571 281.787 122.045 281.433 122.618 281.18C123.205 280.927 123.825 280.8 124.478 280.8ZM136.566 282.84V288.94C136.566 289.353 136.66 289.653 136.846 289.84C137.046 290.013 137.38 290.1 137.846 290.1H139.246V292H137.446C136.42 292 135.633 291.76 135.086 291.28C134.54 290.8 134.266 290.02 134.266 288.94V282.84H132.966V280.98H134.266V278.24H136.566V280.98H139.246V282.84H136.566ZM153.448 286.22C153.448 286.633 153.421 287.007 153.368 287.34H144.948C145.014 288.22 145.341 288.927 145.928 289.46C146.514 289.993 147.234 290.26 148.088 290.26C149.314 290.26 150.181 289.747 150.688 288.72H153.148C152.814 289.733 152.208 290.567 151.328 291.22C150.461 291.86 149.381 292.18 148.088 292.18C147.034 292.18 146.088 291.947 145.248 291.48C144.421 291 143.768 290.333 143.288 289.48C142.821 288.613 142.588 287.613 142.588 286.48C142.588 285.347 142.814 284.353 143.268 283.5C143.734 282.633 144.381 281.967 145.208 281.5C146.048 281.033 147.008 280.8 148.088 280.8C149.128 280.8 150.054 281.027 150.868 281.48C151.681 281.933 152.314 282.573 152.768 283.4C153.221 284.213 153.448 285.153 153.448 286.22ZM151.068 285.5C151.054 284.66 150.754 283.987 150.168 283.48C149.581 282.973 148.854 282.72 147.988 282.72C147.201 282.72 146.528 282.973 145.968 283.48C145.408 283.973 145.074 284.647 144.968 285.5H151.068ZM159.971 282.58C160.305 282.02 160.745 281.587 161.291 281.28C161.851 280.96 162.511 280.8 163.271 280.8V283.16H162.691C161.798 283.16 161.118 283.387 160.651 283.84C160.198 284.293 159.971 285.08 159.971 286.2V292H157.691V280.98H159.971V282.58ZM166.607 286.44C166.607 285.333 166.834 284.353 167.287 283.5C167.754 282.647 168.381 281.987 169.167 281.52C169.967 281.04 170.847 280.8 171.807 280.8C172.674 280.8 173.427 280.973 174.067 281.32C174.721 281.653 175.241 282.073 175.627 282.58V280.98H177.927V292H175.627V290.36C175.241 290.88 174.714 291.313 174.047 291.66C173.381 292.007 172.621 292.18 171.767 292.18C170.821 292.18 169.954 291.94 169.167 291.46C168.381 290.967 167.754 290.287 167.287 289.42C166.834 288.54 166.607 287.547 166.607 286.44ZM175.627 286.48C175.627 285.72 175.467 285.06 175.147 284.5C174.841 283.94 174.434 283.513 173.927 283.22C173.421 282.927 172.874 282.78 172.287 282.78C171.701 282.78 171.154 282.927 170.647 283.22C170.141 283.5 169.727 283.92 169.407 284.48C169.101 285.027 168.947 285.68 168.947 286.44C168.947 287.2 169.101 287.867 169.407 288.44C169.727 289.013 170.141 289.453 170.647 289.76C171.167 290.053 171.714 290.2 172.287 290.2C172.874 290.2 173.421 290.053 173.927 289.76C174.434 289.467 174.841 289.04 175.147 288.48C175.467 287.907 175.627 287.24 175.627 286.48ZM182.162 286.48C182.162 285.347 182.389 284.353 182.842 283.5C183.309 282.633 183.949 281.967 184.762 281.5C185.575 281.033 186.509 280.8 187.562 280.8C188.895 280.8 189.995 281.12 190.862 281.76C191.742 282.387 192.335 283.287 192.642 284.46H190.182C189.982 283.913 189.662 283.487 189.222 283.18C188.782 282.873 188.229 282.72 187.562 282.72C186.629 282.72 185.882 283.053 185.322 283.72C184.775 284.373 184.502 285.293 184.502 286.48C184.502 287.667 184.775 288.593 185.322 289.26C185.882 289.927 186.629 290.26 187.562 290.26C188.882 290.26 189.755 289.68 190.182 288.52H192.642C192.322 289.64 191.722 290.533 190.842 291.2C189.962 291.853 188.869 292.18 187.562 292.18C186.509 292.18 185.575 291.947 184.762 291.48C183.949 291 183.309 290.333 182.842 289.48C182.389 288.613 182.162 287.613 182.162 286.48ZM199.574 282.84V288.94C199.574 289.353 199.667 289.653 199.854 289.84C200.054 290.013 200.387 290.1 200.854 290.1H202.254V292H200.454C199.427 292 198.641 291.76 198.094 291.28C197.547 290.8 197.274 290.02 197.274 288.94V282.84H195.974V280.98H197.274V278.24H199.574V280.98H202.254V282.84H199.574Z" fill="black"/>
<path opacity="0.2" d="M113.382 70.2796L113.217 70.2292L60.8625 202.937L245.422 220.186L245.63 220.206L252.392 112.477L252.406 112.265L113.382 70.2796ZM166.4 155.623L61.5889 202.264L113.372 71.0054L166.4 155.623ZM166.707 156.022L244.668 219.609L62.1489 202.552L166.707 156.022ZM166.803 155.434L113.854 70.9405L251.526 112.518L166.803 155.434ZM245.258 219.484L167.171 155.794L251.951 112.848L245.258 219.484Z" fill="#367CFF"/>
<path d="M275.981 114.721C275.814 119.83 274.628 124.814 272.524 129.247C270.42 133.68 267.461 137.431 263.9 140.178C260.339 142.926 256.281 144.589 252.073 145.025C247.866 145.46 243.634 144.656 239.739 142.681C237.912 141.754 236.179 140.576 234.575 139.169C231.509 136.489 228.957 133.039 227.094 129.054V129.051C225.107 124.789 223.963 120.028 223.753 115.141C223.543 110.254 224.271 105.374 225.881 100.886C227.491 96.3973 229.939 92.4218 233.032 89.2719C236.125 86.1219 239.779 83.8832 243.708 82.7317C247.636 81.5802 251.731 81.5473 255.672 82.6354C259.612 83.7236 263.291 85.9033 266.418 89.0032C269.546 92.1031 272.037 96.0388 273.696 100.501C275.355 104.963 276.137 109.831 275.98 114.72L275.981 114.721Z" fill="white"/>
<path opacity="0.09" d="M275.981 114.721C275.814 119.83 274.628 124.814 272.524 129.247C270.42 133.68 267.461 137.431 263.9 140.178C260.339 142.926 256.281 144.589 252.073 145.025C247.866 145.46 243.634 144.656 239.739 142.681C237.912 141.754 236.179 140.576 234.575 139.169C231.509 136.489 228.957 133.039 227.094 129.054V129.051C225.107 124.789 223.963 120.028 223.753 115.141C223.543 110.254 224.271 105.374 225.881 100.886C227.491 96.3973 229.939 92.4218 233.032 89.2719C236.125 86.1219 239.779 83.8832 243.708 82.7317C247.636 81.5802 251.731 81.5473 255.672 82.6354C259.612 83.7236 263.291 85.9033 266.418 89.0032C269.546 92.1031 272.037 96.0388 273.696 100.501C275.355 104.963 276.137 109.831 275.98 114.72L275.981 114.721Z" fill="#367CFF"/>
<path d="M256.04 89.39C256.04 89.39 262.289 89.4827 260.135 99.9105L259.548 99.9452L258.356 100.016" fill="#0C0C0C"/>
<path d="M249.061 110.851C249.091 110.848 249.206 117.352 255.45 117.079C259.773 116.89 261.487 111.426 261.586 111.43C261.125 111.289 260.348 111.077 260.146 110.935C259.482 110.462 258.657 109.963 258.489 108.356C258.392 107.431 258.757 102.735 258.721 101.802L252.047 103.279C252.077 105.249 252.578 109.835 250.284 110.535C249.902 110.651 249.492 110.755 249.061 110.851Z" fill="#E98862"/>
<path opacity="0.52" d="M251.779 108.741C251.896 108.341 251.976 107.927 252.018 107.506C252.122 106.547 252.138 105.576 252.067 104.612C253.419 104.456 254.708 103.843 255.786 102.845C255.892 103.399 256.491 105.832 256.286 106.345C255.901 107.316 254.188 108.854 251.779 108.741Z" fill="#0C0C0C"/>
<path d="M253.294 107.591C255.91 107.365 259.066 105.436 259.176 101.144L259.275 97.2719C259.384 92.9804 257.611 89.4315 254.274 89.3066C250.937 89.1807 248.354 92.5671 248.244 96.8586L248.2 98.5729C248.194 99.1621 248.22 99.7511 248.28 100.336C248.428 101.882 248.658 104.233 249.499 105.839C250.293 107.355 251.623 107.736 253.294 107.591Z" fill="#E98862"/>
<path d="M258.935 102.445C259.949 102.482 260.805 101.199 260.837 99.9717C260.868 98.7439 260.063 98.0357 259.049 97.9977L258.505 98.8008L258.063 102.412L258.935 102.445Z" fill="#E98862"/>
<path d="M248.416 101.632C248.599 101.895 248.834 102.098 249.098 102.223C249.363 102.349 249.649 102.392 249.931 102.349C250.534 102.257 250.934 102.556 251.438 102.496C251.861 102.446 251.934 102.209 252.655 102.158C255.44 101.958 257.53 101.745 257.665 97.5146L259.437 95.6089C259.437 95.6089 260.229 107.333 254.992 108.891C251.773 109.848 248.755 109.499 248.367 105.839C248.051 102.865 248.416 101.632 248.416 101.632Z" fill="#0C0C0C"/>
<path d="M249.735 99.1834C249.962 99.1834 250.146 98.9605 250.146 98.6855C250.146 98.4105 249.962 98.1876 249.735 98.1876C249.508 98.1876 249.324 98.4105 249.324 98.6855C249.324 98.9605 249.508 99.1834 249.735 99.1834Z" fill="#0C0C0C"/>
<path d="M253.409 99.0907C253.636 99.0907 253.82 98.8678 253.82 98.5928C253.82 98.3178 253.636 98.0949 253.409 98.0949C253.182 98.0949 252.998 98.3178 252.998 98.5928C252.998 98.8678 253.182 99.0907 253.409 99.0907Z" fill="#0C0C0C"/>
<path d="M257.956 100.448C257.956 100.448 257.704 94.3673 256.189 93.9585C255.179 93.6863 252.697 95.3721 250.429 94.7964C249.437 94.5446 248.487 94.8216 248.382 95.3893C248.341 95.6139 247.556 93.6215 249.152 91.1972C250.423 89.2671 254.555 88.7241 256.393 89.4066C261.484 91.297 259.254 98.2699 259.254 98.2699L258.994 100.359L257.956 100.448Z" fill="#0C0C0C"/>
<path d="M260.269 95.5449C261.767 95.5449 262.982 94.0743 262.982 92.2603C262.982 90.4463 261.767 88.9757 260.269 88.9757C258.771 88.9757 257.556 90.4463 257.556 92.2603C257.556 94.0743 258.771 95.5449 260.269 95.5449Z" fill="#0C0C0C"/>
<g opacity="0.52">
<path d="M251.488 102.301H251.481C251.154 102.289 250.607 102.227 250.614 101.931C250.62 101.685 251.236 99.0565 251.306 98.7573C251.312 98.7316 251.327 98.7098 251.346 98.6968C251.365 98.6838 251.388 98.6806 251.409 98.6879C251.43 98.6952 251.448 98.7124 251.459 98.7358C251.47 98.7592 251.473 98.7867 251.467 98.8124C251.193 99.9767 250.784 101.769 250.78 101.935C250.811 102.006 251.147 102.086 251.486 102.098C251.508 102.098 251.529 102.108 251.545 102.127C251.561 102.146 251.57 102.171 251.57 102.198C251.57 102.225 251.562 102.25 251.546 102.269C251.531 102.289 251.51 102.299 251.488 102.3V102.301Z" fill="#0C0C0C"/>
</g>
<path d="M250.493 96.9938C250.155 96.8727 249.797 96.864 249.455 96.9686C249.287 97.0186 249.126 97.0989 248.978 97.2069C248.831 97.3127 248.696 97.4405 248.576 97.5874C248.555 97.6101 248.542 97.6418 248.541 97.6757C248.539 97.7096 248.549 97.7428 248.567 97.7681C248.586 97.7934 248.612 97.8086 248.64 97.8105C248.668 97.8124 248.696 97.8007 248.717 97.7781L248.723 97.7715C248.835 97.6489 248.96 97.5439 249.094 97.459C249.226 97.3744 249.367 97.3145 249.514 97.2812C249.803 97.2127 250.102 97.238 250.381 97.3545L250.392 97.3592C250.411 97.3685 250.432 97.3729 250.453 97.3721C250.474 97.3714 250.495 97.3657 250.514 97.3551C250.534 97.3446 250.551 97.3296 250.565 97.3109C250.58 97.2921 250.591 97.2702 250.598 97.2462C250.605 97.2222 250.609 97.1967 250.608 97.1712C250.607 97.1457 250.602 97.1206 250.593 97.0975C250.584 97.0744 250.571 97.0537 250.555 97.0367C250.54 97.0196 250.521 97.0065 250.501 96.9981L250.493 96.9938Z" fill="#0C0C0C"/>
<path d="M252.916 97.355C253.184 97.206 253.479 97.1456 253.773 97.1799C253.921 97.1957 254.067 97.2388 254.205 97.3076C254.345 97.3764 254.478 97.4661 254.599 97.5748L254.606 97.5804C254.628 97.5982 254.656 97.6049 254.682 97.5991C254.709 97.5932 254.733 97.5753 254.749 97.5489C254.765 97.5225 254.772 97.4897 254.768 97.4573C254.765 97.4248 254.751 97.3951 254.73 97.3744C254.599 97.2424 254.454 97.131 254.299 97.0429C254.143 96.953 253.976 96.892 253.805 96.8619C253.457 96.7983 253.101 96.8494 252.775 97.0097C252.736 97.0297 252.706 97.0673 252.69 97.1141C252.675 97.161 252.675 97.2134 252.691 97.2601C252.707 97.3068 252.738 97.344 252.776 97.3636C252.815 97.3833 252.858 97.3838 252.897 97.3651L252.904 97.361L252.916 97.355Z" fill="#0C0C0C"/>
<path d="M269.576 127.092C269.343 129.218 269.116 132.139 268.914 135.159C268.121 136.18 267.274 137.136 266.378 138.022C265.808 138.582 265.22 139.115 264.614 139.62C261.335 142.33 257.59 144.102 253.662 144.802C249.734 145.502 245.726 145.112 241.941 143.661C241.89 140.856 241.819 137.072 241.75 133.606C241.669 129.607 241.589 126.027 241.545 124.85C241.366 120.182 240.344 117.066 241.116 114.519C241.347 113.765 241.719 113.086 242.202 112.534C244.002 110.401 248.474 110.449 250.268 110.534C250.299 110.535 249.745 115.547 255.647 115.487C259.984 115.444 260.31 111.005 260.31 111.005C260.31 111.005 262.447 111.274 263.867 111.573C266.188 112.065 267.698 113.096 268.873 114.636C269.969 116.072 270.615 117.596 269.576 127.092Z" fill="#367CFF"/>
<path d="M234.881 111.028L235.06 105.68C235.064 105.562 235.048 105.445 235.012 105.335C234.977 105.225 234.923 105.126 234.854 105.043C234.785 104.96 234.702 104.895 234.611 104.853C234.521 104.811 234.424 104.792 234.326 104.798C234.148 104.816 233.98 104.913 233.857 105.071C233.734 105.229 233.664 105.437 233.661 105.654L233.623 106.801L232.375 103.129C232.242 102.717 231.862 102.315 231.491 102.526C231.344 102.596 231.22 102.724 231.141 102.89C231.062 103.055 231.031 103.248 231.054 103.438C231.05 103.438 231.047 103.439 231.044 103.441C231.041 103.442 231.039 103.444 231.037 103.446L230.832 102.812C230.794 102.695 230.735 102.589 230.659 102.503C230.583 102.416 230.492 102.352 230.393 102.313C230.294 102.275 230.189 102.264 230.085 102.281C229.982 102.298 229.883 102.343 229.796 102.412C229.661 102.524 229.561 102.689 229.515 102.88C229.468 103.07 229.476 103.274 229.539 103.458L229.626 103.728C229.62 103.734 229.616 103.742 229.613 103.75C229.519 103.585 229.38 103.465 229.22 103.412C229.06 103.359 228.89 103.377 228.739 103.463C228.577 103.562 228.452 103.732 228.389 103.938C228.326 104.144 228.329 104.372 228.398 104.575L228.614 105.245C228.606 105.239 228.596 105.234 228.586 105.233C228.575 105.231 228.565 105.233 228.556 105.237C228.544 105.243 228.535 105.253 228.528 105.266C228.411 105.146 228.264 105.076 228.111 105.068C227.958 105.059 227.806 105.111 227.68 105.216C227.549 105.331 227.454 105.495 227.41 105.682C227.366 105.87 227.375 106.07 227.437 106.251L229.263 111.907C229.518 112.698 229.963 113.379 230.54 113.863C231.117 114.346 231.8 114.609 232.502 114.619V114.619C233.107 114.628 233.691 114.351 234.13 113.847C234.569 113.342 234.828 112.651 234.852 111.919L234.881 111.028Z" fill="#E98862"/>
<g opacity="0.2">
<path d="M232.273 107.081C232.258 107.088 232.24 107.088 232.224 107.08C232.209 107.072 232.197 107.057 232.19 107.038L231.008 103.543C231.004 103.533 231.002 103.523 231.002 103.512C231.002 103.501 231.003 103.491 231.006 103.481C231.009 103.471 231.014 103.462 231.02 103.454C231.027 103.447 231.034 103.441 231.042 103.437C231.05 103.433 231.059 103.431 231.068 103.431C231.076 103.431 231.085 103.434 231.093 103.438C231.101 103.442 231.108 103.449 231.114 103.456C231.12 103.464 231.125 103.473 231.128 103.483L232.31 106.978C232.313 106.988 232.315 106.998 232.315 107.008C232.315 107.019 232.313 107.029 232.31 107.038C232.306 107.048 232.301 107.056 232.295 107.064C232.289 107.071 232.282 107.076 232.274 107.08L232.273 107.081Z" fill="#0C0C0C"/>
</g>
<g opacity="0.2">
<path d="M231.015 107.755C230.999 107.762 230.981 107.762 230.966 107.754C230.95 107.746 230.938 107.73 230.931 107.711L229.612 103.811C229.606 103.792 229.606 103.771 229.613 103.752C229.619 103.733 229.632 103.718 229.648 103.71C229.663 103.703 229.681 103.704 229.696 103.712C229.711 103.72 229.724 103.734 229.731 103.753L231.05 107.653C231.056 107.672 231.056 107.694 231.05 107.713C231.043 107.732 231.03 107.747 231.015 107.755V107.755Z" fill="#0C0C0C"/>
</g>
<g opacity="0.2">
<path d="M229.655 108.494C229.639 108.501 229.621 108.501 229.606 108.493C229.59 108.485 229.578 108.469 229.572 108.45L228.519 105.339C228.513 105.32 228.513 105.299 228.519 105.28C228.526 105.26 228.539 105.245 228.554 105.237C228.57 105.23 228.588 105.23 228.604 105.238C228.62 105.246 228.632 105.261 228.639 105.28L229.692 108.39C229.698 108.41 229.698 108.431 229.691 108.45C229.685 108.469 229.672 108.485 229.656 108.492L229.655 108.494Z" fill="#0C0C0C"/>
</g>
<path d="M249.503 119.412L238.753 139.423C238.362 140.15 237.838 140.76 237.222 141.204C236.306 140.592 235.422 139.912 234.575 139.169C232.769 137.592 231.138 135.741 229.72 133.663L227.462 112.466L236.498 110.713L237.529 120.916L241.657 113.232L249.503 119.412Z" fill="#367CFF"/>
<path d="M250.763 103.393C251.749 103.472 252.729 103.151 253.547 102.481C253.576 102.458 253.609 102.445 253.643 102.444C253.678 102.443 253.711 102.453 253.741 102.475C253.77 102.496 253.794 102.527 253.809 102.564C253.824 102.601 253.831 102.643 253.827 102.684C253.761 103.389 253.473 104.686 252.251 104.851C251.462 104.958 250.891 104.224 250.602 103.736C250.583 103.703 250.571 103.663 250.569 103.621C250.567 103.58 250.575 103.539 250.592 103.502C250.609 103.466 250.634 103.437 250.664 103.417C250.695 103.398 250.729 103.389 250.763 103.393V103.393Z" fill="white"/>
<path d="M272.491 129.341C270.902 132.657 268.831 135.598 266.378 138.022C265.808 138.582 265.22 139.115 264.613 139.62L260.415 120.28L269.871 117.269L272.491 129.341Z" fill="#367CFF"/>
<path d="M264.705 139.544C264.675 139.568 264.643 139.595 264.613 139.62C264.584 139.645 264.554 139.67 264.524 139.694L261.324 124.96L261.526 124.897L264.705 139.544Z" fill="#0C0C0C"/>
<path d="M241.775 134.517C241.749 134.515 241.724 134.502 241.706 134.48C241.688 134.458 241.677 134.428 241.675 134.396L241.469 128.906C241.468 128.873 241.478 128.84 241.496 128.815C241.515 128.791 241.541 128.776 241.568 128.775C241.596 128.773 241.623 128.785 241.643 128.807C241.664 128.83 241.676 128.861 241.677 128.895L241.883 134.385C241.884 134.418 241.875 134.451 241.856 134.476C241.838 134.5 241.812 134.515 241.784 134.517H241.775Z" fill="#0C0C0C"/>
<path d="M164.006 185.322C178.724 185.322 190.655 170.876 190.655 153.056C190.655 135.236 178.724 120.79 164.006 120.79C149.288 120.79 137.357 135.236 137.357 153.056C137.357 170.876 149.288 185.322 164.006 185.322Z" fill="white"/>
<path opacity="0.09" d="M190.656 153.055C190.656 159.437 189.093 165.675 186.165 170.981C183.236 176.287 179.074 180.422 174.205 182.864C169.336 185.306 163.977 185.945 158.808 184.7C153.639 183.455 148.89 180.382 145.163 175.87C141.436 171.358 138.898 165.609 137.87 159.35C136.842 153.091 137.369 146.604 139.386 140.708C141.403 134.812 144.819 129.773 149.202 126.228C153.584 122.682 158.736 120.79 164.007 120.79C167.51 120.774 170.981 121.598 174.22 123.214C177.459 124.83 180.402 127.206 182.879 130.205C185.357 133.205 187.319 136.768 188.654 140.689C189.988 144.611 190.669 148.814 190.656 153.055V153.055Z" fill="#367CFF"/>
<path d="M152.21 134.025C152.21 134.025 151.942 138.896 151.036 140.663C148.431 145.75 147.676 151.474 150.285 154.464C152.895 157.455 169.538 157.496 170.798 150.619C171.859 144.829 169.582 144.206 169.028 139.43C168.777 137.269 168.087 132.737 168.087 132.737" fill="#0A0A0A"/>
<path d="M166.491 149.609C166.462 149.605 166.143 156.01 159.998 155.452C155.744 155.066 154.227 149.601 154.129 149.601C154.588 149.483 155.36 149.312 155.564 149.18C156.234 148.744 157.063 148.291 157.279 146.716C157.404 145.809 157.192 141.163 157.258 140.245L163.789 142.01C163.697 143.949 163.059 148.447 165.297 149.243C165.668 149.373 166.07 149.495 166.491 149.609Z" fill="#E98862"/>
<path opacity="0.5" d="M163.879 147.404C163.777 147.005 163.711 146.593 163.682 146.177C163.611 145.226 163.625 144.269 163.725 143.323C162.398 143.106 161.147 142.443 160.116 141.408C159.995 141.951 159.328 144.32 159.513 144.835C159.862 145.809 161.501 147.404 163.879 147.404Z" fill="#0C0C0C"/>
<path d="M163.034 145.409C160.46 145.711 157.128 144.463 156.438 140.312L155.816 136.566C155.126 132.415 156.367 128.611 159.595 127.824C162.824 127.037 165.796 129.814 166.486 133.966L166.762 135.624C167.027 137.217 167.628 144.87 163.034 145.409Z" fill="#E98862"/>
<path opacity="0.1" d="M161.398 139.97C161.821 139.908 162.135 139.554 162.098 139.177C162.061 138.801 161.687 138.546 161.263 138.607C160.84 138.668 160.526 139.023 160.563 139.399C160.6 139.775 160.974 140.031 161.398 139.97Z" fill="#0C0C0C"/>
<path opacity="0.1" d="M165.875 138.464C165.913 138.84 166.286 139.094 166.71 139.035C166.783 139.024 166.855 139.004 166.925 138.976C166.945 138.528 166.946 138.096 166.935 137.697C166.818 137.662 166.695 137.653 166.575 137.672C166.151 137.732 165.838 138.087 165.875 138.464Z" fill="#0C0C0C"/>
<path opacity="0.5" d="M164.003 139.626H164.009C164.14 139.592 164.269 139.55 164.396 139.5C164.585 139.424 164.833 139.297 164.799 139.089C164.76 138.853 163.801 136.431 163.691 136.156C163.681 136.133 163.664 136.116 163.643 136.108C163.623 136.1 163.601 136.102 163.582 136.113C163.563 136.124 163.548 136.144 163.54 136.168C163.533 136.192 163.533 136.219 163.541 136.243C163.95 137.275 164.609 138.97 164.636 139.129C164.615 139.203 164.301 139.348 163.976 139.428C163.956 139.433 163.937 139.448 163.926 139.47C163.914 139.491 163.909 139.517 163.913 139.542C163.916 139.567 163.927 139.59 163.944 139.606C163.961 139.621 163.982 139.629 164.003 139.626V139.626Z" fill="#0C0C0C"/>
<path d="M153.24 137.911L156.134 137.226C158.32 136.118 158.941 131.506 158.941 131.506C158.941 131.506 161.639 134.617 168.087 132.736C168.087 132.736 166.686 121.837 157.165 125.145C154.095 126.212 151.92 130.001 152.243 135.019C152.47 138.537 153.24 137.911 153.24 137.911Z" fill="#0A0A0A"/>
<path d="M156.849 141.528C155.868 141.767 154.861 140.69 154.665 139.502C154.468 138.314 155.154 137.465 156.135 137.226L156.773 137.899L157.693 141.322L156.849 141.528Z" fill="#E98862"/>
<path d="M164.387 134.224C164.632 134.014 164.919 133.886 165.219 133.854C165.369 133.837 165.521 133.847 165.669 133.884C165.818 133.921 165.963 133.98 166.1 134.061L166.104 134.063C166.119 134.07 166.136 134.07 166.151 134.063C166.166 134.056 166.179 134.042 166.185 134.024C166.192 134.006 166.193 133.986 166.188 133.967C166.183 133.948 166.172 133.933 166.158 133.923C166.013 133.831 165.859 133.76 165.699 133.714C165.538 133.667 165.373 133.649 165.207 133.662C164.873 133.684 164.55 133.814 164.271 134.039C164.261 134.048 164.251 134.059 164.244 134.071C164.237 134.084 164.232 134.098 164.229 134.114C164.227 134.129 164.227 134.144 164.229 134.16C164.232 134.175 164.237 134.189 164.244 134.202C164.251 134.215 164.26 134.226 164.271 134.234C164.282 134.242 164.294 134.248 164.306 134.251C164.319 134.253 164.332 134.253 164.344 134.249C164.357 134.246 164.369 134.239 164.379 134.23L164.381 134.228L164.387 134.224Z" fill="#0C0C0C"/>
<path d="M161.743 134.667C161.414 134.588 161.074 134.617 160.758 134.751C160.602 134.816 160.454 134.91 160.321 135.028C160.188 135.145 160.068 135.281 159.963 135.434C159.952 135.449 159.947 135.469 159.948 135.489C159.949 135.509 159.957 135.527 159.969 135.541C159.981 135.554 159.997 135.561 160.013 135.561C160.03 135.56 160.046 135.552 160.057 135.538L160.06 135.534C160.161 135.396 160.276 135.274 160.403 135.171C160.527 135.067 160.664 134.988 160.809 134.934C161.096 134.825 161.401 134.81 161.695 134.891L161.702 134.893C161.714 134.897 161.727 134.897 161.74 134.895C161.752 134.893 161.764 134.888 161.775 134.88C161.786 134.872 161.796 134.862 161.803 134.85C161.811 134.837 161.816 134.823 161.819 134.808C161.822 134.793 161.823 134.778 161.821 134.762C161.819 134.747 161.814 134.733 161.807 134.72C161.801 134.707 161.792 134.695 161.781 134.686C161.771 134.678 161.759 134.671 161.747 134.668L161.743 134.667Z" fill="#0C0C0C"/>
<path d="M156.136 137.169C158.082 136.292 158.727 134.665 158.926 133.455C159.055 132.647 159.043 131.817 158.891 131.015L158.83 131.035C158.98 131.826 158.992 132.646 158.864 133.443C158.668 134.633 158.032 136.234 156.114 137.098L156.136 137.169Z" fill="#0C0C0C"/>
<path d="M180.734 148.334L181.899 143.549C181.924 143.444 181.968 143.346 182.026 143.262C182.084 143.179 182.157 143.111 182.238 143.062C182.319 143.014 182.408 142.987 182.498 142.983C182.589 142.979 182.679 142.997 182.763 143.037C182.917 143.118 183.04 143.264 183.11 143.448C183.179 143.632 183.19 143.841 183.14 144.034L182.89 145.06L184.898 142.27C185.117 141.955 185.551 141.738 185.827 142.058C185.94 142.173 186.017 142.331 186.046 142.506C186.075 142.681 186.055 142.862 185.987 143.021C185.99 143.023 185.993 143.025 185.996 143.027C185.997 143.03 185.999 143.032 186 143.035L186.338 142.549C186.4 142.459 186.479 142.387 186.567 142.339C186.655 142.29 186.752 142.266 186.849 142.268C186.946 142.27 187.041 142.298 187.128 142.351C187.215 142.403 187.291 142.478 187.351 142.571C187.442 142.719 187.489 142.901 187.484 143.086C187.478 143.271 187.42 143.448 187.32 143.587L187.176 143.794C187.179 143.802 187.181 143.81 187.182 143.819C187.305 143.707 187.458 143.652 187.612 143.663C187.767 143.674 187.913 143.752 188.024 143.882C188.143 144.028 188.211 144.223 188.216 144.428C188.221 144.633 188.162 144.833 188.051 144.987L187.694 145.501C187.704 145.498 187.713 145.497 187.723 145.5C187.732 145.502 187.741 145.507 187.748 145.515C187.757 145.524 187.763 145.536 187.765 145.55C187.899 145.487 188.045 145.479 188.183 145.527C188.32 145.575 188.441 145.676 188.526 145.815C188.613 145.963 188.657 146.143 188.649 146.324C188.642 146.506 188.584 146.679 188.485 146.816L185.476 151.148C185.055 151.754 184.494 152.193 183.865 152.411C183.237 152.628 182.569 152.613 181.947 152.368V152.368C181.411 152.157 180.964 151.701 180.701 151.097C180.439 150.493 180.381 149.788 180.54 149.134L180.734 148.334Z" fill="#E98862"/>
<g opacity="0.2">
<path d="M184.01 145.796C184.022 145.807 184.038 145.813 184.053 145.812C184.069 145.81 184.083 145.801 184.094 145.787L186 143.131C186.011 143.117 186.016 143.097 186.015 143.078C186.014 143.059 186.006 143.041 185.994 143.028C185.982 143.016 185.966 143.009 185.95 143.011C185.935 143.012 185.92 143.021 185.909 143.036L184.003 145.692C183.997 145.699 183.994 145.707 183.991 145.716C183.989 145.725 183.988 145.735 183.988 145.745C183.989 145.754 183.991 145.763 183.994 145.772C183.998 145.781 184.003 145.788 184.009 145.794L184.01 145.796Z" fill="#0C0C0C"/>
</g>
<g opacity="0.2">
<path d="M184.955 146.846C184.967 146.858 184.982 146.864 184.998 146.862C185.013 146.861 185.028 146.852 185.038 146.838L187.166 143.873C187.171 143.866 187.175 143.858 187.177 143.849C187.18 143.84 187.181 143.83 187.18 143.82C187.18 143.811 187.178 143.802 187.174 143.793C187.17 143.784 187.166 143.777 187.16 143.771C187.147 143.759 187.132 143.753 187.116 143.754C187.1 143.755 187.086 143.764 187.075 143.778L184.948 146.742C184.943 146.749 184.939 146.758 184.937 146.767C184.934 146.776 184.933 146.785 184.934 146.795C184.934 146.805 184.937 146.814 184.94 146.822C184.944 146.831 184.949 146.839 184.954 146.845L184.955 146.846Z" fill="#0C0C0C"/>
</g>
<g opacity="0.2">
<path d="M185.972 147.991C185.984 148.003 186 148.009 186.015 148.007C186.031 148.005 186.045 147.997 186.055 147.982L187.753 145.618C187.762 145.603 187.767 145.585 187.765 145.566C187.764 145.548 187.756 145.53 187.745 145.518C187.733 145.506 187.718 145.5 187.703 145.5C187.687 145.501 187.673 145.509 187.662 145.522L185.964 147.887C185.959 147.894 185.955 147.903 185.953 147.912C185.95 147.921 185.949 147.93 185.95 147.94C185.95 147.949 185.953 147.959 185.956 147.967C185.96 147.976 185.965 147.984 185.97 147.99L185.972 147.991Z" fill="#0C0C0C"/>
</g>
<path d="M187.823 150.423L183.32 175.159C183.309 175.215 183.299 175.273 183.286 175.328C182.275 176.609 181.179 177.789 180.01 178.856C179.775 179.068 179.54 179.277 179.299 179.479C179.149 179.499 178.999 179.509 178.849 179.509C178.047 179.508 177.258 179.253 176.563 178.767C175.868 178.281 175.291 177.582 174.889 176.741L166.306 158.76L174.231 153.217L176.917 158.844L178.885 148.037L187.823 150.423Z" fill="#0CBC8B"/>
<path d="M173.963 161.7C173.936 162.093 173.882 162.793 173.807 163.715C173.433 168.427 172.557 178.929 172.151 183.783C167.027 185.766 161.528 185.834 156.372 183.977H156.37C152.562 182.596 149.057 180.201 146.115 176.965C146.131 172.626 146.079 167.745 145.838 164.607C145.116 155.23 145.798 153.762 146.92 152.405C147.011 152.294 147.107 152.186 147.203 152.08C148.361 150.805 149.815 149.974 151.935 149.627C153.337 149.398 155.446 149.231 155.446 149.231C155.446 149.231 155.625 153.608 159.883 153.85C165.68 154.18 165.293 149.231 165.322 149.231C166.781 149.231 170.026 149.342 172.072 150.604C172.074 150.604 172.074 150.604 172.077 150.607C172.489 150.849 172.864 151.176 173.185 151.571C175.53 154.578 174.373 155.864 173.963 161.7Z" fill="#0CBC8B"/>
<path d="M164.866 140.444C164.029 140.959 163.075 141.122 162.153 140.907C162.121 140.899 162.088 140.903 162.058 140.918C162.028 140.932 162.002 140.957 161.983 140.989C161.964 141.021 161.953 141.059 161.951 141.098C161.949 141.137 161.956 141.176 161.972 141.211C162.247 141.797 162.898 142.799 164.016 142.39C164.738 142.127 165.011 141.228 165.112 140.671C165.119 140.633 165.117 140.593 165.106 140.556C165.094 140.519 165.075 140.486 165.049 140.462C165.023 140.439 164.992 140.424 164.96 140.421C164.927 140.418 164.895 140.426 164.866 140.444Z" fill="white"/>
<path d="M164.918 135.939C165.141 135.939 165.322 135.72 165.322 135.45C165.322 135.18 165.141 134.961 164.918 134.961C164.695 134.961 164.514 135.18 164.514 135.45C164.514 135.72 164.695 135.939 164.918 135.939Z" fill="#0C0C0C"/>
<path d="M161.034 136.763C161.257 136.763 161.438 136.543 161.438 136.273C161.438 136.003 161.257 135.784 161.034 135.784C160.811 135.784 160.63 136.003 160.63 136.273C160.63 136.543 160.811 136.763 161.034 136.763Z" fill="#0C0C0C"/>
<path d="M173.069 172.264C173.067 172.265 173.064 172.265 173.061 172.264C173.045 172.262 173.03 172.251 173.02 172.235C173.01 172.219 173.006 172.199 173.008 172.179L173.723 163.463C173.724 163.453 173.726 163.443 173.73 163.435C173.734 163.426 173.74 163.418 173.747 163.412C173.753 163.406 173.761 163.402 173.769 163.4C173.777 163.397 173.785 163.397 173.793 163.398C173.81 163.401 173.824 163.412 173.834 163.428C173.844 163.444 173.849 163.464 173.846 163.484L173.132 172.2C173.13 172.218 173.122 172.234 173.111 172.246C173.099 172.258 173.084 172.265 173.069 172.264V172.264Z" fill="#0C0C0C"/>
<path d="M168.745 171.844L172.65 169.733C172.736 169.687 172.828 169.662 172.922 169.662C173.016 169.662 173.109 169.685 173.195 169.73C173.281 169.776 173.359 169.842 173.422 169.925C173.486 170.009 173.535 170.108 173.565 170.215C173.617 170.416 173.605 170.632 173.532 170.823C173.459 171.013 173.33 171.164 173.17 171.246L172.332 171.7L175.506 171.739C175.86 171.736 176.293 172.006 176.27 172.485C176.271 172.67 176.22 172.851 176.126 172.996C176.031 173.142 175.899 173.245 175.75 173.288C175.751 173.292 175.752 173.296 175.752 173.3C175.751 173.303 175.751 173.306 175.75 173.309L176.294 173.304C176.395 173.304 176.495 173.33 176.586 173.382C176.677 173.433 176.757 173.509 176.821 173.603C176.885 173.697 176.931 173.807 176.956 173.926C176.98 174.044 176.983 174.167 176.963 174.287C176.928 174.474 176.841 174.641 176.716 174.761C176.592 174.88 176.437 174.944 176.279 174.941L176.047 174.943C176.044 174.952 176.04 174.959 176.035 174.965C176.191 175.008 176.33 175.117 176.427 175.272C176.524 175.427 176.571 175.619 176.562 175.813C176.546 176.025 176.465 176.222 176.335 176.365C176.205 176.508 176.035 176.586 175.859 176.584L175.284 176.589C175.292 176.596 175.299 176.605 175.303 176.615C175.308 176.626 175.31 176.638 175.311 176.65C175.31 176.664 175.306 176.678 175.3 176.69C175.431 176.775 175.535 176.91 175.596 177.073C175.658 177.237 175.673 177.421 175.64 177.596C175.602 177.78 175.515 177.942 175.391 178.057C175.268 178.173 175.116 178.234 174.96 178.232L170.107 178.274C169.428 178.28 168.763 178.04 168.198 177.585C167.632 177.131 167.191 176.482 166.932 175.722V175.722C166.709 175.067 166.705 174.332 166.922 173.674C167.139 173.015 167.559 172.485 168.094 172.196L168.745 171.844Z" fill="#E98862"/>
<g opacity="0.2">
<path d="M172.609 173.267C172.609 173.287 172.615 173.306 172.627 173.32C172.639 173.334 172.655 173.342 172.671 173.342L175.689 173.375C175.706 173.376 175.722 173.368 175.733 173.354C175.745 173.34 175.752 173.321 175.752 173.301C175.752 173.28 175.746 173.261 175.734 173.247C175.723 173.233 175.707 173.225 175.69 173.224L172.672 173.191C172.655 173.191 172.639 173.199 172.628 173.213C172.616 173.228 172.61 173.247 172.61 173.267H172.609Z" fill="#0C0C0C"/>
</g>
<g opacity="0.2">
<path d="M172.56 174.879C172.56 174.899 172.567 174.918 172.579 174.932C172.59 174.946 172.606 174.954 172.623 174.954L175.99 174.991C176.007 174.991 176.023 174.983 176.034 174.969C176.046 174.955 176.053 174.936 176.053 174.916C176.052 174.896 176.046 174.877 176.034 174.863C176.022 174.849 176.007 174.841 175.99 174.84L172.622 174.803C172.606 174.803 172.59 174.811 172.578 174.825C172.567 174.84 172.56 174.859 172.56 174.879H172.56Z" fill="#0C0C0C"/>
</g>
<g opacity="0.2">
<path d="M172.499 176.622C172.499 176.642 172.506 176.662 172.517 176.676C172.529 176.69 172.545 176.698 172.561 176.698L175.248 176.727C175.264 176.727 175.28 176.719 175.292 176.705C175.304 176.691 175.31 176.672 175.31 176.652C175.31 176.632 175.304 176.612 175.292 176.598C175.28 176.584 175.264 176.576 175.248 176.576L172.561 176.547C172.545 176.547 172.529 176.555 172.517 176.569C172.506 176.583 172.499 176.602 172.499 176.623V176.622Z" fill="#0C0C0C"/>
</g>
<path d="M169.863 180.264L156.372 183.977H156.369C152.561 182.596 149.057 180.201 146.115 176.965C145.798 176.618 145.489 176.261 145.187 175.897C144.66 175.26 144.156 174.598 143.675 173.91L145.563 155.515C145.769 154.032 146.453 152.709 147.465 151.837C148.477 150.965 149.733 150.615 150.958 150.865C152.183 151.114 153.276 151.942 153.996 153.167C154.716 154.392 155.005 155.914 154.799 157.396L153.605 174.668L168.648 170.545L169.863 180.264Z" fill="#0CBC8B"/>
<path d="M150.562 175.347C150.554 175.347 150.546 175.346 150.538 175.343C150.53 175.34 150.523 175.335 150.517 175.329C150.51 175.322 150.505 175.314 150.502 175.305C150.498 175.296 150.496 175.287 150.495 175.277C150.494 175.267 150.495 175.257 150.498 175.247C150.501 175.238 150.505 175.229 150.51 175.222C150.515 175.214 150.522 175.208 150.529 175.203C150.537 175.199 150.545 175.196 150.553 175.196L153.569 174.415C153.577 174.413 153.585 174.414 153.593 174.416C153.601 174.419 153.609 174.423 153.615 174.429C153.622 174.435 153.628 174.442 153.632 174.45C153.636 174.459 153.639 174.468 153.64 174.478C153.641 174.488 153.641 174.498 153.639 174.508C153.637 174.517 153.633 174.526 153.628 174.534C153.624 174.542 153.617 174.549 153.61 174.554C153.603 174.559 153.596 174.563 153.587 174.564L150.57 175.345C150.568 175.346 150.565 175.346 150.562 175.347V175.347Z" fill="#0C0C0C"/>
<path d="M169.863 180.264C169.866 180.284 169.864 180.304 169.855 180.321C169.847 180.337 169.833 180.35 169.817 180.355L156.711 184.095C156.627 184.067 156.546 184.039 156.465 184.009L169.726 180.229L168.544 170.659L153.59 174.565C153.581 174.567 153.571 174.566 153.561 174.562C153.552 174.559 153.543 174.553 153.536 174.545C153.53 174.536 153.525 174.525 153.523 174.514C153.52 174.503 153.519 174.491 153.52 174.479L154.358 164.609C154.359 164.6 154.362 164.59 154.367 164.582C154.371 164.573 154.377 164.566 154.384 164.561C154.391 164.555 154.398 164.551 154.406 164.549C154.414 164.547 154.423 164.547 154.431 164.549C154.447 164.552 154.462 164.562 154.471 164.579C154.481 164.595 154.485 164.615 154.483 164.634L153.657 174.404L168.571 170.49C168.579 170.487 168.588 170.487 168.596 170.488C168.604 170.49 168.612 170.494 168.619 170.5C168.626 170.505 168.633 170.511 168.638 170.519C168.643 170.527 168.646 170.536 168.648 170.545L169.863 180.264Z" fill="#0C0C0C"/>
<path d="M68.4359 222.498C81.9315 222.498 92.8718 209.252 92.8718 192.912C92.8718 176.572 81.9315 163.326 68.4359 163.326C54.9403 163.326 44 176.572 44 192.912C44 209.252 54.9403 222.498 68.4359 222.498Z" fill="white"/>
<path opacity="0.09" d="M68.4359 222.498C81.9315 222.498 92.8718 209.252 92.8718 192.912C92.8718 176.572 81.9315 163.326 68.4359 163.326C54.9403 163.326 44 176.572 44 192.912C44 209.252 54.9403 222.498 68.4359 222.498Z" fill="#367CFF"/>
<path d="M61.7065 176.131C61.7065 176.131 61.9713 185.042 66.8835 185.451L67.7156 173.701L61.7065 176.131Z" fill="#0A0A0A"/>
<path d="M62.6528 187.271C64.2599 187.271 65.5628 185.694 65.5628 183.748C65.5628 181.802 64.2599 180.224 62.6528 180.224C61.0456 180.224 59.7427 181.802 59.7427 183.748C59.7427 185.694 61.0456 187.271 62.6528 187.271Z" fill="#0A0A0A"/>
<path d="M74.0389 189.587C74.0129 189.582 73.7255 195.36 68.1815 194.857C64.3435 194.509 62.9752 189.579 62.8875 189.579C63.326 189.491 63.7587 189.364 64.1819 189.199C64.7862 188.806 65.534 188.397 65.7287 186.976C65.841 186.157 65.6507 181.967 65.7091 181.138L71.6004 182.731C71.5172 184.48 70.9419 188.538 72.9612 189.256C73.297 189.374 73.6589 189.484 74.0389 189.587Z" fill="#E98862"/>
<path opacity="0.5" d="M71.6828 187.597C71.5905 187.237 71.531 186.865 71.5056 186.489C71.4409 185.632 71.4538 184.768 71.5441 183.914C70.3467 183.719 69.2186 183.12 68.2881 182.187C68.1786 182.676 67.5771 184.814 67.7437 185.278C68.0586 186.159 69.5382 187.597 71.6828 187.597Z" fill="#0C0C0C"/>
<path d="M70.7598 186.04C68.4265 186.076 65.5096 184.651 65.1481 180.856L64.8219 177.431C64.4602 173.636 65.8133 170.329 68.7645 169.918C71.7156 169.505 74.2144 172.274 74.5762 176.069L74.7205 177.585C74.8593 179.041 74.9229 185.976 70.7598 186.04Z" fill="#E98862"/>
<path d="M73.8747 177.483C74.0768 177.483 74.2406 177.284 74.2406 177.04C74.2406 176.795 74.0768 176.597 73.8747 176.597C73.6726 176.597 73.5088 176.795 73.5088 177.04C73.5088 177.284 73.6726 177.483 73.8747 177.483Z" fill="#0C0C0C"/>
<path d="M70.1349 178.001C70.337 178.001 70.5008 177.802 70.5008 177.558C70.5008 177.313 70.337 177.115 70.1349 177.115C69.9329 177.115 69.769 177.313 69.769 177.558C69.769 177.802 69.9329 178.001 70.1349 178.001Z" fill="#0C0C0C"/>
<path opacity="0.5" d="M71.9906 180.93H71.9965C72.116 180.913 72.2347 180.887 72.352 180.853C72.5271 180.802 72.758 180.711 72.7399 180.521C72.7191 180.305 72.0079 178.04 71.9268 177.783C71.9233 177.772 71.918 177.761 71.9112 177.753C71.9045 177.744 71.8964 177.737 71.8874 177.732C71.8784 177.727 71.8687 177.725 71.8589 177.724C71.849 177.724 71.8393 177.726 71.8301 177.73C71.8209 177.735 71.8125 177.741 71.8053 177.749C71.7982 177.757 71.7924 177.767 71.7884 177.778C71.7844 177.789 71.7822 177.801 71.7819 177.813C71.7816 177.825 71.7833 177.836 71.7868 177.847C72.0903 178.812 72.5772 180.396 72.591 180.542C72.4037 180.67 72.1939 180.741 71.9792 180.75C71.9594 180.752 71.941 180.763 71.9281 180.782C71.9151 180.8 71.9087 180.824 71.9102 180.848C71.9118 180.872 71.9211 180.894 71.9362 180.91C71.9512 180.925 71.9708 180.933 71.9906 180.931V180.93Z" fill="#0C0C0C"/>
<path opacity="0.5" d="M71.4633 182.51C71.9426 182.477 72.4088 182.308 72.8243 182.016C72.8407 182.004 72.8525 181.985 72.8573 181.962C72.8622 181.939 72.8597 181.915 72.8504 181.895C72.8411 181.875 72.8256 181.859 72.8073 181.852C72.7889 181.845 72.769 181.847 72.7517 181.857C71.8543 182.459 70.9961 182.493 70.2701 181.958C70.2555 181.947 70.2403 181.936 70.2248 181.927C70.2068 181.918 70.1868 181.919 70.1689 181.928C70.1511 181.936 70.1368 181.953 70.1289 181.975C70.1211 181.996 70.1203 182.02 70.1268 182.042C70.1333 182.064 70.1466 182.082 70.1638 182.093C70.1694 182.096 70.179 182.103 70.1921 182.113C70.5738 182.396 71.0164 182.534 71.4633 182.51V182.51Z" fill="#0C0C0C"/>
<path d="M62.4225 178.405L65.067 178.054C67.1011 177.258 67.9463 173.168 67.9463 173.168C67.9463 173.168 69.7691 175.678 75.1707 174.532C75.1707 174.532 74.9615 166.1 66.7463 167.287C63.8859 167.701 61.729 171.174 61.7068 175.715C61.6914 178.897 62.4225 178.405 62.4225 178.405Z" fill="#0A0A0A"/>
<path d="M65.4415 181.987C64.5446 182.113 63.7069 181.052 63.6036 179.966C63.5002 178.88 64.17 178.18 65.0669 178.055L65.5984 178.717L66.2126 181.879L65.4415 181.987Z" fill="#E98862"/>
<path d="M72.5807 175.934C72.8452 175.757 73.1442 175.669 73.4464 175.68C73.5956 175.684 73.7435 175.715 73.8851 175.772C74.0258 175.828 74.16 175.905 74.2847 176.002C74.2972 176.012 74.3061 176.027 74.3097 176.044C74.3132 176.061 74.311 176.08 74.3037 176.095C74.2963 176.111 74.2843 176.122 74.2701 176.127C74.2559 176.132 74.2406 176.131 74.2275 176.122L74.2238 176.12C74.1056 176.035 73.9791 175.968 73.8473 175.922C73.7166 175.874 73.5809 175.851 73.4445 175.853C73.1733 175.855 72.9073 175.944 72.6734 176.11L72.6678 176.114C72.6582 176.122 72.6473 176.127 72.636 176.13C72.6246 176.132 72.6129 176.132 72.6016 176.129C72.5903 176.126 72.5797 176.12 72.5703 176.112C72.5609 176.104 72.553 176.093 72.547 176.081C72.541 176.069 72.537 176.056 72.5353 176.042C72.5337 176.028 72.5343 176.014 72.5372 176.001C72.5402 175.987 72.5453 175.974 72.5524 175.963C72.5595 175.952 72.5683 175.943 72.5784 175.936L72.5807 175.934Z" fill="#0C0C0C"/>
<path d="M70.2106 176.462C69.952 176.363 69.6763 176.349 69.4116 176.421C69.2783 176.456 69.1502 176.515 69.0316 176.597C68.9117 176.678 68.8007 176.777 68.7013 176.892L68.6981 176.896C68.6868 176.906 68.6728 176.91 68.6588 176.909C68.6448 176.907 68.6317 176.9 68.6221 176.887C68.6125 176.875 68.6069 176.858 68.6066 176.841C68.6062 176.824 68.611 176.808 68.6201 176.795C68.7238 176.667 68.8404 176.555 68.9671 176.463C69.0946 176.369 69.233 176.298 69.3777 176.254C69.6704 176.162 69.9781 176.167 70.2686 176.268C70.2798 176.272 70.2904 176.278 70.2996 176.286C70.3088 176.295 70.3165 176.306 70.3222 176.318C70.3279 176.33 70.3315 176.343 70.3329 176.357C70.3342 176.371 70.3331 176.385 70.3298 176.399C70.3265 176.412 70.321 176.425 70.3136 176.436C70.3062 176.446 70.2971 176.455 70.2868 176.462C70.2765 176.468 70.2652 176.472 70.2537 176.473C70.2421 176.474 70.2305 176.472 70.2195 176.468H70.2172L70.2106 176.462Z" fill="#0C0C0C"/>
<path opacity="0.52" d="M71.5133 183.368C71.6001 183.363 71.6864 183.35 71.7713 183.328C71.7901 183.323 71.8065 183.308 71.8168 183.288C71.8271 183.268 71.8307 183.244 71.8266 183.221C71.8226 183.198 71.8114 183.178 71.7953 183.165C71.7792 183.151 71.7594 183.146 71.7403 183.15C71.6077 183.197 71.4684 183.21 71.3316 183.186C71.1949 183.163 71.0639 183.104 70.9473 183.014C70.9319 182.999 70.9122 182.992 70.8924 182.994C70.8726 182.997 70.8544 183.008 70.8419 183.027C70.8293 183.046 70.8233 183.07 70.8253 183.094C70.8273 183.117 70.8371 183.139 70.8525 183.155C71.0458 183.316 71.2793 183.391 71.5133 183.368V183.368Z" fill="#0C0C0C"/>
<path opacity="0.1" d="M69.6281 181.001C70.0129 180.984 70.3168 180.694 70.3069 180.352C70.297 180.011 69.9771 179.747 69.5924 179.763C69.2076 179.78 68.9038 180.07 68.9136 180.411C68.9235 180.753 69.2434 181.017 69.6281 181.001Z" fill="#0C0C0C"/>
<path opacity="0.1" d="M73.7455 180.058C73.7564 180.399 74.0761 180.662 74.4609 180.647C74.5274 180.644 74.5935 180.632 74.6581 180.613C74.7036 180.212 74.7315 179.825 74.7467 179.465C74.6431 179.422 74.5338 179.403 74.4245 179.409C74.0405 179.425 73.7368 179.714 73.7455 180.058Z" fill="#0C0C0C"/>
<path d="M82.3187 195.672C82.302 197.69 81.73 200.095 81.5261 203.001C81.4721 203.777 80.0969 206.021 79.8972 208.517C79.6455 211.695 80.2053 216.651 80.2802 218.795C76.4149 221.384 72.0426 222.658 67.6275 222.481C63.2124 222.303 58.9194 220.681 55.2044 217.787C55.1046 212.282 54.986 205.484 54.8342 203.855C54.3412 198.476 54.4743 195.073 55.1857 193.481C56.3485 190.882 58.4182 190.089 60.5836 189.731C61.9065 189.515 63.893 189.361 63.893 189.361C63.893 189.361 64.0615 193.484 68.0761 193.713C73.5406 194.025 73.1766 189.361 73.2036 189.361C75.186 189.361 78.9426 189.935 80.3821 191.124C81.9089 192.381 82.3374 193.872 82.3187 195.672Z" fill="#FFC239"/>
<path d="M63.4398 198.81L56.0262 218.398C53.1798 216.364 50.7032 213.652 48.7458 210.427L54.93 194.087L63.4398 198.81Z" fill="#FFC239"/>
<path d="M88.3074 210.131C86.8551 212.584 85.1022 214.755 83.1092 216.568C82.4533 217.168 81.7722 217.726 81.0686 218.241L73.4596 197.987L81.9797 193.292L88.3074 210.131Z" fill="#FFC239"/>
<path d="M119.291 106.607C133.342 106.607 144.733 92.8157 144.733 75.8034C144.733 58.7912 133.342 45 119.291 45C105.24 45 93.8494 58.7912 93.8494 75.8034C93.8494 92.8157 105.24 106.607 119.291 106.607Z" fill="white"/>
<path opacity="0.09" d="M119.291 106.607C133.342 106.607 144.733 92.8157 144.733 75.8034C144.733 58.7912 133.342 45 119.291 45C105.24 45 93.8494 58.7912 93.8494 75.8034C93.8494 92.8157 105.24 106.607 119.291 106.607Z" fill="#367CFF"/>
<path d="M124.21 57.3578C124.21 57.3578 125.821 55.2437 125.697 51.2172C125.6 48.0995 123.579 50.576 123.579 50.576C123.579 50.576 123.492 48.332 122.207 48.8382C120.921 49.3444 120.526 51.8085 120.526 51.8085" fill="#0C0C0C"/>
<path d="M115.428 50.5885C115.428 50.5885 109.012 52.8715 112.982 63.0881L113.568 63.008L114.758 62.8458" fill="#0C0C0C"/>
<path d="M124.521 73.6857C124.492 73.6811 124.167 80.1985 117.914 79.6293C113.585 79.2367 112.041 73.6756 111.942 73.6756C112.409 73.5555 112.985 73.3734 113.215 73.3107C113.714 73.1703 114.167 72.849 114.512 72.3896C114.857 71.9302 115.079 71.3545 115.147 70.739C115.274 69.8152 115.059 65.089 115.125 64.1544L121.77 65.9501C121.677 67.9244 121.027 72.5007 123.305 73.3107C123.684 73.4449 124.093 73.5683 124.521 73.6857Z" fill="#E98862"/>
<path opacity="0.52" d="M121.864 71.4407C121.76 71.0345 121.693 70.6158 121.664 70.192C121.591 69.2249 121.605 68.251 121.707 67.2877C120.356 67.0669 119.084 66.3919 118.034 65.3394C117.911 65.8912 117.232 68.3021 117.42 68.8265C117.776 69.8177 119.444 71.4407 121.864 71.4407Z" fill="#0C0C0C"/>
<path d="M120.779 69.3657C118.158 69.651 114.774 68.3543 114.096 64.1242L113.484 60.3074C112.806 56.0763 114.091 52.2168 117.38 51.4436C120.67 50.6701 123.678 53.5213 124.357 57.7514L124.627 59.4411C124.712 60.0231 124.764 60.6116 124.782 61.2022C124.841 62.7637 124.925 65.1369 124.305 66.8913C123.721 68.5479 122.454 69.1836 120.779 69.3657Z" fill="#E98862"/>
<path opacity="0.5" d="M121.175 65.1837C121.655 65.1728 122.126 65.0254 122.551 64.7536C122.56 64.7485 122.568 64.7412 122.575 64.7322C122.582 64.7232 122.587 64.7125 122.59 64.701C122.594 64.6894 122.595 64.6772 122.595 64.6649C122.594 64.6527 122.591 64.6407 122.587 64.6298C122.582 64.6188 122.576 64.6091 122.568 64.6012C122.56 64.5933 122.551 64.5874 122.542 64.5838C122.532 64.5802 122.522 64.579 122.512 64.5803C122.502 64.5816 122.492 64.5854 122.483 64.5914C121.568 65.1507 120.709 65.1454 120 64.5778C119.986 64.5658 119.971 64.5547 119.956 64.5445C119.947 64.5393 119.937 64.5362 119.928 64.5354C119.918 64.5346 119.908 64.5362 119.899 64.5401C119.889 64.5439 119.881 64.55 119.873 64.5578C119.866 64.5657 119.86 64.5753 119.855 64.586C119.851 64.5967 119.849 64.6083 119.848 64.6202C119.847 64.6321 119.849 64.644 119.852 64.6553C119.855 64.6666 119.86 64.677 119.866 64.6859C119.873 64.6949 119.881 64.7022 119.89 64.7075C119.895 64.7113 119.904 64.7188 119.917 64.7291C120.29 65.0289 120.728 65.1871 121.175 65.1837V65.1837Z" fill="#0C0C0C"/>
<path opacity="0.52" d="M121.198 66.0443C121.285 66.044 121.372 66.0347 121.457 66.0166C121.467 66.0146 121.476 66.0103 121.484 66.004C121.493 65.9976 121.5 65.9893 121.506 65.9796C121.511 65.9699 121.515 65.9589 121.518 65.9473C121.52 65.9357 121.52 65.9237 121.518 65.9119C121.517 65.9002 121.513 65.889 121.508 65.8789C121.503 65.8688 121.496 65.8601 121.488 65.8532C121.48 65.8463 121.471 65.8414 121.461 65.8387C121.452 65.8361 121.442 65.8358 121.432 65.8378C121.298 65.8784 121.158 65.884 121.022 65.8542C120.887 65.8244 120.757 65.7599 120.644 65.665C120.629 65.6497 120.609 65.6421 120.59 65.6438C120.57 65.6456 120.552 65.6565 120.539 65.6743C120.526 65.6921 120.52 65.7153 120.521 65.739C120.522 65.7627 120.53 65.785 120.545 65.801C120.733 65.9712 120.964 66.0571 121.198 66.0443V66.0443Z" fill="#0C0C0C"/>
<path d="M123.569 60.5069C123.797 60.5069 123.982 60.2832 123.982 60.0072C123.982 59.7312 123.797 59.5075 123.569 59.5075C123.342 59.5075 123.157 59.7312 123.157 60.0072C123.157 60.2832 123.342 60.5069 123.569 60.5069Z" fill="#0C0C0C"/>
<path d="M119.557 61.0748C119.785 61.0748 119.969 60.8511 119.969 60.5751C119.969 60.2992 119.785 60.0755 119.557 60.0755C119.329 60.0755 119.144 60.2992 119.144 60.5751C119.144 60.8511 119.329 61.0748 119.557 61.0748Z" fill="#0C0C0C"/>
<path d="M114.507 65.3648C113.507 65.5998 112.489 64.4954 112.295 63.285C112.101 62.0746 112.804 61.2168 113.804 60.9818L114.449 61.6717L115.366 65.1628L114.507 65.3648Z" fill="#E98862"/>
<path d="M115.212 63.1969C115.212 63.1969 114.654 57.1235 116.101 56.4239C117.065 55.9577 119.748 57.1444 121.919 56.133C122.868 55.6903 123.846 55.7804 124.024 56.3222C124.095 56.5365 124.23 53.2022 122.327 51.1111C120.812 49.4464 116.718 49.7796 114.987 50.8137C110.195 53.677 113.637 61.2906 113.637 61.2906L114.172 63.3095L115.212 63.1969Z" fill="#0C0C0C"/>
<g opacity="0.52">
<path d="M121.79 63.6797H121.797C122.119 63.6041 122.653 63.4361 122.608 63.1443C122.57 62.9022 121.61 60.418 121.501 60.1357C121.496 60.1236 121.489 60.1128 121.481 60.1039C121.473 60.0949 121.464 60.088 121.453 60.0835C121.443 60.079 121.432 60.077 121.421 60.0776C121.41 60.0782 121.399 60.0814 121.389 60.0871C121.38 60.0927 121.371 60.1006 121.363 60.1105C121.356 60.1203 121.35 60.1317 121.346 60.1442C121.343 60.1567 121.341 60.17 121.342 60.1832C121.342 60.1965 121.345 60.2095 121.349 60.2215C121.775 61.3216 122.418 63.0171 122.444 63.182C122.423 63.2576 122.1 63.4034 121.767 63.4807C121.745 63.4847 121.725 63.4991 121.711 63.5208C121.698 63.5425 121.692 63.5697 121.696 63.5964C121.699 63.6232 121.711 63.6472 121.729 63.6633C121.747 63.6794 121.769 63.6862 121.791 63.6822L121.79 63.6797Z" fill="#0C0C0C"/>
</g>
<path d="M122.018 57.5925C122.341 57.4053 122.699 57.3269 123.055 57.3658C123.23 57.3836 123.402 57.433 123.564 57.5124C123.725 57.5897 123.877 57.6913 124.017 57.8146C124.043 57.8363 124.06 57.8694 124.067 57.9068C124.073 57.9442 124.067 57.983 124.05 58.0152C124.033 58.0473 124.006 58.0702 123.976 58.0791C123.945 58.088 123.913 58.0821 123.886 58.0627L123.876 58.0587C123.75 57.9608 123.613 57.8825 123.471 57.8257C123.33 57.769 123.184 57.7383 123.036 57.7348C122.744 57.7249 122.455 57.8086 122.199 57.9773L122.188 57.9846C122.168 57.999 122.145 58.0083 122.121 58.012C122.097 58.0157 122.073 58.0136 122.05 58.0059C122.026 57.9983 122.005 57.9852 121.986 57.9674C121.967 57.9496 121.951 57.9274 121.939 57.9021C121.927 57.8769 121.919 57.849 121.916 57.8202C121.913 57.7913 121.915 57.7621 121.921 57.734C121.928 57.706 121.938 57.6797 121.953 57.6567C121.968 57.6337 121.986 57.6145 122.007 57.6L122.018 57.5925Z" fill="#0C0C0C"/>
<path d="M119.652 58.3666C119.371 58.2715 119.075 58.2677 118.792 58.3558C118.649 58.3991 118.511 58.4684 118.385 58.5616C118.256 58.6553 118.137 58.7683 118.031 58.8978L118.025 58.9059C118.002 58.9326 117.971 58.9475 117.94 58.9473C117.908 58.9472 117.877 58.9321 117.855 58.9052C117.832 58.8783 117.819 58.8417 117.818 58.8033C117.818 58.7649 117.829 58.7277 117.851 58.6996C117.964 58.5414 118.094 58.4012 118.236 58.2823C118.38 58.161 118.538 58.0665 118.705 58.002C118.872 57.9353 119.046 57.8966 119.222 57.8871C119.402 57.8751 119.583 57.8941 119.758 57.9435C119.805 57.9569 119.846 57.9924 119.872 58.0423C119.897 58.0922 119.906 58.1523 119.895 58.2095C119.884 58.2667 119.854 58.3162 119.813 58.3472C119.772 58.3782 119.722 58.3881 119.675 58.3747L119.664 58.3712L119.652 58.3666Z" fill="#0C0C0C"/>
<path d="M120.918 53.5688C121.631 53.2186 121.865 51.9039 121.439 50.6322C121.013 49.3605 120.09 48.6134 119.376 48.9636C118.663 49.3137 118.429 50.6284 118.855 51.9001C119.281 53.1718 120.204 53.9189 120.918 53.5688Z" fill="#0C0C0C"/>
<path d="M133.164 80.4204C133.189 82.5082 132.515 84.8554 132.29 88.0338C132.245 88.6785 132.136 90.0989 131.993 91.95C131.758 95.015 131.425 99.2537 131.134 103.074C126.969 105.721 122.281 106.92 117.588 106.538C112.895 106.157 108.381 104.21 104.546 100.913C104.454 100.83 104.363 100.75 104.271 100.672C104.028 96.3524 103.741 91.8191 103.479 88.9556C102.986 83.6088 102.314 80.9467 102.69 79.1485C102.72 78.9954 102.761 78.8455 102.811 78.7002C103.895 75.5169 107.346 74.0964 109.684 73.7136C111.111 73.4794 113.257 73.3107 113.257 73.3107C113.257 73.3107 113.438 77.7634 117.771 78.0102C123.67 78.3477 123.277 73.3107 123.306 73.3107C124.261 73.3107 129.463 74.1518 130.763 75.1794C130.981 75.3507 131.19 75.5392 131.387 75.7435C131.952 76.3139 132.405 77.0298 132.712 77.8389C133.02 78.648 133.174 79.5299 133.164 80.4204Z" fill="#383838"/>
<path d="M111.443 83.649L104.546 100.913C104.454 100.83 104.363 100.75 104.271 100.672C101.597 98.2977 99.3296 95.3177 97.594 91.8971L102.69 79.1485L102.892 78.6423L111.443 83.649Z" fill="#383838"/>
<path d="M110.778 85.6361L104.504 100.876C104.462 100.838 104.423 100.802 104.381 100.77L110.647 85.5581C110.656 85.5369 110.671 85.5208 110.69 85.5133C110.708 85.5058 110.729 85.5074 110.746 85.5178C110.764 85.5285 110.776 85.5469 110.782 85.5691C110.788 85.5913 110.787 85.6154 110.778 85.6361V85.6361Z" fill="white"/>
<path d="M142.587 88.205C141.336 91.6361 139.58 94.763 137.405 97.4328L131.993 91.95L125.118 84.9838L131.387 75.7435L131.406 75.7158L142.587 88.205Z" fill="#383838"/>
<path d="M132.076 92.0173C132.094 92.0162 132.111 92.0074 132.123 91.9926C132.136 91.9777 132.144 91.9578 132.145 91.9364L132.503 86.8667C132.504 86.8433 132.498 86.82 132.486 86.802C132.473 86.784 132.455 86.7728 132.436 86.7707C132.417 86.7691 132.398 86.7765 132.383 86.7916C132.368 86.8066 132.359 86.8281 132.357 86.8513L132 91.9213C131.998 91.9447 132.004 91.9679 132.017 91.9858C132.029 92.0037 132.047 92.015 132.066 92.017L132.076 92.0173Z" fill="white"/>
<path d="M239.089 239.995C252.491 239.995 263.355 226.841 263.355 210.615C263.355 194.389 252.491 181.235 239.089 181.235C225.687 181.235 214.823 194.389 214.823 210.615C214.823 226.841 225.687 239.995 239.089 239.995Z" fill="white"/>
<path opacity="0.09" d="M214.823 210.614C214.823 216.424 216.246 222.105 218.912 226.936C221.578 231.768 225.368 235.533 229.802 237.757C234.236 239.981 239.115 240.563 243.822 239.429C248.529 238.295 252.853 235.497 256.246 231.388C259.64 227.28 261.951 222.045 262.888 216.346C263.824 210.647 263.343 204.739 261.507 199.371C259.67 194.003 256.56 189.414 252.569 186.186C248.579 182.958 243.888 181.234 239.088 181.234C235.898 181.22 232.738 181.97 229.788 183.442C226.839 184.913 224.159 187.077 221.904 189.808C219.648 192.539 217.861 195.783 216.646 199.354C215.431 202.925 214.811 206.752 214.823 210.614V210.614Z" fill="#367CFF"/>
<path d="M250.1 194.402C249.712 199.842 250.072 201.686 251.937 204.803C253.511 207.431 244.557 205.197 240.596 204.343L244.092 191.972C244.092 191.972 250.236 192.491 250.1 194.402Z" fill="#0A0A0A"/>
<path d="M236.432 192.138C235.264 197.412 235.395 199.043 233.107 201.813C231.212 204.108 238.6 204.575 242.564 205.408L242.765 192.337C242.765 192.337 236.843 190.286 236.432 192.138Z" fill="#0A0A0A"/>
<path d="M236.826 207.476C236.852 207.472 237.143 213.304 242.739 212.796C246.612 212.444 247.993 207.468 248.082 207.468C247.64 207.379 247.203 207.251 246.776 207.084C246.166 206.687 245.411 206.274 245.214 204.84C245.101 204.014 245.293 199.785 245.234 198.947L239.288 200.554C239.371 202.321 239.953 206.416 237.915 207.14C237.575 207.261 237.21 207.371 236.826 207.476Z" fill="#E98862"/>
<path opacity="0.5" d="M239.204 205.468C239.298 205.104 239.358 204.73 239.383 204.35C239.449 203.485 239.436 202.613 239.345 201.751C240.553 201.554 241.692 200.95 242.631 200.008C242.742 200.502 243.349 202.659 243.181 203.128C242.863 204.015 241.369 205.468 239.204 205.468Z" fill="#0C0C0C"/>
<path d="M239.974 203.651C242.318 203.925 245.351 202.79 245.98 199.01L246.547 195.599C247.175 191.819 246.045 188.355 243.105 187.639C240.165 186.923 237.459 189.452 236.83 193.232L236.58 194.743C236.339 196.192 235.791 203.161 239.974 203.651Z" fill="#E98862"/>
<path d="M249.384 196.676L246.739 196.325C241.565 195.173 240.298 190.118 240.298 190.118C240.298 190.118 238.127 193.626 236.284 192.821C236.284 192.821 236.878 184.361 245.06 185.848C248.274 186.432 250.1 189.658 250.1 193.986C250.1 197.167 249.384 196.676 249.384 196.676Z" fill="#0A0A0A"/>
<path opacity="0.1" d="M242.222 198.177C242.256 197.834 241.971 197.511 241.585 197.455C241.199 197.4 240.859 197.632 240.825 197.975C240.791 198.318 241.077 198.641 241.462 198.696C241.848 198.752 242.188 198.519 242.222 198.177Z" fill="#0C0C0C"/>
<path opacity="0.1" d="M237.388 197.328C237.354 197.67 237.014 197.902 236.628 197.847C236.561 197.837 236.495 197.819 236.432 197.793C236.414 197.385 236.413 196.993 236.423 196.629C236.53 196.597 236.641 196.589 236.75 196.606C237.135 196.661 237.421 196.984 237.388 197.328Z" fill="#0C0C0C"/>
<path opacity="0.5" d="M239.092 198.385H239.086C238.967 198.355 238.849 198.317 238.734 198.272C238.561 198.201 238.335 198.087 238.367 197.898C238.402 197.682 239.276 195.477 239.376 195.227C239.38 195.215 239.386 195.205 239.393 195.197C239.4 195.189 239.409 195.182 239.419 195.178C239.428 195.174 239.438 195.172 239.448 195.172C239.458 195.173 239.468 195.176 239.477 195.181C239.487 195.187 239.495 195.194 239.501 195.203C239.508 195.212 239.513 195.223 239.517 195.235C239.52 195.246 239.521 195.259 239.52 195.271C239.519 195.283 239.517 195.295 239.512 195.306C239.139 196.245 238.539 197.789 238.515 197.934C238.694 198.082 238.9 198.175 239.116 198.206C239.135 198.211 239.152 198.224 239.163 198.244C239.174 198.263 239.178 198.287 239.175 198.31C239.172 198.333 239.162 198.354 239.146 198.368C239.131 198.383 239.111 198.389 239.092 198.387V198.385Z" fill="#0C0C0C"/>
<path d="M245.606 200.117C246.499 200.335 247.415 199.354 247.595 198.273C247.775 197.191 247.15 196.418 246.257 196.201L245.676 196.813L244.838 199.93L245.606 200.117Z" fill="#E98862"/>
<path d="M238.742 193.467C238.632 193.372 238.512 193.296 238.385 193.24C238.256 193.182 238.122 193.145 237.985 193.131C237.848 193.115 237.709 193.125 237.575 193.159C237.439 193.192 237.307 193.246 237.183 193.32L237.179 193.322C237.165 193.328 237.15 193.327 237.137 193.32C237.124 193.314 237.113 193.301 237.107 193.286C237.101 193.27 237.1 193.252 237.104 193.235C237.108 193.219 237.117 193.205 237.129 193.196C237.261 193.111 237.402 193.047 237.547 193.005C237.694 192.962 237.845 192.946 237.995 192.957C238.3 192.978 238.594 193.097 238.848 193.302C238.866 193.318 238.879 193.342 238.883 193.369C238.887 193.396 238.882 193.424 238.869 193.447C238.856 193.469 238.837 193.485 238.814 193.491C238.792 193.496 238.769 193.491 238.75 193.476L238.748 193.474L238.742 193.467Z" fill="#0C0C0C"/>
<path d="M241.15 193.87C241.449 193.798 241.759 193.824 242.046 193.947C242.189 194.006 242.323 194.091 242.445 194.199C242.566 194.305 242.676 194.429 242.771 194.568C242.781 194.582 242.787 194.6 242.786 194.618C242.785 194.637 242.779 194.654 242.767 194.667C242.756 194.679 242.741 194.686 242.726 194.685C242.71 194.684 242.696 194.676 242.685 194.662L242.682 194.659C242.59 194.533 242.485 194.422 242.37 194.328C242.257 194.234 242.132 194.162 242 194.113C241.739 194.014 241.461 194 241.194 194.073L241.187 194.075C241.165 194.082 241.141 194.077 241.122 194.063C241.102 194.049 241.088 194.025 241.082 193.998C241.077 193.971 241.08 193.942 241.092 193.918C241.104 193.894 241.123 193.877 241.146 193.871L241.15 193.87Z" fill="#0C0C0C"/>
<path d="M227.814 236.635C226.86 236.131 226.146 235.592 224.518 234.106C223.342 233.038 222.25 231.842 221.254 230.533L229.618 211.263L229.982 210.426L237.526 215.228L230.982 230.306L230.952 230.373L231.009 230.641" fill="#EA394A"/>
<path d="M255.631 221.133C255.411 223.991 255.364 228.435 255.379 232.386C252.225 235.85 248.374 238.247 244.212 239.337C240.05 240.426 235.725 240.17 231.671 238.594C231.175 232.635 230.437 223.879 230.021 218.487C229.6 212.902 228.36 211.057 231.743 208.382C233.606 207.234 236.561 207.133 237.889 207.133C237.438 212.427 246.653 213.078 246.882 207.133C253.774 207.913 256.965 208.107 255.631 221.133Z" fill="#EA394A"/>
<path d="M238.306 199.13C239.068 199.599 239.937 199.748 240.776 199.552C240.805 199.545 240.835 199.548 240.862 199.562C240.89 199.575 240.914 199.598 240.931 199.627C240.948 199.656 240.959 199.69 240.96 199.726C240.962 199.762 240.955 199.797 240.941 199.829C240.691 200.362 240.097 201.275 239.079 200.903C238.422 200.663 238.174 199.845 238.081 199.338C238.075 199.303 238.076 199.266 238.087 199.232C238.097 199.198 238.115 199.169 238.139 199.147C238.162 199.125 238.191 199.112 238.22 199.109C238.25 199.106 238.28 199.113 238.306 199.13V199.13Z" fill="white"/>
<path d="M238.258 195.029C238.461 195.029 238.626 194.829 238.626 194.583C238.626 194.337 238.461 194.138 238.258 194.138C238.055 194.138 237.89 194.337 237.89 194.583C237.89 194.829 238.055 195.029 238.258 195.029Z" fill="#0C0C0C"/>
<path d="M241.795 195.778C241.999 195.778 242.163 195.579 242.163 195.333C242.163 195.087 241.999 194.887 241.795 194.887C241.592 194.887 241.427 195.087 241.427 195.333C241.427 195.579 241.592 195.778 241.795 195.778Z" fill="#0C0C0C"/>
<path d="M230.836 228.105H230.843C230.858 228.102 230.871 228.093 230.88 228.078C230.889 228.063 230.893 228.045 230.891 228.027L230.241 220.09C230.24 220.081 230.237 220.073 230.234 220.065C230.23 220.057 230.225 220.05 230.219 220.044C230.213 220.039 230.206 220.035 230.199 220.033C230.192 220.031 230.184 220.03 230.177 220.032C230.169 220.033 230.162 220.036 230.156 220.04C230.149 220.045 230.144 220.051 230.139 220.058C230.135 220.066 230.131 220.074 230.129 220.082C230.128 220.091 230.127 220.1 230.128 220.109L230.779 228.046C230.781 228.063 230.788 228.078 230.798 228.088C230.809 228.099 230.822 228.105 230.836 228.105V228.105Z" fill="#0C0C0C"/>
<path d="M229.985 222.06H223.344V231.923H229.985V222.06Z" fill="white"/>
<path d="M227.265 226.992C227.266 226.34 227.425 225.704 227.724 225.162C228.023 224.621 228.448 224.199 228.945 223.95C229.442 223.7 229.989 223.635 230.516 223.763C231.044 223.89 231.529 224.203 231.909 224.664C232.289 225.125 232.548 225.711 232.653 226.35C232.758 226.989 232.704 227.651 232.498 228.253C232.292 228.855 231.944 229.369 231.496 229.731C231.049 230.092 230.523 230.286 229.985 230.286C229.264 230.285 228.572 229.937 228.063 229.32C227.553 228.702 227.266 227.865 227.265 226.992V226.992ZM228.379 226.992C228.379 227.376 228.473 227.752 228.65 228.072C228.826 228.391 229.077 228.641 229.371 228.788C229.664 228.935 229.987 228.974 230.298 228.899C230.61 228.823 230.896 228.638 231.121 228.366C231.345 228.094 231.498 227.748 231.56 227.371C231.622 226.994 231.59 226.603 231.469 226.248C231.347 225.892 231.141 225.589 230.877 225.375C230.613 225.161 230.303 225.047 229.985 225.047C229.559 225.048 229.151 225.253 228.85 225.617C228.549 225.982 228.38 226.476 228.379 226.992V226.992Z" fill="white"/>
<path d="M229.932 228.212C229.955 228.045 230.025 227.893 230.13 227.783C230.236 227.672 230.37 227.61 230.51 227.608C230.506 227.601 230.503 227.593 230.502 227.585L230.304 227.533C230.166 227.5 230.042 227.411 229.952 227.279C229.863 227.148 229.814 226.984 229.813 226.814C229.814 226.707 229.835 226.602 229.874 226.506C229.913 226.41 229.969 226.326 230.038 226.26C230.107 226.193 230.187 226.146 230.273 226.122C230.359 226.098 230.448 226.097 230.534 226.119L231 226.241C231 226.239 231 226.237 231 226.235C231.002 226.23 231.003 226.226 231.005 226.222C230.883 226.153 230.784 226.036 230.725 225.89C230.665 225.744 230.648 225.578 230.676 225.419C230.727 225.001 231.142 224.864 231.445 224.943L232.653 225.205L232.245 224.878C232.117 224.77 232.027 224.607 231.993 224.421C231.96 224.236 231.986 224.043 232.066 223.88C232.11 223.797 232.167 223.727 232.234 223.672C232.301 223.617 232.377 223.58 232.456 223.562C232.536 223.543 232.617 223.545 232.696 223.566C232.775 223.588 232.85 223.628 232.915 223.686L237.787 230.435L236.705 229.841C236.369 230.439 235.894 230.902 235.339 231.17C234.785 231.438 234.177 231.5 233.594 231.348L230.952 230.65C230.814 230.617 230.69 230.528 230.6 230.397C230.511 230.265 230.461 230.101 230.46 229.931C230.462 229.777 230.505 229.628 230.581 229.506C230.658 229.384 230.765 229.294 230.886 229.251C230.883 229.24 230.881 229.228 230.883 229.216C230.884 229.205 230.888 229.195 230.893 229.186C230.899 229.178 230.906 229.171 230.915 229.166L230.427 229.039C230.273 229.002 230.137 228.897 230.045 228.743C229.953 228.59 229.913 228.4 229.932 228.212V228.212Z" fill="#E98862"/>
<path opacity="0.2" d="M231.883 226.479C231.896 226.476 231.907 226.467 231.915 226.455C231.923 226.442 231.927 226.427 231.927 226.411C231.927 226.396 231.922 226.381 231.914 226.369C231.905 226.357 231.894 226.349 231.881 226.346L231.065 226.179C231.057 226.177 231.05 226.177 231.042 226.179C231.035 226.18 231.028 226.184 231.022 226.189C231.016 226.194 231.01 226.201 231.006 226.208C231.002 226.216 230.999 226.225 230.998 226.234C230.997 226.243 230.997 226.252 230.999 226.261C231.001 226.27 231.004 226.278 231.008 226.285C231.013 226.293 231.018 226.299 231.025 226.303C231.031 226.308 231.039 226.311 231.046 226.312L231.862 226.479C231.869 226.481 231.876 226.481 231.883 226.479Z" fill="#0C0C0C"/>
<path opacity="0.2" d="M231.686 227.876C231.699 227.873 231.71 227.865 231.718 227.852C231.726 227.84 231.73 227.825 231.73 227.809C231.73 227.793 231.725 227.778 231.717 227.766C231.709 227.754 231.697 227.746 231.684 227.743L230.566 227.503C230.559 227.501 230.551 227.501 230.544 227.503C230.536 227.504 230.529 227.508 230.523 227.513C230.517 227.518 230.511 227.525 230.507 227.532C230.503 227.54 230.5 227.549 230.499 227.558C230.497 227.567 230.498 227.576 230.499 227.585C230.501 227.594 230.504 227.602 230.509 227.61C230.513 227.617 230.519 227.623 230.525 227.628C230.532 227.633 230.539 227.636 230.547 227.637L231.665 227.877C231.672 227.878 231.679 227.878 231.686 227.876V227.876Z" fill="#0C0C0C"/>
<path opacity="0.2" d="M231.481 229.392C231.494 229.388 231.505 229.38 231.513 229.367C231.521 229.355 231.525 229.339 231.525 229.323C231.525 229.308 231.52 229.292 231.511 229.28C231.502 229.269 231.491 229.261 231.478 229.258L230.947 229.16C230.933 229.158 230.919 229.163 230.908 229.174C230.896 229.185 230.889 229.2 230.887 229.217C230.885 229.234 230.888 229.252 230.896 229.266C230.904 229.28 230.917 229.29 230.931 229.294L231.461 229.392C231.467 229.394 231.474 229.393 231.481 229.392V229.392Z" fill="#0C0C0C"/>
<path d="M259.014 227.378C256.026 232.581 251.731 236.479 246.767 238.493L246.765 238.491C245.663 238.23 235.146 233.202 233.755 232.872L235.277 224.274C239.186 225.216 246.314 228.846 250.245 229.791L247.472 214.567C247.371 213.895 247.382 213.205 247.504 212.538C247.625 211.87 247.855 211.239 248.179 210.68C248.504 210.121 248.917 209.645 249.394 209.281C249.872 208.916 250.404 208.67 250.961 208.557C251.517 208.444 252.087 208.465 252.637 208.62C253.186 208.776 253.705 209.061 254.163 209.461C254.62 209.861 255.008 210.367 255.303 210.949C255.598 211.532 255.795 212.18 255.882 212.855L259.014 227.378Z" fill="#EA394A"/>
<path d="M253.224 230.912C253.239 230.911 253.252 230.905 253.263 230.893C253.273 230.881 253.279 230.865 253.28 230.848C253.281 230.831 253.277 230.814 253.268 230.8C253.26 230.787 253.247 230.778 253.233 230.775L250.278 229.561C250.27 229.559 250.263 229.56 250.255 229.562C250.248 229.564 250.241 229.568 250.235 229.573C250.229 229.579 250.224 229.585 250.22 229.593C250.216 229.601 250.214 229.61 250.213 229.619C250.211 229.637 250.214 229.655 250.223 229.67C250.232 229.684 250.246 229.694 250.261 229.697L253.216 230.911C253.219 230.911 253.222 230.912 253.224 230.912V230.912Z" fill="#0C0C0C"/>
<path d="M250.323 229.619C250.324 229.64 250.319 229.662 250.308 229.679C250.301 229.686 250.293 229.692 250.285 229.695C250.276 229.698 250.267 229.699 250.258 229.697L235.372 224.377L233.88 232.839L246.699 238.518C246.659 238.534 246.618 238.55 246.578 238.566C246.549 238.578 246.521 238.589 246.491 238.598L233.797 232.955C233.782 232.951 233.77 232.939 233.762 232.924C233.754 232.909 233.752 232.89 233.755 232.873L235.277 224.275C235.279 224.266 235.282 224.258 235.287 224.251C235.291 224.244 235.297 224.238 235.304 224.233C235.31 224.228 235.317 224.225 235.325 224.223C235.332 224.221 235.34 224.222 235.347 224.224L250.198 229.551L248.517 221.158C248.515 221.14 248.518 221.122 248.527 221.108C248.536 221.093 248.549 221.083 248.564 221.081C248.571 221.079 248.579 221.079 248.586 221.081C248.594 221.082 248.601 221.086 248.607 221.091C248.613 221.096 248.618 221.103 248.622 221.11C248.626 221.118 248.629 221.126 248.63 221.135L250.323 229.619Z" fill="#0C0C0C"/>
<path d="M56.2034 218.652C56.1896 218.652 56.1759 218.649 56.1631 218.642C56.1505 218.636 56.139 218.626 56.1294 218.615C56.1198 218.603 56.1122 218.589 56.1071 218.574C56.1019 218.558 56.0993 218.542 56.0994 218.525C56.0994 218.509 56.1022 218.492 56.1075 218.477L60.1833 206.748C60.194 206.717 60.2144 206.693 60.24 206.68C60.2656 206.667 60.2942 206.668 60.3196 206.681C60.3451 206.694 60.3652 206.718 60.3756 206.749C60.386 206.78 60.3858 206.815 60.3751 206.846L56.2993 218.575C56.2914 218.598 56.2781 218.617 56.261 218.631C56.2439 218.645 56.2239 218.652 56.2034 218.652Z" fill="#0C0C0C"/>
<path d="M80.1867 218.785H80.1821C80.1685 218.786 80.1549 218.783 80.142 218.778C80.1292 218.772 80.1174 218.763 80.1073 218.752C80.0972 218.741 80.0891 218.728 80.0833 218.713C80.0775 218.698 80.0742 218.682 80.0736 218.665L79.6193 206.668C79.6189 206.635 79.6289 206.603 79.6473 206.579C79.6657 206.554 79.6911 206.539 79.7183 206.537C79.7319 206.536 79.7456 206.538 79.7585 206.544C79.7713 206.55 79.7832 206.558 79.7933 206.569C79.8034 206.581 79.8116 206.594 79.8174 206.609C79.8232 206.624 79.8265 206.64 79.8271 206.657L80.2814 218.653C80.2827 218.686 80.2736 218.718 80.256 218.742C80.2383 218.767 80.2135 218.782 80.1867 218.785Z" fill="#0C0C0C"/>
</svg>
