<svg width="88" height="107" viewBox="0 0 88 107" fill="none" xmlns="http://www.w3.org/2000/svg">
<g filter="url(#filter0_d_8_512)">
<path fill-rule="evenodd" clip-rule="evenodd" d="M29.3222 74.1108C38.2142 73.893 48.0916 73.709 54.0818 76.5309C60.3912 79.5031 61.324 84.0073 58.4447 87.8297C55.8276 91.3041 47.9066 93.0955 40.3378 94.7768C32.3298 96.5557 23.3452 99.1943 15.354 97.4017C7.47061 95.6332 8.01224 90.9667 6.58761 87.2056C5.33422 83.8965 3.20624 80.353 7.8774 77.6625C12.6878 74.8918 21.2716 74.308 29.3222 74.1108Z" fill="#5F5D5D"/>
<path fill-rule="evenodd" clip-rule="evenodd" d="M29.3222 74.1108C38.2142 73.893 48.0916 73.709 54.0818 76.5309C60.3912 79.5031 61.324 84.0073 58.4447 87.8297C55.8276 91.3041 47.9066 93.0955 40.3378 94.7768C32.3298 96.5557 23.3452 99.1943 15.354 97.4017C7.47061 95.6332 8.01224 90.9667 6.58761 87.2056C5.33422 83.8965 3.20624 80.353 7.8774 77.6625C12.6878 74.8918 21.2716 74.308 29.3222 74.1108Z" stroke="black"/>
</g>
<g filter="url(#filter1_d_8_512)">
<path fill-rule="evenodd" clip-rule="evenodd" d="M54.1311 59.0554C60.7597 58.9465 68.1228 58.8545 72.5882 60.2654C77.2916 61.7515 77.987 64.0037 75.8406 65.9149C73.8897 67.652 67.9849 68.5478 62.3427 69.3884C56.3732 70.2778 49.6755 71.5972 43.7185 70.7008C37.8417 69.8166 38.2455 67.4834 37.1835 65.6028C36.2491 63.9482 34.6628 62.1765 38.145 60.8313C41.7309 59.4459 48.1297 59.154 54.1311 59.0554Z" fill="#807B7B"/>
<path fill-rule="evenodd" clip-rule="evenodd" d="M54.1311 59.0554C60.7597 58.9465 68.1228 58.8545 72.5882 60.2654C77.2916 61.7515 77.987 64.0037 75.8406 65.9149C73.8897 67.652 67.9849 68.5478 62.3427 69.3884C56.3732 70.2778 49.6755 71.5972 43.7185 70.7008C37.8417 69.8166 38.2455 67.4834 37.1835 65.6028C36.2491 63.9482 34.6628 62.1765 38.145 60.8313C41.7309 59.4459 48.1297 59.154 54.1311 59.0554Z" stroke="black"/>
</g>
<path fill-rule="evenodd" clip-rule="evenodd" d="M70.8244 46.0462C75.513 45.9554 80.721 45.8788 83.8795 47.0545C87.2063 48.293 87.6981 50.1697 86.1799 51.7624C84.8 53.21 80.6235 53.9565 76.6327 54.657C72.4103 55.3982 67.6729 56.4976 63.4594 55.7507C59.3027 55.0138 59.5883 53.0695 58.8371 51.5023C58.1762 50.1235 57.0542 48.6471 59.5172 47.5261C62.0536 46.3716 66.5795 46.1283 70.8244 46.0462Z" fill="#9E9A9A" stroke="black"/>
<path fill-rule="evenodd" clip-rule="evenodd" d="M48.2867 13.0554C51.6818 12.9465 55.4532 12.8545 57.7403 14.2654C60.1494 15.7515 60.5055 18.0037 59.4062 19.9149C58.4069 21.652 55.3825 22.5478 52.4926 23.3884C49.435 24.2778 46.0045 25.5972 42.9534 24.7008C39.9433 23.8166 40.1501 21.4834 39.6062 19.6028C39.1276 17.9482 38.3151 16.1765 40.0986 14.8313C41.9353 13.4459 45.2128 13.154 48.2867 13.0554Z" fill="#CCC4C4" stroke="black"/>
<g filter="url(#filter2_d_8_512)">
<path fill-rule="evenodd" clip-rule="evenodd" d="M64.7489 1.02308C66.8506 0.977706 69.1853 0.939381 70.6011 1.52726C72.0925 2.14648 72.3129 3.08486 71.6324 3.8812C71.0138 4.60501 69.1415 4.97823 67.3526 5.3285C65.4598 5.69909 63.3361 6.24882 61.4473 5.87535C59.584 5.50691 59.712 4.53473 59.3753 3.75116C59.079 3.06176 58.576 2.32355 59.6801 1.76303C60.8171 1.18579 62.846 1.06416 64.7489 1.02308Z" fill="#DDD2D2"/>
<path fill-rule="evenodd" clip-rule="evenodd" d="M64.7489 1.02308C66.8506 0.977706 69.1853 0.939381 70.6011 1.52726C72.0925 2.14648 72.3129 3.08486 71.6324 3.8812C71.0138 4.60501 69.1415 4.97823 67.3526 5.3285C65.4598 5.69909 63.3361 6.24882 61.4473 5.87535C59.584 5.50691 59.712 4.53473 59.3753 3.75116C59.079 3.06176 58.576 2.32355 59.6801 1.76303C60.8171 1.18579 62.846 1.06416 64.7489 1.02308Z" stroke="black"/>
</g>
<path fill-rule="evenodd" clip-rule="evenodd" d="M35.6889 32.0739C42.1558 31.9287 49.3394 31.806 53.6958 33.6872C58.2845 35.6687 58.9629 38.6715 56.8689 41.2198C54.9655 43.536 49.2048 44.7304 43.7002 45.8512C37.8762 47.0371 31.3419 48.7962 25.5302 47.6011C19.7968 46.4221 20.1907 43.3112 19.1546 40.8037C18.2431 38.5976 16.6954 36.2354 20.0927 34.4417C23.5911 32.5945 29.8339 32.2053 35.6889 32.0739Z" fill="#B6B0B0" stroke="black"/>
<defs>
<filter id="filter0_d_8_512" x="0.5" y="73.5" width="64.0002" height="33" filterUnits="userSpaceOnUse" color-interpolation-filters="sRGB">
<feFlood flood-opacity="0" result="BackgroundImageFix"/>
<feColorMatrix in="SourceAlpha" type="matrix" values="0 0 0 0 0 0 0 0 0 0 0 0 0 0 0 0 0 0 127 0" result="hardAlpha"/>
<feOffset dy="4"/>
<feGaussianBlur stdDeviation="2"/>
<feComposite in2="hardAlpha" operator="out"/>
<feColorMatrix type="matrix" values="0 0 0 0 0 0 0 0 0 0 0 0 0 0 0 0 0 0 0.25 0"/>
<feBlend mode="normal" in2="BackgroundImageFix" result="effect1_dropShadow_8_512"/>
<feBlend mode="normal" in="SourceGraphic" in2="effect1_dropShadow_8_512" result="shape"/>
</filter>
<filter id="filter1_d_8_512" x="31.5" y="58.5" width="50" height="20.9995" filterUnits="userSpaceOnUse" color-interpolation-filters="sRGB">
<feFlood flood-opacity="0" result="BackgroundImageFix"/>
<feColorMatrix in="SourceAlpha" type="matrix" values="0 0 0 0 0 0 0 0 0 0 0 0 0 0 0 0 0 0 127 0" result="hardAlpha"/>
<feOffset dy="4"/>
<feGaussianBlur stdDeviation="2"/>
<feComposite in2="hardAlpha" operator="out"/>
<feColorMatrix type="matrix" values="0 0 0 0 0 0 0 0 0 0 0 0 0 0 0 0 0 0 0.25 0"/>
<feBlend mode="normal" in2="BackgroundImageFix" result="effect1_dropShadow_8_512"/>
<feBlend mode="normal" in="SourceGraphic" in2="effect1_dropShadow_8_512" result="shape"/>
</filter>
<filter id="filter2_d_8_512" x="54.5" y="0.5" width="22.0007" height="14" filterUnits="userSpaceOnUse" color-interpolation-filters="sRGB">
<feFlood flood-opacity="0" result="BackgroundImageFix"/>
<feColorMatrix in="SourceAlpha" type="matrix" values="0 0 0 0 0 0 0 0 0 0 0 0 0 0 0 0 0 0 127 0" result="hardAlpha"/>
<feOffset dy="4"/>
<feGaussianBlur stdDeviation="2"/>
<feComposite in2="hardAlpha" operator="out"/>
<feColorMatrix type="matrix" values="0 0 0 0 0 0 0 0 0 0 0 0 0 0 0 0 0 0 0.25 0"/>
<feBlend mode="normal" in2="BackgroundImageFix" result="effect1_dropShadow_8_512"/>
<feBlend mode="normal" in="SourceGraphic" in2="effect1_dropShadow_8_512" result="shape"/>
</filter>
</defs>
</svg>
