<svg width="158" height="140" viewBox="0 0 158 140" fill="none" xmlns="http://www.w3.org/2000/svg">
<g filter="url(#filter0_d_8_512)">
<path fill-rule="evenodd" clip-rule="evenodd" d="M50.0851 98.9836C66.5679 98.6917 84.8771 98.4451 95.9808 102.227C107.676 106.21 109.405 112.247 104.068 117.37C99.2171 122.026 84.5341 124.427 70.5042 126.68C55.6602 129.064 39.0057 132.601 24.1929 130.198C9.57967 127.828 10.5837 121.574 7.9429 116.533C5.61953 112.098 1.67498 107.349 10.3337 103.744C19.2506 100.03 35.1619 99.2478 50.0851 98.9836Z" fill="#FF7A00"/>
<path fill-rule="evenodd" clip-rule="evenodd" d="M50.0851 98.9836C66.5679 98.6917 84.8771 98.4451 95.9808 102.227C107.676 106.21 109.405 112.247 104.068 117.37C99.2171 122.026 84.5341 124.427 70.5042 126.68C55.6602 129.064 39.0057 132.601 24.1929 130.198C9.57967 127.828 10.5837 121.574 7.9429 116.533C5.61953 112.098 1.67498 107.349 10.3337 103.744C19.2506 100.03 35.1619 99.2478 50.0851 98.9836Z" stroke="black"/>
</g>
<g filter="url(#filter1_d_8_512)">
<path fill-rule="evenodd" clip-rule="evenodd" d="M96.0723 78.8062C108.359 78.6602 122.008 78.537 130.285 80.4279C139.004 82.4196 140.293 85.4379 136.314 87.9993C132.698 90.3274 121.752 91.5279 111.294 92.6545C100.228 93.8465 87.8131 95.6147 76.7708 94.4135C65.8773 93.2284 66.6258 90.1014 64.6572 87.581C62.9252 85.3636 59.9847 82.9891 66.4394 81.1862C73.0865 79.3295 84.9477 78.9383 96.0723 78.8062Z" fill="url(#paint0_linear_8_512)"/>
<path fill-rule="evenodd" clip-rule="evenodd" d="M96.0723 78.8062C108.359 78.6602 122.008 78.537 130.285 80.4279C139.004 82.4196 140.293 85.4379 136.314 87.9993C132.698 90.3274 121.752 91.5279 111.294 92.6545C100.228 93.8465 87.8131 95.6147 76.7708 94.4135C65.8773 93.2284 66.6258 90.1014 64.6572 87.581C62.9252 85.3636 59.9847 82.9891 66.4394 81.1862C73.0865 79.3295 84.9477 78.9383 96.0723 78.8062Z" stroke="black"/>
</g>
<path fill-rule="evenodd" clip-rule="evenodd" d="M127.016 61.3711C135.707 61.2495 145.361 61.1468 151.216 62.7225C157.382 64.3823 158.294 66.8975 155.48 69.0321C152.922 70.9722 145.18 71.9726 137.782 72.9114C129.956 73.9048 121.174 75.3783 113.364 74.3772C105.659 73.3896 106.188 70.7838 104.796 68.6835C103.571 66.8356 101.491 64.8569 106.056 63.3545C110.758 61.8073 119.147 61.4812 127.016 61.3711Z" fill="#FE9636" stroke="black"/>
<path fill-rule="evenodd" clip-rule="evenodd" d="M85.2387 17.1567C91.5321 17.0108 98.523 16.8875 102.763 18.7784C107.228 20.7701 107.888 23.7884 105.85 26.3498C103.998 28.678 98.392 29.8784 93.0351 31.0051C87.3674 32.1971 81.0084 33.9653 75.3526 32.764C69.773 31.5789 70.1564 28.4519 69.1481 25.9315C68.261 23.7141 66.7549 21.3397 70.0609 19.5367C73.4655 17.6801 79.5408 17.2888 85.2387 17.1567Z" fill="#FEBC7C" stroke="black"/>
<g filter="url(#filter2_d_8_512)">
<path fill-rule="evenodd" clip-rule="evenodd" d="M115.754 1.03093C119.65 0.970122 123.978 0.918758 126.602 1.70664C129.367 2.53652 129.775 3.79414 128.514 4.8614C127.367 5.83146 123.897 6.33165 120.58 6.80108C117.072 7.29775 113.135 8.0345 109.634 7.53397C106.18 7.04019 106.417 5.73727 105.793 4.68712C105.244 3.76319 104.312 2.77383 106.358 2.02262C108.466 1.249 112.227 1.08599 115.754 1.03093Z" fill="url(#paint1_linear_8_512)"/>
<path fill-rule="evenodd" clip-rule="evenodd" d="M115.754 1.03093C119.65 0.970122 123.978 0.918758 126.602 1.70664C129.367 2.53652 129.775 3.79414 128.514 4.8614C127.367 5.83146 123.897 6.33165 120.58 6.80108C117.072 7.29775 113.135 8.0345 109.634 7.53397C106.18 7.04019 106.417 5.73727 105.793 4.68712C105.244 3.76319 104.312 2.77383 106.358 2.02262C108.466 1.249 112.227 1.08599 115.754 1.03093Z" stroke="black"/>
</g>
<path fill-rule="evenodd" clip-rule="evenodd" d="M61.8868 42.6454C73.8743 42.4508 87.1901 42.2864 95.2655 44.8076C103.771 47.4632 105.029 51.4876 101.147 54.9029C97.6192 58.0071 86.9406 59.6077 76.7371 61.1099C65.9414 62.6992 53.829 65.0568 43.0561 63.4551C32.4283 61.875 33.1585 57.7057 31.2379 54.3452C29.5482 51.3886 26.6795 48.2226 32.9767 45.8188C39.4617 43.3432 51.0336 42.8215 61.8868 42.6454Z" fill="url(#paint2_linear_8_512)"/>
<path d="M61.8868 42.6454L61.8949 43.1453L61.8868 42.6454ZM95.2655 44.8076L95.4145 44.3304L95.4145 44.3304L95.2655 44.8076ZM101.147 54.9029L101.478 55.2782L101.147 54.9029ZM76.7371 61.1099L76.6643 60.6152L76.6643 60.6152L76.7371 61.1099ZM43.0561 63.4551L43.1296 62.9605L43.1296 62.9605L43.0561 63.4551ZM31.2379 54.3452L31.672 54.0971L31.2379 54.3452ZM32.9767 45.8188L33.155 46.2859L33.155 46.2859L32.9767 45.8188ZM61.8949 43.1453C67.8908 43.048 74.2021 42.9586 80.0218 43.2076C85.8487 43.4569 91.1431 44.0444 95.1165 45.2849L95.4145 44.3304C91.3125 43.0497 85.9113 42.4587 80.0646 42.2085C74.2107 41.9581 67.8704 42.0482 61.8787 42.1454L61.8949 43.1453ZM95.1165 45.2849C99.3458 46.6053 101.61 48.2235 102.405 49.796C102.792 50.5597 102.841 51.3286 102.587 52.1022C102.328 52.8899 101.745 53.7108 100.817 54.5275L101.478 55.2782C102.49 54.3873 103.205 53.4244 103.537 52.414C103.873 51.3895 103.804 50.346 103.298 49.3448C102.308 47.3874 99.6911 45.6655 95.4145 44.3304L95.1165 45.2849ZM100.817 54.5275C100.003 55.2433 98.7421 55.8997 97.1069 56.5018C95.4793 57.1012 93.5187 57.6336 91.3369 58.1191C86.9719 59.0903 81.7704 59.8635 76.6643 60.6152L76.8099 61.6045C81.9073 60.8541 87.1468 60.0758 91.5541 59.0952C93.7583 58.6047 95.7666 58.061 97.4524 57.4402C99.1305 56.8223 100.527 56.1145 101.478 55.2782L100.817 54.5275ZM76.6643 60.6152C65.8246 62.211 53.8094 64.5484 43.1296 62.9605L42.9826 63.9497C53.8487 65.5652 66.0582 63.1874 76.8099 61.6045L76.6643 60.6152ZM43.1296 62.9605C37.8725 62.1789 35.5394 60.7728 34.2656 59.2473C33.6216 58.476 33.2238 57.6463 32.8622 56.7728C32.5078 55.9168 32.1731 54.9738 31.672 54.0971L30.8038 54.5933C31.2631 55.3968 31.5573 56.2351 31.9383 57.1553C32.312 58.0582 32.756 58.9996 33.498 59.8882C34.9962 61.6825 37.6119 63.1512 42.9826 63.9497L43.1296 62.9605ZM31.672 54.0971C31.4565 53.7198 31.222 53.3393 30.9963 52.9685C30.7686 52.5945 30.5481 52.228 30.3504 51.8647C29.951 51.1307 29.6706 50.4548 29.6099 49.8266C29.5518 49.2255 29.6924 48.6495 30.1886 48.0768C30.7023 47.4841 31.6174 46.8729 33.155 46.2859L32.7984 45.3516C31.1874 45.9666 30.0997 46.6526 29.4329 47.4219C28.7488 48.2114 28.5314 49.0623 28.6145 49.9228C28.6951 50.7562 29.0551 51.5763 29.472 52.3426C29.6825 52.7294 29.9142 53.1141 30.1422 53.4886C30.3721 53.8662 30.597 54.2313 30.8038 54.5933L31.672 54.0971ZM33.155 46.2859C36.331 45.0735 40.789 44.3287 45.8391 43.8677C50.8802 43.4076 56.4713 43.2333 61.8949 43.1453L61.8787 42.1454C56.4491 42.2336 50.8277 42.4082 45.7482 42.8719C40.6779 43.3347 36.1074 44.0885 32.7984 45.3516L33.155 46.2859Z" fill="black"/>
<defs>
<filter id="filter0_d_8_512" x="0.5" y="98.3351" width="110.953" height="41.1643" filterUnits="userSpaceOnUse" color-interpolation-filters="sRGB">
<feFlood flood-opacity="0" result="BackgroundImageFix"/>
<feColorMatrix in="SourceAlpha" type="matrix" values="0 0 0 0 0 0 0 0 0 0 0 0 0 0 0 0 0 0 127 0" result="hardAlpha"/>
<feOffset dy="4"/>
<feGaussianBlur stdDeviation="2"/>
<feComposite in2="hardAlpha" operator="out"/>
<feColorMatrix type="matrix" values="0 0 0 0 0 0 0 0 0 0 0 0 0 0 0 0 0 0 0.25 0"/>
<feBlend mode="normal" in2="BackgroundImageFix" result="effect1_dropShadow_8_512"/>
<feBlend mode="normal" in="SourceGraphic" in2="effect1_dropShadow_8_512" result="shape"/>
</filter>
<filter id="filter1_d_8_512" x="57.9634" y="78.2318" width="85" height="25.0824" filterUnits="userSpaceOnUse" color-interpolation-filters="sRGB">
<feFlood flood-opacity="0" result="BackgroundImageFix"/>
<feColorMatrix in="SourceAlpha" type="matrix" values="0 0 0 0 0 0 0 0 0 0 0 0 0 0 0 0 0 0 127 0" result="hardAlpha"/>
<feOffset dy="4"/>
<feGaussianBlur stdDeviation="2"/>
<feComposite in2="hardAlpha" operator="out"/>
<feColorMatrix type="matrix" values="0 0 0 0 0 0 0 0 0 0 0 0 0 0 0 0 0 0 0.25 0"/>
<feBlend mode="normal" in2="BackgroundImageFix" result="effect1_dropShadow_8_512"/>
<feBlend mode="normal" in="SourceGraphic" in2="effect1_dropShadow_8_512" result="shape"/>
</filter>
<filter id="filter2_d_8_512" x="100.598" y="0.5" width="33.0977" height="15.7006" filterUnits="userSpaceOnUse" color-interpolation-filters="sRGB">
<feFlood flood-opacity="0" result="BackgroundImageFix"/>
<feColorMatrix in="SourceAlpha" type="matrix" values="0 0 0 0 0 0 0 0 0 0 0 0 0 0 0 0 0 0 127 0" result="hardAlpha"/>
<feOffset dy="4"/>
<feGaussianBlur stdDeviation="2"/>
<feComposite in2="hardAlpha" operator="out"/>
<feColorMatrix type="matrix" values="0 0 0 0 0 0 0 0 0 0 0 0 0 0 0 0 0 0 0.25 0"/>
<feBlend mode="normal" in2="BackgroundImageFix" result="effect1_dropShadow_8_512"/>
<feBlend mode="normal" in="SourceGraphic" in2="effect1_dropShadow_8_512" result="shape"/>
</filter>
<linearGradient id="paint0_linear_8_512" x1="100.463" y1="78.7319" x2="100.463" y2="94.8144" gradientUnits="userSpaceOnUse">
<stop stop-color="#FE9636"/>
<stop offset="0.96875" stop-color="#FF7A00"/>
</linearGradient>
<linearGradient id="paint1_linear_8_512" x1="117.146" y1="1" x2="117.146" y2="7.70103" gradientUnits="userSpaceOnUse">
<stop stop-color="white"/>
<stop offset="0.828125" stop-color="#FEBC7C"/>
</linearGradient>
<linearGradient id="paint2_linear_8_512" x1="66.1708" y1="42.5464" x2="66.1708" y2="63.9897" gradientUnits="userSpaceOnUse">
<stop stop-color="#FEBC7C"/>
<stop offset="1" stop-color="#FE9636"/>
</linearGradient>
</defs>
</svg>
