<svg width="291" height="331" viewBox="0 0 291 331" fill="none" xmlns="http://www.w3.org/2000/svg">
<path fill-rule="evenodd" clip-rule="evenodd" d="M86.3143 249.481C117.87 248.738 152.923 248.11 174.18 257.739C196.571 267.882 199.882 283.252 189.664 296.295C180.376 308.151 152.266 314.264 125.406 320.001C96.9876 326.071 65.103 335.076 36.7442 328.958C8.76765 322.923 10.6898 307 5.6341 294.165C1.18607 282.873 -6.36566 270.782 10.2112 261.601C27.2824 252.146 57.7442 250.154 86.3143 249.481Z" fill="#5F5D5D"/>
<path fill-rule="evenodd" clip-rule="evenodd" d="M174.356 198.107C197.879 197.735 224.009 197.421 239.856 202.236C256.547 207.307 259.015 214.992 251.398 221.514C244.474 227.441 223.52 230.498 203.497 233.367C182.312 236.402 158.544 240.904 137.403 237.845C116.548 234.828 117.981 226.866 114.212 220.449C110.896 214.803 105.267 208.757 117.624 204.167C130.35 199.439 153.058 198.443 174.356 198.107Z" fill="#807B7B"/>
<path fill-rule="evenodd" clip-rule="evenodd" d="M233.596 153.714C250.235 153.405 268.717 153.143 279.926 157.155C291.732 161.381 293.477 167.785 288.09 173.22C283.193 178.16 268.371 180.707 254.209 183.098C239.224 185.627 222.412 189.379 207.46 186.83C192.708 184.315 193.722 177.68 191.056 172.333C188.711 167.628 184.729 162.59 193.469 158.764C202.471 154.825 218.532 153.995 233.596 153.714Z" fill="#9E9A9A"/>
<path fill-rule="evenodd" clip-rule="evenodd" d="M153.615 41.1375C165.664 40.7659 179.047 40.452 187.164 45.2666C195.713 50.3378 196.977 58.0228 193.076 64.5446C189.529 70.4724 178.796 73.529 168.541 76.3976C157.69 79.4326 145.516 83.9347 134.688 80.8761C124.006 77.8587 124.74 69.8969 122.81 63.4796C121.111 57.8337 118.228 51.788 124.557 47.1975C131.075 42.4701 142.706 41.4739 153.615 41.1375Z" fill="#CCC4C4"/>
<path fill-rule="evenodd" clip-rule="evenodd" d="M212.036 0.0787555C219.494 -0.0760741 227.78 -0.206854 232.804 1.79922C238.096 3.91221 238.879 7.1143 236.464 9.83171C234.269 12.3016 227.624 13.5752 221.276 14.7705C214.558 16.0351 207.022 17.9109 200.319 16.6365C193.707 15.3792 194.161 12.0618 192.966 9.38797C191.915 7.0355 190.13 4.51645 194.048 2.60374C198.083 0.633999 205.283 0.218936 212.036 0.0787555Z" fill="#DDD2D2"/>
<path fill-rule="evenodd" clip-rule="evenodd" d="M108.908 106.036C131.858 105.54 157.351 105.122 172.811 111.541C189.095 118.303 191.503 128.549 184.071 137.245C177.317 145.149 156.873 149.224 137.339 153.049C116.671 157.096 93.4818 163.098 72.8572 159.02C52.5106 154.997 53.9085 144.381 50.2317 135.825C46.9968 128.297 41.5046 120.236 53.5605 114.115C65.9759 107.812 88.1299 106.484 108.908 106.036Z" fill="#B6B0B0"/>
</svg>
