<svg width="148" height="368" viewBox="0 0 148 368" fill="none" xmlns="http://www.w3.org/2000/svg">
<path fill-rule="evenodd" clip-rule="evenodd" d="M70.2792 61.5458C67.8121 56.9585 66.1423 51.3368 66.4213 45.0374C67.2252 26.8873 83.1752 30.8801 86.2778 40.0407C89.3804 49.2013 89.0117 72.4381 85.0019 74.0753C83.4028 74.7283 79.9962 73.1288 76.5291 69.8185L78.7053 94.2067H65.8555L70.2792 61.5458Z" fill="#B28B67"/>
<path fill-rule="evenodd" clip-rule="evenodd" d="M78.9537 29.4828C77.2601 29.0428 72.7001 28.7404 71.8591 28.7405C71.3217 28.7405 70.7394 28.935 70.4211 28.1534C70.1604 27.5133 70.2559 26.4307 70.1781 25.6879C70.0878 24.8251 69.9595 23.9733 69.8297 23.1237C69.4604 20.7061 68.902 18.4061 68.1207 16.2466C66.6546 12.1952 64.5068 9.02176 61.7953 7.17513C58.801 5.13615 55.4128 4.66927 52.192 5.08285C48.7454 5.52532 45.6254 7.32763 42.3713 9.02371C39.2702 10.6399 36.0222 11.2761 32.7788 10.4868C29.511 9.69172 27.0419 6.88613 24.2855 4.22328C21.4638 1.49717 18.2391 -0.285809 14.9033 0.124055C11.7895 0.506778 8.91962 2.54341 6.34479 5.26405C3.93574 7.80955 1.94796 10.8721 0.825717 15.1824C-0.381573 19.819 -0.380463 24.9084 1.60485 29.0061C4.48249 34.9457 9.82471 36.4817 14.2692 36.329C16.84 36.2409 19.3648 35.4975 21.7919 34.1453C25.0288 32.3418 27.8259 29.2851 30.8541 26.8051C32.2752 25.6413 33.7441 24.6854 35.2838 23.9969C36.778 23.3285 38.2496 23.022 39.6024 24.4517C41.0335 25.9642 42.3158 27.45 43.953 28.3969C45.5236 29.3053 47.1871 29.8133 48.8604 29.7928C52.1161 29.753 55.3254 28.1462 58.4874 27.0698C61.0659 26.1923 63.8248 25.3177 66.4536 26.1613C67.5506 26.5133 69.1528 27.2401 69.549 29.0459C62.8808 30.9603 60.2618 44.0237 62.1417 53.6134C63.1563 58.7893 69.2552 64.8399 71.6265 62.1189C73.1288 60.395 72.2168 58.1319 71.6265 56.6379C70.4962 53.7768 70.1094 50.1017 72.201 48.1098C74.0052 46.3918 75.9022 50.4715 75.938 50.467C76.4339 50.4051 80.7186 46.5667 83.6708 40.9653C86.583 41.2388 87.0249 38.197 86.3295 35.7093C85.6341 33.2217 81.2937 30.091 78.9537 29.4828Z" fill="#191847"/>
<path fill-rule="evenodd" clip-rule="evenodd" d="M55.492 164.601C56.4575 185.472 118.65 246.922 119.013 248.646C119.175 249.412 112.722 273.635 99.6549 321.314L105.092 324.661C125.134 274.165 134.64 246.227 133.611 240.846C132.137 233.143 116.052 207.802 85.3561 164.823L55.492 164.601Z" fill="#B28B67"/>
<path fill-rule="evenodd" clip-rule="evenodd" d="M101.086 310.547L109.962 315.665C128.678 282.213 136.015 254.612 134.677 240.549C133.785 231.174 117.756 205.874 86.5888 164.652L54.8555 164.652C55.9383 212.988 113.583 248.83 114.354 250.89C115.125 252.95 107.538 273.123 101.086 310.547Z" fill="#2F3676"/>
<path fill-rule="evenodd" clip-rule="evenodd" d="M96.8294 318.824C95.8722 320.356 95.3015 321.599 95.1174 322.551C94.8935 323.709 94.7242 325.503 94.6095 327.933C95.7059 328.655 105.56 335.145 124.171 347.401C125.541 344.795 125.422 342.823 123.815 341.484C122.208 340.146 120.877 339.017 119.82 338.096L107.532 321.54C107.295 321.221 106.957 321.163 106.777 321.409C106.774 321.414 106.771 321.418 106.768 321.422L105.377 323.466C103.675 323.333 102.346 322.951 101.388 322.32C100.609 321.808 99.609 320.715 98.3865 319.041L98.3865 319.041C97.9174 318.399 97.2405 318.272 96.8745 318.758C96.8588 318.779 96.8437 318.801 96.8294 318.824Z" fill="#E4E4E4"/>
<path fill-rule="evenodd" clip-rule="evenodd" d="M62.6429 164.601L34.9376 269.96L7.70764 359.032H14.1321L84.42 164.601H62.6429Z" fill="#997659"/>
<path fill-rule="evenodd" clip-rule="evenodd" d="M7.32342 354.92C6.72442 357.453 6.42493 359.348 6.42493 360.606C6.42493 362.135 6.58577 364.367 6.90746 367.301C8.02751 367.301 18.0935 367.301 37.1056 367.301C37.8903 363.191 37.4373 360.973 35.7466 360.645C34.0558 360.317 32.6513 360.022 31.533 359.758L17.4972 349.846C17.2271 349.655 16.9106 349.847 16.7902 350.275C16.7881 350.282 16.7861 350.29 16.7842 350.297L15.882 353.764C14.3168 354.921 13.0449 355.499 12.0664 355.499C11.2713 355.499 10.1733 354.99 8.77242 353.973L8.77242 353.973C8.23482 353.583 7.59922 353.957 7.35277 354.808C7.34215 354.845 7.33236 354.882 7.32342 354.92Z" fill="#E4E4E4"/>
<path fill-rule="evenodd" clip-rule="evenodd" d="M10.1666 340.528L24.4418 344.769C35.4793 319.064 81.6718 213.666 86.7364 164.601H54.9566C38.0435 200.07 20.6877 314.398 10.1666 340.528Z" fill="#5C63AB"/>
<path fill-rule="evenodd" clip-rule="evenodd" d="M110.83 141.377L130.23 127.881C133.629 122.516 136.91 118.439 140.075 115.649C141.022 115.172 142.639 115.027 140.914 119.019C139.189 123.01 137.487 127.331 138.177 128.73C138.866 130.128 140.863 128.585 141.651 130.859C142.177 132.376 138.812 134.19 131.554 136.301L117.025 153.948L110.83 141.377ZM32.3968 145.094L43.3682 148.542C32.3345 181.114 26.4174 198.378 25.6167 200.332C23.8153 204.729 25.4961 212.788 26.1169 217.032C22.2219 218.469 23.758 209.182 18.8289 211.121C14.3298 212.891 10.5151 217.433 6.31993 211.307C5.80416 210.554 5.42658 208.2 7.18512 206.993C11.5663 203.985 18.0391 198.353 19.0886 196.166C20.5199 193.184 24.9559 176.16 32.3968 145.094Z" fill="#B28B67"/>
<path fill-rule="evenodd" clip-rule="evenodd" d="M73.1879 80.0703L77.8176 78.8124C87.9017 94.3076 92.0168 131.534 98.7371 136.462C105.091 141.121 114.098 136.613 124.804 130.525L128.083 142.129C118.355 158.8 97.6316 172.884 89.2315 164.844C75.8015 151.989 72.7011 106.075 73.1879 80.0703Z" fill="#DB2721"/>
<path fill-rule="evenodd" clip-rule="evenodd" d="M53.0056 172.234C71.5692 172.234 85.2242 172.234 93.9706 172.234C95.8425 172.234 95.4898 167.952 95.2192 165.792C92.0962 140.856 79.9053 113.978 79.9053 78.4832L68.0891 75.5481C58.3155 100.448 54.9357 131.104 53.0056 172.234Z" fill="#DDE3E9"/>
<path fill-rule="evenodd" clip-rule="evenodd" d="M48.9198 146.988C40.5688 170.849 33.5493 188.029 27.8614 198.525L19.2748 195.861C24.8059 141.524 40.8232 101.419 67.3268 75.5481H69.4595L72.0054 75.5481C82.6132 132.827 85.5376 170.993 80.7785 190.044H43.9036C44.487 176.104 46.3576 161.362 48.9198 146.988H48.9198Z" fill="#FF4133"/>
</svg>
