<svg width="43" height="50" viewBox="0 0 43 50" fill="none" xmlns="http://www.w3.org/2000/svg">
<path fill-rule="evenodd" clip-rule="evenodd" d="M12.7543 37.686C17.4172 37.5737 22.5968 37.4789 25.738 38.9334C29.0466 40.4655 29.5358 42.7873 28.0259 44.7576C26.6535 46.5485 22.4998 47.4719 18.5308 48.3386C14.3315 49.2555 9.62002 50.6156 5.42956 49.6916C1.29556 48.78 1.57959 46.3746 0.83253 44.4359C0.175262 42.7301 -0.94063 40.9036 1.50888 39.5168C4.03141 38.0886 8.53265 37.7876 12.7543 37.686Z" fill="#5F5D5D"/>
<path fill-rule="evenodd" clip-rule="evenodd" d="M25.7639 29.9255C29.2399 29.8693 33.101 29.8219 35.4426 30.5492C37.909 31.3152 38.2737 32.4761 37.1481 33.4613C36.1251 34.3567 33.0287 34.8184 30.07 35.2518C26.9396 35.7102 23.4274 36.3903 20.3036 35.9283C17.2219 35.4725 17.4336 34.2698 16.8767 33.3004C16.3868 32.4475 15.5549 31.5343 17.3809 30.8409C19.2613 30.1268 22.6168 29.9763 25.7639 29.9255Z" fill="#807B7B"/>
<path fill-rule="evenodd" clip-rule="evenodd" d="M34.5177 23.2197C36.9764 23.1729 39.7074 23.1334 41.3637 23.7394C43.1082 24.3778 43.3661 25.3452 42.57 26.1662C41.8464 26.9124 39.6562 27.2971 37.5635 27.6582C35.3493 28.0403 32.8651 28.607 30.6556 28.222C28.4758 27.8422 28.6256 26.8399 28.2317 26.0321C27.8851 25.3214 27.2968 24.5603 28.5883 23.9825C29.9184 23.3874 32.2918 23.262 34.5177 23.2197Z" fill="#9E9A9A"/>
<path fill-rule="evenodd" clip-rule="evenodd" d="M22.6992 6.21413C24.4796 6.158 26.4572 6.11059 27.6566 6.83786C28.9199 7.6039 29.1066 8.76478 28.5301 9.74994C28.0061 10.6454 26.4202 11.1071 24.9047 11.5404C23.3014 11.9989 21.5024 12.679 19.9024 12.2169C18.324 11.7611 18.4325 10.5584 18.1472 9.58907C17.8963 8.73621 17.4702 7.82296 18.4055 7.12953C19.3686 6.41543 21.0873 6.26495 22.6992 6.21413Z" fill="#CCC4C4"/>
<path fill-rule="evenodd" clip-rule="evenodd" d="M31.3318 0.0118966C32.4339 -0.0114916 33.6582 -0.0312468 34.4007 0.271785C35.1827 0.590968 35.2983 1.07467 34.9414 1.48515C34.6171 1.85825 33.6353 2.05064 32.6971 2.23119C31.7046 2.42221 30.591 2.70558 29.6005 2.51307C28.6234 2.32315 28.6905 1.82203 28.5139 1.41812C28.3586 1.06276 28.0948 0.682243 28.6738 0.393314C29.27 0.0957703 30.3339 0.0330718 31.3318 0.0118966Z" fill="#DDD2D2"/>
<path fill-rule="evenodd" clip-rule="evenodd" d="M16.093 16.0174C19.4842 15.9426 23.2512 15.8794 25.5357 16.8491C27.9419 17.8705 28.2977 19.4183 27.1996 20.7319C26.2015 21.9258 23.1806 22.5414 20.2941 23.1192C17.24 23.7305 13.8135 24.6372 10.7659 24.0212C7.75937 23.4134 7.96593 21.8099 7.42261 20.5174C6.9446 19.3802 6.13304 18.1625 7.91451 17.238C9.74908 16.2858 13.0227 16.0852 16.093 16.0174Z" fill="#B6B0B0"/>
</svg>
